<svg xmlns="http://www.w3.org/2000/svg" xmlns:xlink="http://www.w3.org/1999/xlink" width="40" zoomAndPan="magnify" viewBox="0 0 30 30.000001" height="40" preserveAspectRatio="xMidYMid meet" version="1.0"><defs><clipPath id="5006b1cc6b"><path d="M 28 8 L 29.515625 8 L 29.515625 10 L 28 10 Z M 28 8 " clip-rule="nonzero"/></clipPath><clipPath id="239f3a3980"><path d="M 0.484375 8 L 2 8 L 2 10 L 0.484375 10 Z M 0.484375 8 " clip-rule="nonzero"/></clipPath><clipPath id="20cb4e5701"><path d="M 28 10 L 29.515625 10 L 29.515625 12 L 28 12 Z M 28 10 " clip-rule="nonzero"/></clipPath><clipPath id="a6ce530d44"><path d="M 28 12 L 29.515625 12 L 29.515625 14 L 28 14 Z M 28 12 " clip-rule="nonzero"/></clipPath><clipPath id="23a9fc4996"><path d="M 0.484375 12 L 2 12 L 2 14 L 0.484375 14 Z M 0.484375 12 " clip-rule="nonzero"/></clipPath><clipPath id="6010803d09"><path d="M 0.484375 10 L 2 10 L 2 12 L 0.484375 12 Z M 0.484375 10 " clip-rule="nonzero"/></clipPath><clipPath id="1fd3336a55"><path d="M 0.484375 28 L 2 28 L 2 29.03125 L 0.484375 29.03125 Z M 0.484375 28 " clip-rule="nonzero"/></clipPath><clipPath id="229def8037"><path d="M 28 28 L 29.515625 28 L 29.515625 29.03125 L 28 29.03125 Z M 28 28 " clip-rule="nonzero"/></clipPath><clipPath id="b7365a2824"><path d="M 0.484375 0 L 10 0 L 10 9 L 0.484375 9 Z M 0.484375 0 " clip-rule="nonzero"/></clipPath><clipPath id="37a25ddae5"><path d="M 20 0 L 29.515625 0 L 29.515625 9 L 20 9 Z M 20 0 " clip-rule="nonzero"/></clipPath><clipPath id="c125230e0e"><path d="M 17 28 L 19 28 L 19 29.03125 L 17 29.03125 Z M 17 28 " clip-rule="nonzero"/></clipPath></defs><g clip-path="url(#5006b1cc6b)"><path fill="#003f82" d="M 29.039062 8.625 C 28.789062 8.625 28.585938 8.828125 28.585938 9.078125 L 28.585938 9.191406 C 28.585938 9.4375 28.789062 9.644531 29.039062 9.644531 C 29.289062 9.644531 29.492188 9.4375 29.492188 9.191406 L 29.492188 9.078125 C 29.492188 8.828125 29.289062 8.625 29.039062 8.625 Z M 29.039062 8.625 " fill-opacity="1" fill-rule="nonzero"/></g><g clip-path="url(#239f3a3980)"><path fill="#003f82" d="M 0.9375 9.644531 C 1.1875 9.644531 1.390625 9.4375 1.390625 9.191406 L 1.390625 9.078125 C 1.390625 8.828125 1.1875 8.625 0.9375 8.625 C 0.6875 8.625 0.484375 8.828125 0.484375 9.078125 L 0.484375 9.191406 C 0.484375 9.4375 0.6875 9.644531 0.9375 9.644531 Z M 0.9375 9.644531 " fill-opacity="1" fill-rule="nonzero"/></g><g clip-path="url(#20cb4e5701)"><path fill="#003f82" d="M 28.902344 11.480469 C 29.128906 11.480469 29.3125 11.320312 29.359375 11.09375 C 29.359375 11.027344 29.378906 10.933594 29.378906 10.867188 C 29.402344 10.617188 29.246094 10.390625 28.996094 10.367188 C 28.746094 10.347656 28.519531 10.503906 28.496094 10.753906 C 28.496094 10.820312 28.472656 10.914062 28.472656 10.980469 C 28.429688 11.230469 28.609375 11.457031 28.859375 11.5 C 28.859375 11.480469 28.882812 11.480469 28.902344 11.480469 Z M 28.902344 11.480469 " fill-opacity="1" fill-rule="nonzero"/></g><path fill="#003f82" d="M 28.179688 13.925781 C 27.953125 13.835938 27.679688 13.949219 27.589844 14.175781 C 27.566406 14.246094 27.542969 14.3125 27.5 14.378906 C 27.410156 14.605469 27.5 14.878906 27.75 14.96875 C 27.816406 14.992188 27.863281 15.015625 27.929688 15.015625 C 28.109375 15.015625 28.269531 14.902344 28.335938 14.742188 C 28.359375 14.675781 28.40625 14.605469 28.429688 14.515625 C 28.542969 14.289062 28.429688 14.015625 28.179688 13.925781 Z M 28.179688 13.925781 " fill-opacity="1" fill-rule="nonzero"/><path fill="#003f82" d="M 26.863281 16.601562 C 26.933594 16.648438 27.023438 16.667969 27.089844 16.667969 C 27.25 16.667969 27.410156 16.578125 27.476562 16.441406 C 27.523438 16.375 27.566406 16.304688 27.589844 16.238281 C 27.703125 16.011719 27.636719 15.738281 27.410156 15.625 C 27.183594 15.511719 26.910156 15.582031 26.796875 15.808594 C 26.75 15.875 26.726562 15.945312 26.683594 16.011719 C 26.59375 16.191406 26.660156 16.464844 26.863281 16.601562 Z M 26.863281 16.601562 " fill-opacity="1" fill-rule="nonzero"/><g clip-path="url(#a6ce530d44)"><path fill="#003f82" d="M 28.972656 12.953125 C 28.996094 12.882812 29.015625 12.792969 29.039062 12.726562 C 29.109375 12.476562 28.949219 12.226562 28.722656 12.183594 C 28.472656 12.113281 28.222656 12.273438 28.179688 12.5 C 28.15625 12.566406 28.132812 12.636719 28.109375 12.726562 C 28.042969 12.976562 28.179688 13.222656 28.429688 13.292969 C 28.472656 13.292969 28.519531 13.316406 28.542969 13.316406 C 28.746094 13.269531 28.925781 13.15625 28.972656 12.953125 Z M 28.972656 12.953125 " fill-opacity="1" fill-rule="nonzero"/></g><path fill="#003f82" d="M 2.546875 15.625 C 2.320312 15.738281 2.25 16.035156 2.386719 16.238281 C 2.433594 16.304688 2.457031 16.375 2.5 16.441406 C 2.589844 16.578125 2.726562 16.667969 2.886719 16.667969 C 2.953125 16.667969 3.042969 16.648438 3.113281 16.601562 C 3.339844 16.464844 3.40625 16.191406 3.273438 15.988281 C 3.226562 15.921875 3.203125 15.851562 3.15625 15.808594 C 3.042969 15.582031 2.75 15.492188 2.546875 15.625 Z M 2.546875 15.625 " fill-opacity="1" fill-rule="nonzero"/><g clip-path="url(#23a9fc4996)"><path fill="#003f82" d="M 1.890625 12.726562 C 1.867188 12.65625 1.84375 12.589844 1.820312 12.523438 C 1.753906 12.273438 1.503906 12.136719 1.277344 12.203125 C 1.027344 12.273438 0.890625 12.523438 0.960938 12.75 C 0.984375 12.816406 1.003906 12.90625 1.027344 12.976562 C 1.074219 13.179688 1.253906 13.316406 1.457031 13.316406 C 1.503906 13.316406 1.550781 13.316406 1.570312 13.292969 C 1.796875 13.222656 1.957031 12.953125 1.890625 12.726562 Z M 1.890625 12.726562 " fill-opacity="1" fill-rule="nonzero"/></g><path fill="#003f82" d="M 2.230469 14.992188 C 2.457031 14.902344 2.570312 14.628906 2.476562 14.402344 C 2.457031 14.335938 2.410156 14.265625 2.386719 14.199219 C 2.296875 13.972656 2.023438 13.859375 1.796875 13.949219 C 1.570312 14.039062 1.457031 14.3125 1.550781 14.539062 C 1.570312 14.605469 1.617188 14.675781 1.640625 14.765625 C 1.707031 14.945312 1.890625 15.039062 2.046875 15.039062 C 2.117188 15.039062 2.183594 15.015625 2.230469 14.992188 Z M 2.230469 14.992188 " fill-opacity="1" fill-rule="nonzero"/><g clip-path="url(#6010803d09)"><path fill="#003f82" d="M 0.984375 10.367188 C 0.734375 10.390625 0.550781 10.617188 0.597656 10.867188 C 0.597656 10.933594 0.621094 11.027344 0.621094 11.09375 C 0.640625 11.320312 0.847656 11.480469 1.074219 11.480469 C 1.097656 11.480469 1.117188 11.480469 1.140625 11.480469 C 1.390625 11.433594 1.570312 11.207031 1.527344 10.957031 C 1.527344 10.890625 1.503906 10.820312 1.503906 10.730469 C 1.457031 10.503906 1.230469 10.324219 0.984375 10.367188 Z M 0.984375 10.367188 " fill-opacity="1" fill-rule="nonzero"/></g><path fill="#003f82" d="M 3.203125 24.941406 C 2.457031 24.941406 1.84375 25.554688 1.84375 26.300781 C 1.84375 26.664062 1.980469 27.003906 2.25 27.253906 C 2.5 27.503906 2.839844 27.636719 3.203125 27.636719 C 3.953125 27.636719 4.5625 27.027344 4.5625 26.277344 C 4.5625 25.554688 3.953125 24.941406 3.203125 24.941406 Z M 3.203125 26.753906 C 3.089844 26.753906 2.976562 26.710938 2.886719 26.617188 C 2.796875 26.527344 2.75 26.414062 2.75 26.300781 C 2.75 26.050781 2.953125 25.847656 3.203125 25.847656 C 3.453125 25.847656 3.65625 26.050781 3.65625 26.300781 C 3.65625 26.550781 3.453125 26.753906 3.203125 26.753906 Z M 3.203125 26.753906 " fill-opacity="1" fill-rule="nonzero"/><g clip-path="url(#1fd3336a55)"><path fill="#003f82" d="M 1.390625 28.566406 C 1.390625 28.691406 1.347656 28.800781 1.257812 28.886719 C 1.167969 28.976562 1.0625 29.019531 0.9375 29.019531 C 0.8125 29.019531 0.707031 28.976562 0.617188 28.886719 C 0.527344 28.800781 0.484375 28.691406 0.484375 28.566406 C 0.484375 28.441406 0.527344 28.335938 0.617188 28.246094 C 0.707031 28.160156 0.8125 28.113281 0.9375 28.113281 C 1.0625 28.113281 1.167969 28.160156 1.257812 28.246094 C 1.347656 28.335938 1.390625 28.441406 1.390625 28.566406 Z M 1.390625 28.566406 " fill-opacity="1" fill-rule="nonzero"/></g><path fill="#003f82" d="M 26.773438 24.941406 C 26.027344 24.941406 25.414062 25.554688 25.414062 26.300781 C 25.414062 27.050781 26.027344 27.660156 26.773438 27.660156 C 27.136719 27.660156 27.476562 27.523438 27.726562 27.277344 C 27.976562 27.027344 28.132812 26.6875 28.132812 26.324219 C 28.132812 25.554688 27.523438 24.941406 26.773438 24.941406 Z M 27.089844 26.617188 C 27 26.710938 26.886719 26.753906 26.773438 26.753906 C 26.523438 26.753906 26.320312 26.550781 26.320312 26.300781 C 26.320312 26.050781 26.523438 25.847656 26.773438 25.847656 C 27.023438 25.847656 27.226562 26.050781 27.226562 26.300781 C 27.226562 26.414062 27.183594 26.527344 27.089844 26.617188 Z M 27.089844 26.617188 " fill-opacity="1" fill-rule="nonzero"/><g clip-path="url(#229def8037)"><path fill="#003f82" d="M 29.492188 28.566406 C 29.492188 28.691406 29.449219 28.800781 29.359375 28.886719 C 29.273438 28.976562 29.164062 29.019531 29.039062 29.019531 C 28.914062 29.019531 28.808594 28.976562 28.71875 28.886719 C 28.632812 28.800781 28.585938 28.691406 28.585938 28.566406 C 28.585938 28.441406 28.632812 28.335938 28.71875 28.246094 C 28.808594 28.160156 28.914062 28.113281 29.039062 28.113281 C 29.164062 28.113281 29.273438 28.160156 29.359375 28.246094 C 29.449219 28.335938 29.492188 28.441406 29.492188 28.566406 Z M 29.492188 28.566406 " fill-opacity="1" fill-rule="nonzero"/></g><path fill="#003f82" d="M 13.175781 2.503906 C 13.425781 2.503906 13.628906 2.300781 13.628906 2.050781 L 13.628906 0.464844 C 13.628906 0.214844 13.425781 0.0117188 13.175781 0.0117188 C 12.925781 0.0117188 12.722656 0.214844 12.722656 0.464844 L 12.722656 2.050781 C 12.722656 2.300781 12.925781 2.503906 13.175781 2.503906 Z M 13.175781 2.503906 " fill-opacity="1" fill-rule="nonzero"/><path fill="#003f82" d="M 16.800781 2.503906 C 17.050781 2.503906 17.253906 2.300781 17.253906 2.050781 L 17.253906 0.464844 C 17.253906 0.214844 17.050781 0.0117188 16.800781 0.0117188 C 16.550781 0.0117188 16.347656 0.214844 16.347656 0.464844 L 16.347656 2.050781 C 16.347656 2.300781 16.550781 2.503906 16.800781 2.503906 Z M 16.800781 2.503906 " fill-opacity="1" fill-rule="nonzero"/><path fill="#003f82" d="M 14.988281 4.089844 C 15.238281 4.089844 15.441406 3.886719 15.441406 3.636719 L 15.441406 0.464844 C 15.441406 0.214844 15.238281 0.0117188 14.988281 0.0117188 C 14.738281 0.0117188 14.535156 0.214844 14.535156 0.464844 L 14.535156 3.636719 C 14.535156 3.886719 14.738281 4.089844 14.988281 4.089844 Z M 14.988281 4.089844 " fill-opacity="1" fill-rule="nonzero"/><path fill="#003f82" d="M 18.070312 13.496094 C 18.160156 13.5625 18.273438 13.609375 18.386719 13.609375 C 18.5 13.609375 18.636719 13.5625 18.726562 13.472656 C 18.910156 13.292969 18.886719 12.996094 18.707031 12.839844 C 18.070312 12.226562 17.117188 11.863281 16.144531 11.820312 C 15.894531 11.796875 15.691406 12 15.667969 12.25 C 15.644531 12.5 15.851562 12.703125 16.097656 12.726562 C 16.871094 12.75 17.59375 13.019531 18.070312 13.496094 Z M 18.070312 13.496094 " fill-opacity="1" fill-rule="nonzero"/><g clip-path="url(#b7365a2824)"><path fill="#003f82" d="M 1.367188 5.746094 C 1.117188 6.222656 1.210938 6.808594 1.617188 7.21875 L 1.890625 7.492188 C 2.136719 7.738281 2.476562 7.875 2.816406 7.875 C 3.023438 7.875 3.226562 7.832031 3.386719 7.738281 C 3.542969 8.238281 4.042969 8.625 4.609375 8.625 L 4.992188 8.625 C 5.582031 8.625 6.058594 8.261719 6.21875 7.738281 C 6.398438 7.832031 6.582031 7.875 6.785156 7.875 C 7.125 7.875 7.464844 7.738281 7.714844 7.492188 L 7.984375 7.21875 C 8.394531 6.808594 8.484375 6.199219 8.234375 5.722656 C 8.757812 5.5625 9.117188 5.066406 9.117188 4.5 L 9.117188 4.113281 C 9.117188 3.523438 8.757812 3.046875 8.234375 2.890625 C 8.484375 2.414062 8.394531 1.800781 7.984375 1.394531 L 7.691406 1.144531 C 7.441406 0.894531 7.101562 0.757812 6.761719 0.757812 C 6.558594 0.757812 6.355469 0.804688 6.195312 0.894531 C 6.058594 0.375 5.5625 0.0117188 4.972656 0.0117188 L 4.585938 0.0117188 C 3.996094 0.0117188 3.519531 0.375 3.363281 0.894531 C 3.179688 0.804688 3 0.757812 2.796875 0.757812 C 2.457031 0.757812 2.117188 0.894531 1.867188 1.144531 L 1.617188 1.417969 C 1.210938 1.824219 1.117188 2.4375 1.367188 2.890625 C 0.847656 3.046875 0.484375 3.546875 0.484375 4.136719 L 0.484375 4.519531 C 0.484375 5.089844 0.847656 5.585938 1.367188 5.746094 Z M 1.390625 4.136719 C 1.390625 3.933594 1.550781 3.75 1.730469 3.75 L 2.207031 3.75 C 2.273438 3.433594 2.386719 3.160156 2.570312 2.890625 L 2.230469 2.550781 C 2.09375 2.414062 2.117188 2.1875 2.25 2.050781 L 2.523438 1.777344 C 2.613281 1.6875 2.703125 1.664062 2.796875 1.664062 C 2.886719 1.664062 2.953125 1.6875 3.023438 1.757812 L 3.363281 2.097656 C 3.613281 1.9375 3.90625 1.800781 4.222656 1.734375 L 4.222656 1.257812 C 4.222656 1.078125 4.382812 0.917969 4.609375 0.917969 L 4.992188 0.917969 C 5.199219 0.917969 5.378906 1.078125 5.378906 1.257812 L 5.378906 1.734375 C 5.695312 1.800781 5.96875 1.914062 6.242188 2.097656 L 6.582031 1.757812 C 6.648438 1.6875 6.714844 1.664062 6.808594 1.664062 C 6.898438 1.664062 7.011719 1.710938 7.078125 1.777344 L 7.328125 2.050781 C 7.464844 2.210938 7.488281 2.414062 7.351562 2.550781 L 7.011719 2.890625 C 7.167969 3.140625 7.304688 3.433594 7.375 3.75 L 7.847656 3.75 C 8.03125 3.75 8.191406 3.910156 8.191406 4.136719 L 8.191406 4.519531 C 8.191406 4.726562 8.03125 4.90625 7.847656 4.90625 L 7.375 4.90625 C 7.304688 5.222656 7.191406 5.496094 7.011719 5.769531 L 7.351562 6.109375 C 7.488281 6.242188 7.464844 6.46875 7.328125 6.605469 L 7.054688 6.855469 C 6.964844 6.945312 6.875 6.96875 6.785156 6.96875 C 6.695312 6.96875 6.625 6.945312 6.558594 6.878906 L 6.21875 6.539062 C 5.96875 6.695312 5.675781 6.832031 5.355469 6.902344 L 5.355469 7.378906 C 5.355469 7.558594 5.199219 7.71875 4.972656 7.71875 L 4.585938 7.71875 C 4.382812 7.71875 4.199219 7.558594 4.199219 7.378906 L 4.199219 6.902344 C 3.882812 6.832031 3.613281 6.71875 3.339844 6.539062 L 3 6.878906 C 2.929688 6.945312 2.863281 6.96875 2.773438 6.96875 C 2.683594 6.96875 2.570312 6.921875 2.5 6.855469 L 2.25 6.582031 C 2.09375 6.425781 2.09375 6.222656 2.230469 6.085938 L 2.570312 5.746094 C 2.410156 5.496094 2.273438 5.203125 2.207031 4.882812 L 1.730469 4.882812 C 1.550781 4.882812 1.390625 4.726562 1.390625 4.5 Z M 1.390625 4.136719 " fill-opacity="1" fill-rule="nonzero"/></g><path fill="#003f82" d="M 4.789062 5.902344 C 4.789062 5.902344 4.8125 5.902344 4.8125 5.902344 C 5.242188 5.902344 5.628906 5.722656 5.921875 5.429688 C 6.21875 5.132812 6.375 4.726562 6.375 4.292969 C 6.355469 3.410156 5.628906 2.707031 4.765625 2.730469 C 4.335938 2.730469 3.953125 2.914062 3.65625 3.207031 C 3.363281 3.5 3.203125 3.910156 3.203125 4.339844 C 3.226562 5.203125 3.929688 5.902344 4.789062 5.902344 Z M 4.292969 3.839844 C 4.425781 3.707031 4.585938 3.636719 4.765625 3.636719 C 5.128906 3.636719 5.445312 3.933594 5.445312 4.316406 C 5.445312 4.5 5.378906 4.679688 5.265625 4.792969 C 5.128906 4.929688 4.972656 4.996094 4.789062 4.996094 C 4.425781 4.996094 4.109375 4.703125 4.109375 4.316406 C 4.109375 4.136719 4.179688 3.976562 4.292969 3.839844 Z M 4.292969 3.839844 " fill-opacity="1" fill-rule="nonzero"/><g clip-path="url(#37a25ddae5)"><path fill="#003f82" d="M 28.609375 2.890625 C 28.859375 2.414062 28.769531 1.800781 28.359375 1.394531 L 28.089844 1.144531 C 27.839844 0.894531 27.5 0.757812 27.160156 0.757812 C 26.957031 0.757812 26.75 0.804688 26.59375 0.894531 C 26.433594 0.398438 25.933594 0.0117188 25.367188 0.0117188 L 24.984375 0.0117188 C 24.394531 0.0117188 23.917969 0.375 23.757812 0.894531 C 23.578125 0.804688 23.398438 0.757812 23.191406 0.757812 C 22.851562 0.757812 22.511719 0.894531 22.265625 1.144531 L 22.015625 1.417969 C 21.605469 1.824219 21.515625 2.4375 21.765625 2.914062 C 21.265625 3.070312 20.882812 3.570312 20.882812 4.136719 L 20.882812 4.519531 C 20.882812 5.109375 21.242188 5.585938 21.765625 5.746094 C 21.515625 6.222656 21.605469 6.832031 22.015625 7.242188 L 22.285156 7.511719 C 22.535156 7.761719 22.875 7.898438 23.214844 7.898438 C 23.417969 7.898438 23.625 7.851562 23.78125 7.761719 C 23.941406 8.261719 24.4375 8.644531 25.007812 8.644531 L 25.390625 8.644531 C 25.980469 8.644531 26.457031 8.285156 26.613281 7.761719 C 26.796875 7.851562 26.976562 7.898438 27.183594 7.898438 C 27.523438 7.898438 27.863281 7.761719 28.109375 7.511719 L 28.382812 7.242188 C 28.789062 6.832031 28.882812 6.222656 28.632812 5.746094 C 29.152344 5.585938 29.515625 5.089844 29.515625 4.519531 L 29.515625 4.136719 C 29.492188 3.546875 29.128906 3.046875 28.609375 2.890625 Z M 28.585938 4.5 C 28.585938 4.703125 28.429688 4.882812 28.246094 4.882812 L 27.769531 4.882812 C 27.703125 5.203125 27.589844 5.472656 27.410156 5.746094 L 27.75 6.085938 C 27.882812 6.222656 27.863281 6.449219 27.726562 6.582031 L 27.453125 6.855469 C 27.363281 6.945312 27.273438 6.96875 27.183594 6.96875 C 27.089844 6.96875 27.023438 6.945312 26.957031 6.878906 L 26.613281 6.539062 C 26.367188 6.695312 26.070312 6.832031 25.753906 6.902344 L 25.753906 7.378906 C 25.753906 7.558594 25.59375 7.71875 25.367188 7.71875 L 24.984375 7.71875 C 24.78125 7.71875 24.597656 7.558594 24.597656 7.378906 L 24.597656 6.902344 C 24.28125 6.832031 24.007812 6.71875 23.738281 6.539062 L 23.398438 6.878906 C 23.328125 6.945312 23.261719 6.96875 23.171875 6.96875 C 23.078125 6.96875 22.964844 6.921875 22.898438 6.855469 L 22.648438 6.582031 C 22.492188 6.425781 22.492188 6.222656 22.625 6.085938 L 22.964844 5.746094 C 22.808594 5.496094 22.671875 5.203125 22.605469 4.882812 L 22.128906 4.882812 C 21.945312 4.882812 21.789062 4.726562 21.789062 4.5 L 21.789062 4.113281 C 21.789062 3.910156 21.945312 3.726562 22.128906 3.726562 L 22.605469 3.726562 C 22.671875 3.410156 22.785156 3.140625 22.964844 2.867188 L 22.625 2.527344 C 22.492188 2.390625 22.511719 2.164062 22.648438 2.027344 L 22.921875 1.777344 C 23.011719 1.6875 23.101562 1.664062 23.191406 1.664062 C 23.285156 1.664062 23.351562 1.6875 23.417969 1.757812 L 23.757812 2.097656 C 24.007812 1.9375 24.304688 1.800781 24.621094 1.734375 L 24.621094 1.257812 C 24.621094 1.078125 24.78125 0.917969 25.007812 0.917969 L 25.390625 0.917969 C 25.59375 0.917969 25.777344 1.078125 25.777344 1.257812 L 25.777344 1.734375 C 26.09375 1.800781 26.367188 1.914062 26.636719 2.097656 L 26.976562 1.757812 C 27.046875 1.6875 27.113281 1.664062 27.203125 1.664062 C 27.296875 1.664062 27.410156 1.710938 27.476562 1.777344 L 27.75 2.050781 C 27.882812 2.210938 27.90625 2.414062 27.769531 2.550781 L 27.429688 2.890625 C 27.589844 3.140625 27.726562 3.433594 27.792969 3.75 L 28.269531 3.75 C 28.449219 3.75 28.609375 3.910156 28.609375 4.136719 L 28.609375 4.5 Z M 28.585938 4.5 " fill-opacity="1" fill-rule="nonzero"/></g><path fill="#003f82" d="M 25.164062 2.730469 C 24.734375 2.730469 24.347656 2.914062 24.054688 3.207031 C 23.757812 3.5 23.601562 3.910156 23.601562 4.339844 C 23.625 5.203125 24.324219 5.902344 25.1875 5.902344 C 25.1875 5.902344 25.210938 5.902344 25.210938 5.902344 C 25.640625 5.902344 26.027344 5.722656 26.320312 5.429688 C 26.613281 5.132812 26.773438 4.726562 26.773438 4.292969 C 26.75 3.410156 26.027344 2.707031 25.164062 2.730469 Z M 25.6875 4.792969 C 25.550781 4.929688 25.390625 4.996094 25.210938 4.996094 C 24.847656 4.996094 24.53125 4.703125 24.53125 4.316406 C 24.53125 4.136719 24.597656 3.953125 24.710938 3.839844 C 24.847656 3.707031 25.007812 3.636719 25.1875 3.636719 C 25.550781 3.636719 25.867188 3.933594 25.867188 4.316406 C 25.867188 4.5 25.800781 4.65625 25.6875 4.792969 Z M 25.6875 4.792969 " fill-opacity="1" fill-rule="nonzero"/><g clip-path="url(#c125230e0e)"><path fill="#003f82" d="M 18.386719 28.566406 C 18.386719 28.691406 18.34375 28.800781 18.253906 28.886719 C 18.167969 28.976562 18.058594 29.019531 17.933594 29.019531 C 17.808594 29.019531 17.703125 28.976562 17.613281 28.886719 C 17.527344 28.800781 17.480469 28.691406 17.480469 28.566406 C 17.480469 28.441406 17.527344 28.335938 17.613281 28.246094 C 17.703125 28.160156 17.808594 28.113281 17.933594 28.113281 C 18.058594 28.113281 18.167969 28.160156 18.253906 28.246094 C 18.34375 28.335938 18.386719 28.441406 18.386719 28.566406 Z M 18.386719 28.566406 " fill-opacity="1" fill-rule="nonzero"/></g><path fill="#003f82" d="M 20.203125 14.515625 C 20.203125 14.640625 20.15625 14.75 20.070312 14.835938 C 19.980469 14.925781 19.875 14.96875 19.75 14.96875 C 19.621094 14.96875 19.515625 14.925781 19.425781 14.835938 C 19.339844 14.75 19.292969 14.640625 19.292969 14.515625 C 19.292969 14.390625 19.339844 14.285156 19.425781 14.195312 C 19.515625 14.105469 19.621094 14.0625 19.75 14.0625 C 19.875 14.0625 19.980469 14.105469 20.070312 14.195312 C 20.15625 14.285156 20.203125 14.390625 20.203125 14.515625 Z M 20.203125 14.515625 " fill-opacity="1" fill-rule="nonzero"/><path fill="#003f82" d="M 24.394531 19.796875 C 25.210938 19.796875 25.867188 19.09375 25.867188 18.234375 L 25.867188 17.121094 C 25.867188 16.261719 25.210938 15.558594 24.394531 15.558594 L 23.261719 15.558594 C 23.058594 14.855469 22.785156 14.199219 22.398438 13.5625 L 23.171875 12.816406 C 23.441406 12.566406 23.578125 12.203125 23.578125 11.820312 C 23.578125 11.386719 23.398438 10.980469 23.078125 10.664062 L 22.265625 9.871094 C 21.628906 9.257812 20.675781 9.234375 20.089844 9.78125 L 19.292969 10.59375 C 18.636719 10.234375 17.914062 9.9375 17.1875 9.757812 L 17.1875 8.714844 C 17.1875 7.921875 16.460938 7.285156 15.578125 7.285156 L 14.421875 7.285156 C 13.539062 7.285156 12.8125 7.921875 12.8125 8.714844 L 12.8125 9.757812 C 12.066406 9.9375 11.363281 10.234375 10.707031 10.59375 L 9.910156 9.824219 C 9.324219 9.257812 8.371094 9.304688 7.734375 9.914062 L 6.921875 10.707031 C 6.601562 11.027344 6.421875 11.433594 6.421875 11.863281 C 6.421875 12.25 6.582031 12.589844 6.828125 12.863281 L 7.601562 13.609375 C 7.214844 14.246094 6.921875 14.902344 6.738281 15.605469 L 5.605469 15.605469 C 4.789062 15.605469 4.132812 16.304688 4.132812 17.167969 L 4.132812 18.277344 C 4.132812 19.140625 4.789062 19.84375 5.605469 19.84375 L 6.738281 19.84375 C 6.941406 20.542969 7.214844 21.203125 7.601562 21.835938 L 6.828125 22.585938 C 6.558594 22.832031 6.421875 23.195312 6.421875 23.582031 C 6.421875 24.011719 6.601562 24.421875 6.921875 24.738281 L 7.734375 25.53125 C 8.371094 26.144531 9.324219 26.164062 9.910156 25.621094 L 10.570312 24.988281 C 10.386719 24.714844 10.230469 24.441406 10.09375 24.195312 L 9.277344 24.964844 C 9.050781 25.167969 8.621094 25.144531 8.347656 24.875 L 7.53125 24.082031 C 7.394531 23.945312 7.304688 23.761719 7.304688 23.582031 C 7.304688 23.492188 7.328125 23.355469 7.441406 23.242188 L 8.757812 21.972656 L 8.550781 21.65625 C 8.054688 20.929688 7.714844 20.136719 7.53125 19.296875 L 7.441406 18.9375 L 5.605469 18.9375 C 5.289062 18.9375 5.039062 18.640625 5.039062 18.277344 L 5.039062 17.167969 C 5.039062 16.804688 5.289062 16.511719 5.605469 16.511719 L 7.441406 16.511719 L 7.53125 16.148438 C 7.714844 15.308594 8.078125 14.515625 8.550781 13.789062 L 8.757812 13.472656 L 7.441406 12.203125 C 7.328125 12.089844 7.304688 11.957031 7.304688 11.863281 C 7.304688 11.683594 7.394531 11.5 7.53125 11.367188 L 8.347656 10.574219 C 8.621094 10.300781 9.050781 10.277344 9.277344 10.480469 L 10.570312 11.726562 L 10.863281 11.546875 C 11.632812 11.070312 12.472656 10.753906 13.355469 10.550781 L 13.71875 10.480469 L 13.71875 8.691406 C 13.71875 8.398438 14.035156 8.171875 14.421875 8.171875 L 15.578125 8.171875 C 15.964844 8.171875 16.28125 8.417969 16.28125 8.691406 L 16.28125 10.480469 L 16.644531 10.550781 C 17.527344 10.730469 18.367188 11.070312 19.136719 11.546875 L 19.429688 11.726562 L 20.722656 10.480469 C 20.949219 10.253906 21.355469 10.300781 21.652344 10.574219 L 22.46875 11.367188 C 22.605469 11.5 22.695312 11.683594 22.695312 11.863281 C 22.695312 11.957031 22.671875 12.089844 22.558594 12.203125 L 21.242188 13.472656 L 21.449219 13.789062 C 21.945312 14.515625 22.285156 15.308594 22.46875 16.148438 L 22.558594 16.511719 L 24.394531 16.511719 C 24.710938 16.511719 24.960938 16.804688 24.960938 17.167969 L 24.960938 18.277344 C 24.960938 18.640625 24.710938 18.9375 24.394531 18.9375 L 22.558594 18.9375 L 22.46875 19.253906 C 22.285156 20.089844 21.921875 20.882812 21.449219 21.609375 L 21.242188 21.925781 L 22.558594 23.195312 C 22.671875 23.308594 22.695312 23.445312 22.695312 23.535156 C 22.695312 23.71875 22.605469 23.898438 22.46875 24.035156 L 21.652344 24.828125 C 21.378906 25.101562 20.949219 25.121094 20.722656 24.917969 L 20.132812 24.351562 L 19.566406 25.078125 L 20.089844 25.574219 C 20.675781 26.144531 21.628906 26.097656 22.265625 25.484375 L 23.078125 24.691406 C 23.398438 24.375 23.578125 23.96875 23.578125 23.535156 C 23.578125 23.152344 23.417969 22.8125 23.171875 22.539062 L 22.398438 21.792969 C 22.785156 21.15625 23.078125 20.5 23.261719 19.796875 Z M 24.394531 19.796875 " fill-opacity="1" fill-rule="nonzero"/><path fill="#003f82" d="M 19.75 19.910156 C 19.769531 19.886719 19.769531 19.886719 19.792969 19.863281 C 20.222656 19.433594 20.203125 18.640625 20.203125 18.640625 C 20.203125 18.617188 20.203125 17.167969 20.203125 17.167969 C 20.203125 17.101562 20.203125 17.054688 20.179688 17.007812 C 20.132812 16.917969 19.816406 16.171875 19.046875 15.945312 C 18.683594 15.832031 18.296875 15.875 17.890625 16.058594 C 17.707031 15.71875 17.390625 15.308594 16.914062 15.082031 C 16.460938 14.855469 15.941406 14.8125 15.398438 14.96875 C 15.148438 14.675781 14.695312 14.222656 14.035156 14.128906 C 13.539062 14.039062 13.039062 14.175781 12.539062 14.492188 C 12.40625 14.359375 12.199219 14.199219 11.929688 14.152344 C 11.476562 14.0625 11 14.246094 10.523438 14.699219 C 10.34375 14.855469 10.230469 15.171875 10.230469 15.421875 L 10.230469 18.324219 C 10.117188 18.4375 10.003906 18.550781 9.910156 18.664062 C 9.867188 18.707031 9.84375 18.777344 9.84375 18.820312 C 9.820312 18.9375 9.230469 21.792969 11.816406 25.191406 C 11.839844 25.214844 11.859375 25.28125 11.859375 25.304688 L 11.859375 28.5 C 11.859375 28.75 12.066406 28.953125 12.3125 28.953125 C 12.5625 28.953125 12.769531 28.75 12.769531 28.5 L 12.769531 25.304688 C 12.769531 25.078125 12.675781 24.828125 12.539062 24.648438 C 10.480469 21.925781 10.660156 19.59375 10.726562 19.117188 C 11.023438 18.777344 11.746094 18.367188 13.425781 18.300781 C 13.582031 18.300781 13.945312 18.324219 14.082031 18.617188 C 14.082031 18.617188 14.105469 18.9375 13.289062 19.75 C 12.972656 19.59375 12.609375 19.457031 12.179688 19.34375 C 11.929688 19.277344 11.679688 19.433594 11.632812 19.660156 C 11.566406 19.910156 11.726562 20.160156 11.953125 20.203125 C 13.039062 20.476562 13.71875 20.996094 13.878906 21.679688 C 13.921875 21.90625 14.195312 22.0625 14.421875 22.019531 C 14.671875 21.949219 14.808594 21.722656 14.761719 21.472656 C 14.695312 21.15625 14.488281 20.703125 14.035156 20.273438 C 14.851562 19.457031 15.125 18.800781 14.921875 18.277344 C 14.695312 17.710938 14.105469 17.371094 13.378906 17.394531 C 12.472656 17.441406 11.726562 17.554688 11.136719 17.78125 L 11.136719 15.421875 C 11.136719 15.398438 11.160156 15.355469 11.160156 15.355469 C 11.40625 15.128906 11.613281 15.015625 11.746094 15.039062 C 11.882812 15.058594 11.996094 15.242188 12.019531 15.308594 C 12.066406 15.445312 12.199219 15.535156 12.335938 15.582031 C 12.472656 15.625 12.632812 15.582031 12.746094 15.492188 C 13.152344 15.128906 13.539062 14.96875 13.902344 15.039062 C 14.46875 15.128906 14.851562 15.738281 14.851562 15.738281 C 14.964844 15.945312 15.191406 16.011719 15.417969 15.945312 C 15.871094 15.761719 16.234375 15.761719 16.550781 15.921875 C 17.050781 16.125 17.253906 16.78125 17.253906 16.78125 C 17.300781 16.917969 17.390625 17.03125 17.550781 17.078125 C 17.6875 17.121094 17.84375 17.101562 17.957031 17.007812 C 18.273438 16.78125 18.570312 16.691406 18.796875 16.761719 C 19.046875 16.828125 19.226562 17.078125 19.292969 17.234375 C 19.292969 17.234375 19.292969 18.664062 19.292969 18.6875 C 19.316406 18.957031 19.226562 19.277344 18.910156 19.277344 C 18.683594 19.277344 18.367188 19.207031 18.386719 18.914062 C 18.386719 18.914062 18.410156 18.347656 18.410156 18.347656 C 18.410156 18.097656 18.230469 17.894531 17.980469 17.871094 C 17.707031 17.871094 17.527344 18.050781 17.503906 18.300781 L 17.480469 18.867188 C 17.480469 18.914062 17.480469 18.9375 17.480469 18.980469 C 17.4375 19.070312 17.300781 19.296875 17.003906 19.253906 C 16.824219 19.207031 16.484375 19.050781 16.574219 18.414062 C 16.621094 18.164062 16.4375 17.9375 16.191406 17.894531 C 15.941406 17.847656 15.714844 18.027344 15.667969 18.277344 C 15.488281 19.457031 16.257812 20.046875 16.824219 20.136719 C 16.890625 20.160156 16.984375 20.160156 17.050781 20.160156 C 17.390625 20.160156 17.640625 20.046875 17.84375 19.886719 C 18.140625 20.113281 18.523438 20.160156 18.726562 20.160156 C 18.75 20.160156 18.773438 20.160156 18.796875 20.160156 L 18.796875 22.96875 C 18.796875 22.992188 18.773438 23.058594 18.75 23.082031 L 17.664062 24.464844 C 17.527344 24.648438 17.414062 24.917969 17.414062 25.144531 L 17.414062 26.730469 C 17.414062 26.980469 17.617188 27.183594 17.867188 27.183594 C 18.117188 27.183594 18.320312 26.980469 18.320312 26.730469 L 18.320312 25.167969 C 18.320312 25.144531 18.34375 25.078125 18.367188 25.054688 L 19.453125 23.671875 C 19.589844 23.492188 19.703125 23.21875 19.703125 22.992188 L 19.703125 19.910156 Z M 19.75 19.910156 " fill-opacity="1" fill-rule="nonzero"/><path fill="#003f82" d="M 14.988281 23.355469 C 14.988281 23.480469 14.945312 23.585938 14.855469 23.675781 C 14.765625 23.765625 14.660156 23.808594 14.535156 23.808594 C 14.410156 23.808594 14.304688 23.765625 14.214844 23.675781 C 14.125 23.585938 14.082031 23.480469 14.082031 23.355469 C 14.082031 23.230469 14.125 23.121094 14.214844 23.035156 C 14.304688 22.945312 14.410156 22.902344 14.535156 22.902344 C 14.660156 22.902344 14.765625 22.945312 14.855469 23.035156 C 14.945312 23.121094 14.988281 23.230469 14.988281 23.355469 Z M 14.988281 23.355469 " fill-opacity="1" fill-rule="nonzero"/><path fill="#003f82" d="M 14.535156 24.714844 C 14.285156 24.714844 14.082031 24.917969 14.082031 25.167969 L 14.082031 27.207031 C 14.082031 27.457031 14.285156 27.660156 14.535156 27.660156 C 14.785156 27.660156 14.988281 27.457031 14.988281 27.207031 L 14.988281 25.167969 C 14.988281 24.917969 14.785156 24.714844 14.535156 24.714844 Z M 14.535156 24.714844 " fill-opacity="1" fill-rule="nonzero"/></svg>