<svg xmlns="http://www.w3.org/2000/svg" xmlns:xlink="http://www.w3.org/1999/xlink" width="40" zoomAndPan="magnify" viewBox="0 0 30 30.000001" height="40" preserveAspectRatio="xMidYMid meet" version="1.0"><defs><clipPath id="750339223e"><path d="M 0.484375 14 L 16 14 L 16 29.03125 L 0.484375 29.03125 Z M 0.484375 14 " clip-rule="nonzero"/></clipPath><clipPath id="18f1115bff"><path d="M 14 0 L 29.515625 0 L 29.515625 16 L 14 16 Z M 14 0 " clip-rule="nonzero"/></clipPath></defs><path fill="#003f82" d="M 7.992188 21.523438 C 6.886719 21.523438 5.988281 20.628906 5.988281 19.523438 C 5.988281 18.414062 6.886719 17.519531 7.992188 17.519531 C 9.097656 17.519531 9.996094 18.414062 9.996094 19.523438 C 9.996094 20.628906 9.097656 21.523438 7.992188 21.523438 Z M 7.992188 16.519531 C 6.332031 16.519531 4.988281 17.863281 4.988281 19.523438 C 4.988281 21.179688 6.332031 22.523438 7.992188 22.523438 C 9.652344 22.523438 10.996094 21.179688 10.996094 19.523438 C 10.996094 17.863281 9.652344 16.519531 7.992188 16.519531 " fill-opacity="1" fill-rule="nonzero"/><g clip-path="url(#750339223e)"><path fill="#003f82" d="M 12.335938 26.363281 C 11.679688 23.964844 9.199219 22.550781 6.800781 23.210938 C 5.269531 23.628906 4.066406 24.832031 3.644531 26.363281 C 0.972656 23.964844 0.75 19.851562 3.148438 17.175781 C 5.546875 14.5 9.664062 14.277344 12.335938 16.675781 C 15.011719 19.074219 15.238281 23.1875 12.835938 25.863281 C 12.675781 26.039062 12.511719 26.207031 12.335938 26.363281 Z M 4.527344 27.03125 C 4.820312 25.117188 6.609375 23.800781 8.519531 24.09375 C 10.035156 24.324219 11.222656 25.515625 11.457031 27.03125 C 9.34375 28.378906 6.640625 28.378906 4.527344 27.03125 Z M 7.992188 14.015625 C 3.84375 14.015625 0.484375 17.378906 0.484375 21.523438 C 0.484375 25.671875 3.84375 29.03125 7.992188 29.03125 C 12.140625 29.03125 15.5 25.671875 15.5 21.523438 C 15.5 17.378906 12.140625 14.015625 7.992188 14.015625 " fill-opacity="1" fill-rule="nonzero"/></g><path fill="#003f82" d="M 22.007812 3.503906 C 23.113281 3.503906 24.011719 4.398438 24.011719 5.503906 C 24.011719 6.609375 23.113281 7.507812 22.007812 7.507812 C 20.902344 7.507812 20.003906 6.609375 20.003906 5.503906 C 20.003906 4.398438 20.902344 3.503906 22.007812 3.503906 Z M 22.007812 8.511719 C 23.667969 8.511719 25.011719 7.164062 25.011719 5.503906 C 25.011719 3.847656 23.667969 2.503906 22.007812 2.503906 C 20.347656 2.503906 19.003906 3.847656 19.003906 5.503906 C 19.003906 7.164062 20.347656 8.511719 22.007812 8.511719 " fill-opacity="1" fill-rule="nonzero"/><g clip-path="url(#18f1115bff)"><path fill="#003f82" d="M 22.007812 1 C 25.601562 1.011719 28.507812 3.929688 28.5 7.523438 C 28.496094 9.359375 27.71875 11.109375 26.355469 12.339844 C 25.695312 9.9375 23.21875 8.527344 20.816406 9.183594 C 19.28125 9.605469 18.082031 10.804688 17.664062 12.339844 C 14.996094 9.929688 14.785156 5.816406 17.195312 3.148438 C 18.421875 1.785156 20.171875 1.003906 22.007812 1 Z M 18.542969 13.011719 C 18.835938 11.101562 20.625 9.785156 22.535156 10.078125 C 24.050781 10.308594 25.238281 11.496094 25.472656 13.011719 C 23.359375 14.363281 20.65625 14.363281 18.542969 13.011719 Z M 22.007812 15.015625 C 26.15625 15.015625 29.515625 11.65625 29.515625 7.507812 C 29.515625 3.359375 26.15625 0 22.007812 0 C 17.859375 0 14.5 3.359375 14.5 7.507812 C 14.5 11.65625 17.859375 15.015625 22.007812 15.015625 " fill-opacity="1" fill-rule="nonzero"/></g><path fill="#003f82" d="M 3.070312 13.789062 C 3.222656 14.019531 3.53125 14.082031 3.761719 13.929688 L 5.265625 12.929688 C 5.5 12.78125 5.570312 12.472656 5.421875 12.242188 C 5.347656 12.121094 5.226562 12.039062 5.089844 12.011719 L 4.3125 11.859375 C 5.300781 7.914062 8.378906 4.835938 12.320312 3.851562 L 12.472656 4.777344 C 12.519531 5.050781 12.777344 5.230469 13.050781 5.1875 C 13.175781 5.164062 13.292969 5.09375 13.367188 4.988281 L 14.441406 3.503906 C 14.605469 3.28125 14.558594 2.972656 14.335938 2.808594 L 12.875 1.761719 C 12.652344 1.59375 12.335938 1.640625 12.171875 1.859375 C 12.085938 1.976562 12.054688 2.121094 12.082031 2.261719 L 12.175781 2.859375 C 7.8125 3.914062 4.402344 7.3125 3.332031 11.671875 L 2.585938 11.511719 C 2.3125 11.46875 2.054688 11.652344 2.011719 11.925781 C 1.992188 12.050781 2.015625 12.175781 2.085938 12.277344 L 3.070312 13.789062 " fill-opacity="1" fill-rule="nonzero"/><path fill="#003f82" d="M 26.929688 15.242188 C 26.773438 15.011719 26.46875 14.953125 26.238281 15.101562 L 24.738281 16.105469 C 24.503906 16.25 24.429688 16.558594 24.578125 16.792969 C 24.652344 16.914062 24.773438 16.992188 24.910156 17.019531 L 25.6875 17.171875 C 24.703125 21.117188 21.621094 24.195312 17.679688 25.183594 L 17.503906 24.265625 C 17.457031 23.992188 17.199219 23.808594 16.925781 23.855469 C 16.800781 23.878906 16.683594 23.945312 16.605469 24.050781 L 15.558594 25.527344 C 15.394531 25.75 15.441406 26.0625 15.664062 26.222656 L 17.125 27.285156 C 17.347656 27.453125 17.664062 27.40625 17.828125 27.183594 C 17.914062 27.070312 17.949219 26.925781 17.917969 26.785156 L 17.824219 26.1875 C 22.191406 25.132812 25.605469 21.726562 26.667969 17.359375 L 27.414062 17.507812 C 27.6875 17.550781 27.945312 17.371094 27.988281 17.097656 C 28.007812 16.972656 27.980469 16.847656 27.914062 16.742188 L 26.929688 15.242188 " fill-opacity="1" fill-rule="nonzero"/></svg>