<svg xmlns="http://www.w3.org/2000/svg" xmlns:xlink="http://www.w3.org/1999/xlink" width="40" zoomAndPan="magnify" viewBox="0 0 30 30.000001" height="40" preserveAspectRatio="xMidYMid meet" version="1.0"><defs><clipPath id="aae34dc15c"><path d="M 5.507812 12 L 19 12 L 19 26 L 5.507812 26 Z M 5.507812 12 " clip-rule="nonzero"/></clipPath><clipPath id="a41ad8a196"><path d="M 15 15 L 24.378906 15 L 24.378906 28.289062 L 15 28.289062 Z M 15 15 " clip-rule="nonzero"/></clipPath><clipPath id="d12cf95584"><path d="M 7 0.707031 L 17 0.707031 L 17 12 L 7 12 Z M 7 0.707031 " clip-rule="nonzero"/></clipPath></defs><g clip-path="url(#aae34dc15c)"><path fill="#013f69" d="M 5.507812 15.941406 L 5.507812 24.625 C 5.507812 24.992188 5.785156 25.269531 6.148438 25.269531 L 15.347656 25.269531 C 15.261719 25.121094 15.199219 24.992188 15.132812 24.839844 L 8.765625 24.839844 L 11.554688 15.273438 C 11.554688 15.273438 11.554688 15.25 11.554688 15.25 C 11.554688 15.230469 11.554688 15.230469 11.554688 15.207031 C 11.554688 15.1875 11.554688 15.1875 11.554688 15.164062 C 11.554688 15.144531 11.554688 15.144531 11.53125 15.121094 C 11.53125 15.101562 11.511719 15.101562 11.511719 15.078125 C 11.511719 15.078125 11.511719 15.058594 11.488281 15.058594 L 9.667969 13.203125 L 13.957031 13.203125 L 12.109375 15.058594 C 12.109375 15.058594 12.109375 15.078125 12.089844 15.078125 C 12.089844 15.101562 12.066406 15.101562 12.066406 15.121094 C 12.066406 15.144531 12.066406 15.144531 12.046875 15.164062 C 12.046875 15.1875 12.046875 15.1875 12.046875 15.207031 C 12.046875 15.230469 12.046875 15.230469 12.046875 15.25 C 12.046875 15.25 12.046875 15.273438 12.046875 15.273438 L 14.941406 24.042969 C 14.941406 23.957031 14.921875 23.871094 14.921875 23.804688 L 14.921875 22.640625 L 13.613281 18.589844 L 14.941406 18.589844 L 14.941406 18.160156 L 13.460938 18.160156 L 13.183594 17.296875 L 15.15625 17.296875 C 15.261719 17.191406 15.414062 17.125 15.585938 17.125 C 15.929688 17.125 16.851562 17.0625 17.492188 16.867188 L 13.03125 16.867188 L 12.496094 15.273438 L 14.554688 13.203125 L 15.199219 13.203125 C 16.699219 13.203125 17.921875 14.433594 17.921875 15.941406 L 17.921875 16.652344 C 18.074219 16.566406 18.222656 16.480469 18.351562 16.371094 L 18.351562 15.941406 C 18.371094 14.195312 16.957031 12.773438 15.21875 12.773438 L 8.660156 12.773438 C 6.921875 12.773438 5.507812 14.195312 5.507812 15.941406 Z M 8.335938 24.839844 L 6.148438 24.839844 C 6.019531 24.839844 5.933594 24.753906 5.933594 24.625 L 5.933594 18.589844 L 10.160156 18.589844 Z M 10.289062 18.160156 L 5.933594 18.160156 L 5.933594 17.296875 L 10.523438 17.296875 Z M 8.660156 13.203125 L 9.042969 13.203125 L 11.101562 15.273438 L 10.652344 16.867188 L 5.933594 16.867188 L 5.933594 15.941406 C 5.933594 14.433594 7.15625 13.203125 8.660156 13.203125 Z M 8.660156 13.203125 " fill-opacity="1" fill-rule="nonzero"/></g><g clip-path="url(#a41ad8a196)"><path fill="#013f69" d="M 24.378906 17.773438 C 24.378906 17.707031 24.355469 17.664062 24.3125 17.621094 C 24.269531 17.578125 24.207031 17.558594 24.140625 17.558594 C 24.121094 17.558594 22.960938 17.644531 22.019531 17.167969 C 21.351562 16.847656 20.6875 16.265625 20.34375 15.960938 C 20.21875 15.832031 20.046875 15.789062 19.875 15.789062 C 19.703125 15.789062 19.53125 15.875 19.421875 16.003906 C 19.125 16.351562 18.628906 16.804688 17.988281 17.125 C 17.171875 17.535156 15.585938 17.558594 15.585938 17.558594 C 15.476562 17.558594 15.371094 17.664062 15.371094 17.773438 L 15.371094 23.804688 C 15.371094 26.285156 19.617188 28.199219 19.789062 28.265625 C 19.808594 28.285156 19.851562 28.285156 19.875 28.285156 C 19.894531 28.285156 19.9375 28.285156 19.960938 28.265625 C 20.132812 28.179688 24.378906 26.261719 24.378906 23.804688 Z M 23.949219 23.804688 C 23.949219 25.808594 20.472656 27.554688 19.875 27.835938 C 19.273438 27.554688 15.800781 25.808594 15.800781 23.804688 L 15.800781 17.988281 C 16.292969 17.964844 17.472656 17.878906 18.179688 17.515625 C 18.867188 17.167969 19.402344 16.652344 19.746094 16.308594 C 19.789062 16.265625 19.851562 16.242188 19.894531 16.242188 C 19.960938 16.242188 20.003906 16.265625 20.066406 16.308594 C 20.496094 16.714844 21.160156 17.253906 21.847656 17.601562 C 22.640625 17.988281 23.539062 18.050781 23.949219 18.03125 Z M 23.949219 23.804688 " fill-opacity="1" fill-rule="nonzero"/></g><g clip-path="url(#d12cf95584)"><path fill="#013f69" d="M 12.152344 0.707031 L 11.726562 0.707031 C 11.359375 0.707031 11.082031 0.988281 11.082031 1.355469 L 11.082031 1.417969 C 9.28125 1.761719 7.886719 3.378906 7.757812 5.230469 C 7.265625 5.320312 7.007812 5.40625 7.007812 5.664062 C 7.007812 5.855469 7.351562 6.050781 7.90625 6.222656 C 7.886719 6.460938 7.863281 6.675781 7.863281 6.957031 C 7.863281 9.691406 9.6875 11.910156 11.941406 11.910156 C 14.191406 11.910156 16.015625 9.691406 16.015625 6.957031 C 16.015625 6.71875 15.992188 6.460938 15.972656 6.222656 C 16.527344 6.050781 16.871094 5.855469 16.871094 5.664062 C 16.871094 5.425781 16.636719 5.320312 15.949219 5.210938 C 15.863281 3.378906 14.578125 1.828125 12.796875 1.441406 L 12.796875 1.355469 C 12.796875 0.988281 12.519531 0.707031 12.152344 0.707031 Z M 11.941406 11.480469 C 9.921875 11.480469 8.292969 9.457031 8.292969 6.957031 C 8.292969 6.71875 8.292969 6.523438 8.316406 6.332031 C 9.324219 6.589844 10.71875 6.742188 11.941406 6.742188 C 13.160156 6.742188 14.554688 6.589844 15.542969 6.351562 C 15.5625 6.546875 15.585938 6.742188 15.585938 6.957031 C 15.585938 9.457031 13.957031 11.480469 11.941406 11.480469 Z M 13.246094 2.023438 C 13.246094 2.042969 13.246094 2.042969 13.246094 2.023438 L 13.3125 2.324219 C 13.503906 3.183594 13.503906 3.207031 13.246094 4.070312 C 13.203125 4.175781 13.269531 4.304688 13.398438 4.328125 C 13.417969 4.328125 13.441406 4.328125 13.460938 4.328125 C 13.546875 4.328125 13.632812 4.261719 13.675781 4.175781 C 13.957031 3.226562 13.957031 3.140625 13.761719 2.214844 C 14.855469 2.839844 15.5625 4.003906 15.5625 5.382812 C 15.5625 5.492188 15.648438 5.578125 15.757812 5.597656 C 15.972656 5.621094 16.140625 5.664062 16.25 5.683594 C 15.585938 5.941406 13.976562 6.308594 11.941406 6.308594 C 9.902344 6.308594 8.273438 5.941406 7.652344 5.707031 C 7.738281 5.683594 7.84375 5.664062 7.992188 5.640625 C 7.992188 5.640625 8.015625 5.640625 8.015625 5.640625 C 8.035156 5.640625 8.035156 5.640625 8.058594 5.621094 C 8.078125 5.621094 8.078125 5.597656 8.101562 5.597656 C 8.121094 5.597656 8.121094 5.578125 8.121094 5.578125 C 8.121094 5.578125 8.144531 5.554688 8.144531 5.535156 C 8.144531 5.511719 8.164062 5.511719 8.164062 5.492188 C 8.164062 5.46875 8.164062 5.46875 8.164062 5.449219 C 8.164062 5.449219 8.164062 5.425781 8.164062 5.425781 C 8.1875 4.046875 8.980469 2.820312 10.136719 2.195312 L 10.136719 2.238281 C 9.945312 3.164062 9.945312 3.25 10.222656 4.199219 C 10.246094 4.285156 10.332031 4.347656 10.4375 4.347656 C 10.460938 4.347656 10.480469 4.347656 10.503906 4.347656 C 10.609375 4.304688 10.675781 4.199219 10.652344 4.089844 C 10.394531 3.226562 10.394531 3.207031 10.589844 2.34375 L 10.652344 2.042969 C 10.652344 2.023438 10.652344 2 10.652344 2 C 10.804688 1.957031 10.953125 1.914062 11.101562 1.871094 L 11.101562 2.429688 C 11.101562 2.558594 11.1875 2.648438 11.316406 2.648438 C 11.445312 2.648438 11.53125 2.558594 11.53125 2.429688 L 11.53125 1.355469 C 11.53125 1.222656 11.617188 1.136719 11.746094 1.136719 L 12.175781 1.136719 C 12.304688 1.136719 12.390625 1.222656 12.390625 1.355469 L 12.390625 2.429688 C 12.390625 2.558594 12.476562 2.648438 12.605469 2.648438 C 12.734375 2.648438 12.820312 2.558594 12.820312 2.429688 L 12.820312 1.890625 C 12.949219 1.9375 13.097656 1.980469 13.246094 2.023438 Z M 13.246094 2.023438 " fill-opacity="1" fill-rule="nonzero"/></g><path fill="#013f69" d="M 10.632812 5.363281 C 10.523438 5.40625 10.480469 5.535156 10.523438 5.640625 C 10.566406 5.726562 10.632812 5.769531 10.71875 5.769531 C 10.738281 5.769531 10.78125 5.769531 10.804688 5.75 C 11.554688 5.382812 12.046875 5.382812 12.820312 5.726562 C 12.925781 5.769531 13.054688 5.726562 13.097656 5.621094 C 13.140625 5.511719 13.097656 5.382812 12.992188 5.339844 C 12.132812 4.929688 11.511719 4.953125 10.632812 5.363281 Z M 10.632812 5.363281 " fill-opacity="1" fill-rule="nonzero"/><path fill="#013f69" d="M 19.875 19.023438 C 18.328125 19.023438 17.085938 20.273438 17.085938 21.824219 C 17.085938 23.375 18.328125 24.625 19.875 24.625 C 21.417969 24.625 22.660156 23.375 22.660156 21.824219 C 22.660156 20.273438 21.417969 19.023438 19.875 19.023438 Z M 19.875 24.191406 C 18.566406 24.191406 17.515625 23.136719 17.515625 21.824219 C 17.515625 20.507812 18.566406 19.453125 19.875 19.453125 C 21.183594 19.453125 22.234375 20.507812 22.234375 21.824219 C 22.234375 23.136719 21.183594 24.191406 19.875 24.191406 Z M 19.875 24.191406 " fill-opacity="1" fill-rule="nonzero"/><path fill="#013f69" d="M 21.011719 20.808594 L 19.445312 22.382812 L 18.738281 21.671875 C 18.652344 21.585938 18.523438 21.585938 18.4375 21.671875 C 18.351562 21.757812 18.351562 21.886719 18.4375 21.972656 L 19.292969 22.835938 C 19.335938 22.878906 19.402344 22.902344 19.445312 22.902344 C 19.488281 22.902344 19.550781 22.878906 19.59375 22.835938 L 21.3125 21.113281 C 21.394531 21.027344 21.394531 20.898438 21.3125 20.808594 C 21.226562 20.722656 21.097656 20.722656 21.011719 20.808594 Z M 21.011719 20.808594 " fill-opacity="1" fill-rule="nonzero"/></svg>