<svg xmlns="http://www.w3.org/2000/svg" xmlns:xlink="http://www.w3.org/1999/xlink" width="40" zoomAndPan="magnify" viewBox="0 0 30 30.000001" height="40" preserveAspectRatio="xMidYMid meet" version="1.0"><defs><clipPath id="1ab7fae235"><path d="M 1.28125 25.433594 L 5.671875 25.433594 L 5.671875 29.03125 L 1.28125 29.03125 Z M 1.28125 25.433594 " clip-rule="nonzero"/></clipPath><clipPath id="b9c8bc64e5"><path d="M 18.195312 25.433594 L 22.585938 25.433594 L 22.585938 29.03125 L 18.195312 29.03125 Z M 18.195312 25.433594 " clip-rule="nonzero"/></clipPath><clipPath id="ebdd45d490"><path d="M 0.484375 17 L 4 17 L 4 20 L 0.484375 20 Z M 0.484375 17 " clip-rule="nonzero"/></clipPath><clipPath id="dd4e292635"><path d="M 12 2.503906 L 29.515625 2.503906 L 29.515625 20 L 12 20 Z M 12 2.503906 " clip-rule="nonzero"/></clipPath><clipPath id="e740a630eb"><path d="M 0.992188 28.8125 L 25.632812 28.8125 L 25.632812 29.03125 L 0.992188 29.03125 Z M 0.992188 28.8125 " clip-rule="nonzero"/></clipPath><clipPath id="f023195b0f"><path d="M 26.359375 28.8125 L 27.554688 28.8125 L 27.554688 29.03125 L 26.359375 29.03125 Z M 26.359375 28.8125 " clip-rule="nonzero"/></clipPath></defs><path fill="#003f82" d="M 9.277344 12.65625 C 9.128906 12.65625 9.011719 12.535156 9.011719 12.386719 C 9.011719 11.355469 9.839844 10.515625 10.859375 10.515625 C 11.007812 10.515625 11.125 10.636719 11.125 10.785156 C 11.125 10.933594 11.007812 11.054688 10.859375 11.054688 C 10.132812 11.054688 9.542969 11.652344 9.542969 12.386719 C 9.542969 12.535156 9.421875 12.65625 9.277344 12.65625 " fill-opacity="1" fill-rule="nonzero"/><path fill="#003f82" d="M 7.695312 12.65625 C 7.546875 12.65625 7.429688 12.535156 7.429688 12.386719 C 7.429688 10.472656 8.96875 8.914062 10.859375 8.914062 C 11.007812 8.914062 11.125 9.035156 11.125 9.183594 C 11.125 9.332031 11.007812 9.453125 10.859375 9.453125 C 9.261719 9.453125 7.960938 10.769531 7.960938 12.386719 C 7.960938 12.535156 7.839844 12.65625 7.695312 12.65625 " fill-opacity="1" fill-rule="nonzero"/><path fill="#003f82" d="M 6.109375 12.65625 C 5.964844 12.65625 5.84375 12.535156 5.84375 12.386719 C 5.84375 9.589844 8.09375 7.3125 10.859375 7.3125 C 11.007812 7.3125 11.125 7.429688 11.125 7.578125 C 11.125 7.726562 11.007812 7.847656 10.859375 7.847656 C 8.386719 7.847656 6.375 9.886719 6.375 12.386719 C 6.375 12.535156 6.257812 12.65625 6.109375 12.65625 " fill-opacity="1" fill-rule="nonzero"/><g clip-path="url(#1ab7fae235)"><path fill="#003f82" d="M 4.796875 29.355469 L 2.136719 29.355469 C 1.671875 29.355469 1.296875 28.972656 1.296875 28.503906 L 1.296875 25.714844 C 1.296875 25.566406 1.414062 25.449219 1.5625 25.449219 C 1.707031 25.449219 1.828125 25.566406 1.828125 25.714844 L 1.828125 28.503906 C 1.828125 28.675781 1.964844 28.816406 2.136719 28.816406 L 4.796875 28.816406 C 4.96875 28.816406 5.109375 28.675781 5.109375 28.503906 L 5.109375 27.449219 C 5.109375 27.300781 5.226562 27.183594 5.371094 27.183594 C 5.519531 27.183594 5.636719 27.300781 5.636719 27.449219 L 5.636719 28.503906 C 5.636719 28.972656 5.261719 29.355469 4.796875 29.355469 " fill-opacity="1" fill-rule="nonzero"/></g><g clip-path="url(#b9c8bc64e5)"><path fill="#003f82" d="M 21.714844 29.355469 L 19.054688 29.355469 C 18.589844 29.355469 18.214844 28.972656 18.214844 28.503906 L 18.214844 27.449219 C 18.214844 27.300781 18.332031 27.183594 18.480469 27.183594 C 18.625 27.183594 18.746094 27.300781 18.746094 27.449219 L 18.746094 28.503906 C 18.746094 28.675781 18.882812 28.816406 19.054688 28.816406 L 21.714844 28.816406 C 21.886719 28.816406 22.027344 28.675781 22.027344 28.503906 L 22.027344 25.714844 C 22.027344 25.566406 22.144531 25.449219 22.292969 25.449219 C 22.4375 25.449219 22.558594 25.566406 22.558594 25.714844 L 22.558594 28.503906 C 22.558594 28.972656 22.179688 29.355469 21.714844 29.355469 " fill-opacity="1" fill-rule="nonzero"/></g><path fill="#003f82" d="M 2.964844 24.027344 L 6.027344 24.027344 C 6.054688 24.027344 6.070312 24.015625 6.082031 24 C 6.089844 23.988281 6.101562 23.96875 6.09375 23.941406 L 6.015625 23.558594 C 5.953125 23.242188 5.671875 23.011719 5.351562 23.011719 L 3.078125 23.011719 C 3.003906 23.171875 2.964844 23.351562 2.964844 23.53125 Z M 6.027344 24.566406 L 2.957031 24.566406 C 2.667969 24.566406 2.433594 24.328125 2.433594 24.035156 L 2.433594 23.53125 C 2.433594 23.269531 2.492188 23.007812 2.601562 22.769531 C 2.6875 22.589844 2.871094 22.472656 3.074219 22.472656 L 5.351562 22.472656 C 5.925781 22.472656 6.421875 22.882812 6.535156 23.449219 L 6.613281 23.835938 C 6.652344 24.015625 6.605469 24.199219 6.492188 24.339844 C 6.378906 24.484375 6.207031 24.566406 6.027344 24.566406 " fill-opacity="1" fill-rule="nonzero"/><path fill="#003f82" d="M 18.5 23.011719 C 18.179688 23.011719 17.902344 23.242188 17.835938 23.558594 L 17.757812 23.941406 C 17.753906 23.96875 17.761719 23.988281 17.773438 24 C 17.78125 24.015625 17.800781 24.027344 17.828125 24.027344 L 20.886719 24.027344 L 20.886719 23.53125 C 20.886719 23.351562 20.847656 23.171875 20.773438 23.011719 Z M 20.894531 24.566406 L 17.828125 24.566406 C 17.644531 24.566406 17.476562 24.484375 17.359375 24.339844 C 17.246094 24.199219 17.203125 24.015625 17.238281 23.835938 L 17.316406 23.449219 C 17.429688 22.882812 17.929688 22.472656 18.5 22.472656 L 20.777344 22.472656 C 20.980469 22.472656 21.164062 22.589844 21.25 22.769531 C 21.359375 23.007812 21.417969 23.269531 21.417969 23.53125 L 21.417969 24.035156 C 21.417969 24.328125 21.183594 24.566406 20.894531 24.566406 " fill-opacity="1" fill-rule="nonzero"/><path fill="#003f82" d="M 17.222656 20.019531 L 4.914062 20.019531 C 4.824219 20.019531 4.738281 19.972656 4.691406 19.894531 C 4.644531 19.816406 4.636719 19.71875 4.675781 19.636719 L 6.117188 16.535156 C 6.398438 15.933594 7 15.546875 7.65625 15.546875 L 12.917969 15.546875 C 13.0625 15.546875 13.183594 15.667969 13.183594 15.816406 C 13.183594 15.964844 13.0625 16.082031 12.917969 16.082031 L 7.65625 16.082031 C 7.207031 16.082031 6.789062 16.351562 6.597656 16.765625 L 5.335938 19.480469 L 17.222656 19.480469 C 17.367188 19.480469 17.488281 19.601562 17.488281 19.75 C 17.488281 19.898438 17.367188 20.019531 17.222656 20.019531 " fill-opacity="1" fill-rule="nonzero"/><path fill="#003f82" d="M 16.074219 23.445312 L 7.777344 23.445312 C 7.714844 23.445312 7.652344 23.421875 7.605469 23.378906 L 4.910156 21.027344 C 4.800781 20.929688 4.789062 20.757812 4.882812 20.644531 C 4.980469 20.535156 5.148438 20.523438 5.257812 20.617188 L 7.875 22.90625 L 15.976562 22.90625 L 18.59375 20.617188 C 18.703125 20.523438 18.871094 20.535156 18.96875 20.644531 C 19.0625 20.757812 19.050781 20.929688 18.941406 21.027344 L 16.25 23.378906 C 16.199219 23.421875 16.136719 23.445312 16.074219 23.445312 " fill-opacity="1" fill-rule="nonzero"/><path fill="#003f82" d="M 14.664062 26.574219 L 9.1875 26.574219 C 8.648438 26.574219 8.191406 26.203125 8.070312 25.671875 L 7.519531 23.234375 C 7.484375 23.089844 7.574219 22.945312 7.71875 22.914062 C 7.859375 22.882812 8.003906 22.972656 8.035156 23.117188 L 8.585938 25.550781 C 8.652344 25.835938 8.898438 26.035156 9.1875 26.035156 L 14.664062 26.035156 C 14.953125 26.035156 15.199219 25.835938 15.265625 25.550781 L 15.816406 23.117188 C 15.847656 22.972656 15.992188 22.882812 16.132812 22.914062 C 16.277344 22.945312 16.367188 23.089844 16.332031 23.234375 L 15.78125 25.671875 C 15.664062 26.203125 15.203125 26.574219 14.664062 26.574219 " fill-opacity="1" fill-rule="nonzero"/><path fill="#003f82" d="M 12.980469 25.007812 L 8.132812 25.007812 C 7.984375 25.007812 7.867188 24.890625 7.867188 24.742188 C 7.867188 24.59375 7.984375 24.472656 8.132812 24.472656 L 12.980469 24.472656 C 13.125 24.472656 13.246094 24.59375 13.246094 24.742188 C 13.246094 24.890625 13.125 25.007812 12.980469 25.007812 " fill-opacity="1" fill-rule="nonzero"/><path fill="#003f82" d="M 15.722656 25.007812 L 14.15625 25.007812 C 14.007812 25.007812 13.890625 24.890625 13.890625 24.742188 C 13.890625 24.59375 14.007812 24.472656 14.15625 24.472656 L 15.722656 24.472656 C 15.867188 24.472656 15.988281 24.59375 15.988281 24.742188 C 15.988281 24.890625 15.867188 25.007812 15.722656 25.007812 " fill-opacity="1" fill-rule="nonzero"/><g clip-path="url(#ebdd45d490)"><path fill="#003f82" d="M 3.519531 19.828125 L 1.207031 19.828125 C 0.808594 19.828125 0.484375 19.5 0.484375 19.09375 L 0.484375 18.929688 C 0.484375 18.234375 1.042969 17.667969 1.730469 17.667969 L 2.527344 17.667969 C 2.90625 17.667969 3.214844 17.980469 3.214844 18.363281 L 3.214844 18.59375 C 3.214844 18.742188 3.09375 18.863281 2.949219 18.863281 C 2.800781 18.863281 2.683594 18.742188 2.683594 18.59375 L 2.683594 18.363281 C 2.683594 18.273438 2.613281 18.203125 2.527344 18.203125 L 1.730469 18.203125 C 1.335938 18.203125 1.015625 18.53125 1.015625 18.929688 L 1.015625 19.09375 C 1.015625 19.203125 1.101562 19.289062 1.207031 19.289062 L 3.519531 19.289062 C 3.664062 19.289062 3.785156 19.410156 3.785156 19.558594 C 3.785156 19.707031 3.664062 19.828125 3.519531 19.828125 " fill-opacity="1" fill-rule="nonzero"/></g><path fill="#003f82" d="M 20.578125 27.71875 L 3.273438 27.71875 C 2.183594 27.71875 1.296875 26.820312 1.296875 25.714844 L 1.296875 23.53125 C 1.296875 22.992188 1.445312 22.460938 1.726562 21.996094 L 3.285156 19.429688 L 4.894531 15.96875 C 5.398438 14.886719 6.488281 14.183594 7.671875 14.183594 L 12.277344 14.183594 C 12.425781 14.183594 12.542969 14.304688 12.542969 14.453125 C 12.542969 14.601562 12.425781 14.722656 12.277344 14.722656 L 7.671875 14.722656 C 6.695312 14.722656 5.792969 15.300781 5.375 16.199219 L 3.757812 19.671875 C 3.753906 19.683594 3.75 19.691406 3.746094 19.699219 L 2.175781 22.277344 C 1.949219 22.65625 1.828125 23.089844 1.828125 23.53125 L 1.828125 25.714844 C 1.828125 26.523438 2.476562 27.183594 3.273438 27.183594 L 20.578125 27.183594 C 21.375 27.183594 22.027344 26.523438 22.027344 25.714844 L 22.027344 23.53125 C 22.027344 23.089844 21.90625 22.65625 21.675781 22.277344 L 20.722656 20.710938 C 20.644531 20.585938 20.683594 20.417969 20.808594 20.34375 C 20.933594 20.265625 21.097656 20.304688 21.175781 20.429688 L 22.128906 21.996094 C 22.410156 22.460938 22.558594 22.992188 22.558594 23.53125 L 22.558594 25.714844 C 22.558594 26.820312 21.667969 27.71875 20.578125 27.71875 " fill-opacity="1" fill-rule="nonzero"/><path fill="#003f82" d="M 6.515625 26.582031 L 3.765625 26.582031 C 3.617188 26.582031 3.5 26.460938 3.5 26.3125 C 3.5 26.164062 3.617188 26.042969 3.765625 26.042969 L 6.515625 26.042969 C 6.660156 26.042969 6.777344 26.164062 6.777344 26.3125 C 6.777344 26.460938 6.660156 26.582031 6.515625 26.582031 " fill-opacity="1" fill-rule="nonzero"/><path fill="#003f82" d="M 20.089844 26.582031 L 17.339844 26.582031 C 17.191406 26.582031 17.074219 26.460938 17.074219 26.3125 C 17.074219 26.164062 17.191406 26.042969 17.339844 26.042969 L 20.089844 26.042969 C 20.234375 26.042969 20.355469 26.164062 20.355469 26.3125 C 20.355469 26.460938 20.234375 26.582031 20.089844 26.582031 " fill-opacity="1" fill-rule="nonzero"/><path fill="#003f82" d="M 7.441406 18.0625 C 7.371094 18.0625 7.304688 18.035156 7.253906 17.984375 C 7.148438 17.878906 7.148438 17.707031 7.253906 17.605469 L 7.957031 16.886719 C 8.0625 16.785156 8.230469 16.785156 8.335938 16.886719 C 8.4375 16.992188 8.4375 17.164062 8.335938 17.269531 L 7.628906 17.984375 C 7.578125 18.035156 7.507812 18.0625 7.441406 18.0625 " fill-opacity="1" fill-rule="nonzero"/><path fill="#003f82" d="M 8.132812 19.085938 C 8.0625 19.085938 7.996094 19.0625 7.945312 19.007812 C 7.839844 18.902344 7.839844 18.734375 7.945312 18.628906 L 9.6875 16.863281 C 9.792969 16.757812 9.960938 16.757812 10.0625 16.863281 C 10.167969 16.96875 10.167969 17.136719 10.0625 17.242188 L 8.320312 19.007812 C 8.265625 19.0625 8.199219 19.085938 8.132812 19.085938 " fill-opacity="1" fill-rule="nonzero"/><g clip-path="url(#dd4e292635)"><path fill="#003f82" d="M 21.03125 3.042969 C 16.644531 3.042969 13.074219 6.65625 13.074219 11.097656 C 13.074219 15.539062 16.644531 19.152344 21.03125 19.152344 C 25.417969 19.152344 28.984375 15.539062 28.984375 11.097656 C 28.984375 6.65625 25.417969 3.042969 21.03125 3.042969 Z M 21.03125 19.6875 C 16.351562 19.6875 12.542969 15.835938 12.542969 11.097656 C 12.542969 6.359375 16.351562 2.507812 21.03125 2.507812 C 25.710938 2.507812 29.515625 6.359375 29.515625 11.097656 C 29.515625 15.835938 25.710938 19.6875 21.03125 19.6875 " fill-opacity="1" fill-rule="nonzero"/></g><path fill="#003f82" d="M 21.507812 17.195312 C 21.363281 17.195312 21.242188 17.074219 21.242188 16.925781 C 21.242188 14.183594 21.882812 13.152344 22.449219 12.242188 C 22.546875 12.082031 22.640625 11.933594 22.726562 11.777344 C 22.800781 11.648438 22.960938 11.605469 23.089844 11.675781 C 23.21875 11.75 23.261719 11.914062 23.1875 12.042969 C 23.097656 12.210938 22.996094 12.371094 22.898438 12.527344 C 22.347656 13.417969 21.773438 14.339844 21.773438 16.925781 C 21.773438 17.074219 21.65625 17.195312 21.507812 17.195312 " fill-opacity="1" fill-rule="nonzero"/><path fill="#003f82" d="M 23.410156 11.027344 C 23.390625 11.027344 23.371094 11.027344 23.351562 11.023438 C 23.210938 10.988281 23.121094 10.84375 23.152344 10.699219 C 23.191406 10.523438 23.21875 10.339844 23.238281 10.136719 C 23.253906 9.992188 23.382812 9.882812 23.527344 9.894531 C 23.671875 9.910156 23.78125 10.039062 23.765625 10.1875 C 23.746094 10.410156 23.714844 10.621094 23.671875 10.820312 C 23.640625 10.945312 23.53125 11.027344 23.410156 11.027344 " fill-opacity="1" fill-rule="nonzero"/><path fill="#003f82" d="M 23.453125 9.28125 C 23.328125 9.28125 23.214844 9.191406 23.191406 9.058594 C 23.160156 8.871094 23.109375 8.683594 23.050781 8.5 C 23.003906 8.359375 23.078125 8.207031 23.21875 8.160156 C 23.355469 8.113281 23.507812 8.191406 23.554688 8.328125 C 23.621094 8.535156 23.675781 8.75 23.714844 8.964844 C 23.742188 9.109375 23.644531 9.25 23.503906 9.277344 C 23.484375 9.277344 23.46875 9.28125 23.453125 9.28125 " fill-opacity="1" fill-rule="nonzero"/><path fill="#003f82" d="M 17.53125 15.96875 L 16.238281 15.96875 C 15.722656 15.96875 15.304688 15.546875 15.304688 15.027344 C 15.304688 14.765625 15.207031 14.519531 15.023438 14.332031 L 14.953125 14.257812 C 14.847656 14.152344 14.832031 13.988281 14.910156 13.863281 L 14.976562 13.757812 L 14.894531 13.617188 C 14.859375 13.554688 14.84375 13.484375 14.851562 13.414062 L 14.921875 12.828125 L 14.8125 12.828125 C 14.640625 12.828125 14.484375 12.738281 14.394531 12.59375 C 14.300781 12.445312 14.292969 12.265625 14.363281 12.109375 L 15.117188 10.496094 C 15.074219 10.226562 14.980469 9.410156 15.199219 8.488281 C 15.445312 7.449219 16.140625 6.085938 18.078125 5.476562 C 19.945312 4.882812 21.804688 5.511719 22.933594 7.109375 C 23.019531 7.230469 22.992188 7.394531 22.875 7.484375 C 22.753906 7.570312 22.589844 7.542969 22.503906 7.421875 C 21.726562 6.320312 20.195312 5.367188 18.234375 5.988281 C 14.996094 7.011719 15.625 10.339844 15.65625 10.480469 C 15.667969 10.535156 15.660156 10.597656 15.632812 10.648438 L 14.867188 12.289062 L 15.21875 12.289062 C 15.296875 12.289062 15.367188 12.320312 15.417969 12.378906 C 15.46875 12.4375 15.492188 12.511719 15.484375 12.589844 L 15.386719 13.40625 L 15.503906 13.597656 C 15.5625 13.703125 15.5625 13.828125 15.496094 13.929688 L 15.449219 14.007812 C 15.699219 14.285156 15.835938 14.648438 15.835938 15.027344 C 15.835938 15.25 16.015625 15.433594 16.238281 15.433594 L 17.53125 15.433594 C 17.839844 15.433594 18.128906 15.292969 18.328125 15.054688 L 18.691406 14.621094 C 18.785156 14.507812 18.953125 14.496094 19.066406 14.589844 C 19.175781 14.683594 19.191406 14.855469 19.097656 14.96875 L 18.734375 15.402344 C 18.4375 15.761719 17.996094 15.96875 17.53125 15.96875 " fill-opacity="1" fill-rule="nonzero"/><path fill="#003f82" d="M 17.316406 17.195312 C 17.167969 17.195312 17.050781 17.074219 17.050781 16.925781 L 17.050781 15.699219 C 17.050781 15.550781 17.167969 15.433594 17.316406 15.433594 C 17.460938 15.433594 17.582031 15.550781 17.582031 15.699219 L 17.582031 16.925781 C 17.582031 17.074219 17.460938 17.195312 17.316406 17.195312 " fill-opacity="1" fill-rule="nonzero"/><path fill="#003f82" d="M 23.730469 7.53125 L 21.457031 7.53125 C 21.3125 7.53125 21.195312 7.414062 21.195312 7.265625 C 21.195312 7.117188 21.3125 6.996094 21.457031 6.996094 L 23.714844 6.996094 L 24.441406 6.257812 C 24.546875 6.152344 24.714844 6.152344 24.820312 6.257812 C 24.921875 6.363281 24.921875 6.535156 24.820312 6.640625 L 24.078125 7.386719 C 23.988281 7.480469 23.863281 7.53125 23.730469 7.53125 " fill-opacity="1" fill-rule="nonzero"/><path fill="#003f82" d="M 25.113281 5.539062 C 24.882812 5.539062 24.695312 5.726562 24.695312 5.960938 C 24.695312 6.191406 24.882812 6.382812 25.113281 6.382812 C 25.34375 6.382812 25.53125 6.191406 25.53125 5.960938 C 25.53125 5.726562 25.34375 5.539062 25.113281 5.539062 Z M 25.113281 6.921875 C 24.589844 6.921875 24.164062 6.488281 24.164062 5.960938 C 24.164062 5.429688 24.589844 5 25.113281 5 C 25.636719 5 26.0625 5.429688 26.0625 5.960938 C 26.0625 6.488281 25.636719 6.921875 25.113281 6.921875 " fill-opacity="1" fill-rule="nonzero"/><path fill="#003f82" d="M 24.683594 9.28125 L 19.625 9.28125 C 19.480469 9.28125 19.359375 9.160156 19.359375 9.011719 C 19.359375 8.863281 19.480469 8.742188 19.625 8.742188 L 24.683594 8.742188 C 24.828125 8.742188 24.949219 8.863281 24.949219 9.011719 C 24.949219 9.160156 24.828125 9.28125 24.683594 9.28125 " fill-opacity="1" fill-rule="nonzero"/><path fill="#003f82" d="M 25.363281 8.589844 C 25.136719 8.589844 24.949219 8.777344 24.949219 9.011719 C 24.949219 9.246094 25.136719 9.433594 25.363281 9.433594 C 25.59375 9.433594 25.78125 9.246094 25.78125 9.011719 C 25.78125 8.777344 25.59375 8.589844 25.363281 8.589844 Z M 25.363281 9.972656 C 24.84375 9.972656 24.417969 9.542969 24.417969 9.011719 C 24.417969 8.484375 24.84375 8.050781 25.363281 8.050781 C 25.886719 8.050781 26.3125 8.484375 26.3125 9.011719 C 26.3125 9.542969 25.886719 9.972656 25.363281 9.972656 " fill-opacity="1" fill-rule="nonzero"/><path fill="#003f82" d="M 25.554688 12.167969 C 25.488281 12.167969 25.417969 12.140625 25.367188 12.089844 L 24.320312 11.027344 L 20.941406 11.027344 C 20.792969 11.027344 20.675781 10.90625 20.675781 10.757812 C 20.675781 10.609375 20.792969 10.492188 20.941406 10.492188 L 24.335938 10.492188 C 24.46875 10.492188 24.589844 10.542969 24.683594 10.636719 L 25.742188 11.710938 C 25.847656 11.816406 25.847656 11.984375 25.742188 12.089844 C 25.691406 12.140625 25.625 12.167969 25.554688 12.167969 " fill-opacity="1" fill-rule="nonzero"/><path fill="#003f82" d="M 26.039062 11.964844 C 25.808594 11.964844 25.621094 12.15625 25.621094 12.386719 C 25.621094 12.621094 25.808594 12.808594 26.039062 12.808594 C 26.269531 12.808594 26.457031 12.621094 26.457031 12.386719 C 26.457031 12.15625 26.269531 11.964844 26.039062 11.964844 Z M 26.039062 13.347656 C 25.515625 13.347656 25.089844 12.917969 25.089844 12.386719 C 25.089844 11.859375 25.515625 11.429688 26.039062 11.429688 C 26.5625 11.429688 26.984375 11.859375 26.984375 12.386719 C 26.984375 12.917969 26.5625 13.347656 26.039062 13.347656 " fill-opacity="1" fill-rule="nonzero"/><g clip-path="url(#e740a630eb)"><path fill="#003f82" d="M 25.355469 29.355469 L 1.261719 29.355469 C 1.113281 29.355469 0.996094 29.234375 0.996094 29.085938 C 0.996094 28.9375 1.113281 28.816406 1.261719 28.816406 L 25.355469 28.816406 C 25.503906 28.816406 25.621094 28.9375 25.621094 29.085938 C 25.621094 29.234375 25.503906 29.355469 25.355469 29.355469 " fill-opacity="1" fill-rule="nonzero"/></g><g clip-path="url(#f023195b0f)"><path fill="#003f82" d="M 27.285156 29.355469 L 26.640625 29.355469 C 26.496094 29.355469 26.378906 29.234375 26.378906 29.085938 C 26.378906 28.9375 26.496094 28.816406 26.640625 28.816406 L 27.285156 28.816406 C 27.433594 28.816406 27.550781 28.9375 27.550781 29.085938 C 27.550781 29.234375 27.433594 29.355469 27.285156 29.355469 " fill-opacity="1" fill-rule="nonzero"/></g></svg>