<svg xmlns="http://www.w3.org/2000/svg" xmlns:xlink="http://www.w3.org/1999/xlink" width="40" zoomAndPan="magnify" viewBox="0 0 30 30.000001" height="40" preserveAspectRatio="xMidYMid meet" version="1.0"><defs><clipPath id="bf25ac94bb"><path d="M 0.703125 0 L 29.515625 0 L 29.515625 29.03125 L 0.703125 29.03125 Z M 0.703125 0 " clip-rule="nonzero"/></clipPath></defs><g clip-path="url(#bf25ac94bb)"><path fill="#003f82" d="M 3.582031 26.820312 C 3.9375 26.734375 4.261719 26.550781 4.542969 26.296875 L 4.542969 28.796875 L 3.582031 28.796875 Z M 1.664062 24 C 1.664062 22.9375 2.308594 22.078125 3.101562 22.078125 C 3.898438 22.078125 4.542969 22.9375 4.542969 24 C 4.542969 25.058594 3.898438 25.917969 3.101562 25.917969 C 2.308594 25.917969 1.664062 25.058594 1.664062 24 Z M 2.621094 17.277344 C 2.621094 15.691406 3.699219 14.398438 5.023438 14.398438 C 6.347656 14.398438 7.421875 15.691406 7.421875 17.277344 C 7.421875 18.671875 6.597656 19.832031 5.503906 20.101562 L 5.503906 16.800781 L 4.542969 16.800781 L 4.542969 20.101562 C 3.445312 19.832031 2.621094 18.671875 2.621094 17.277344 Z M 5.503906 21.398438 C 6.019531 22 6.6875 22.394531 7.421875 22.515625 L 7.421875 23.339844 L 5.503906 25.582031 Z M 8.382812 17.277344 C 8.382812 16.773438 8.292969 16.292969 8.136719 15.855469 C 9.351562 15.996094 10.300781 17.226562 10.300781 18.71875 C 10.300781 20.308594 9.226562 21.597656 7.902344 21.597656 C 7.296875 21.597656 6.71875 21.320312 6.28125 20.835938 C 7.511719 20.265625 8.382812 18.886719 8.382812 17.277344 Z M 6.460938 7.679688 L 13.179688 7.679688 L 13.179688 25.5625 C 12.703125 25.898438 12.304688 26.351562 12.054688 26.902344 C 11.953125 26.886719 11.847656 26.878906 11.742188 26.878906 C 11.292969 26.28125 10.582031 25.917969 9.820312 25.917969 C 8.5 25.917969 7.421875 26.996094 7.421875 28.316406 C 7.421875 28.480469 7.441406 28.640625 7.472656 28.796875 L 5.503906 28.796875 L 5.503906 27.054688 L 8.382812 23.695312 L 8.382812 22.511719 C 10.007812 22.246094 11.261719 20.648438 11.261719 18.71875 C 11.261719 17.273438 10.558594 16.011719 9.527344 15.359375 L 10.300781 15.359375 L 10.300781 14.398438 L 9.339844 14.398438 L 9.339844 15.253906 C 8.90625 15.015625 8.417969 14.878906 7.902344 14.878906 C 7.820312 14.878906 7.734375 14.882812 7.648438 14.890625 C 7.332031 14.4375 6.925781 14.066406 6.460938 13.8125 Z M 22.78125 2.984375 L 22.78125 12.480469 L 19.902344 12.480469 L 19.902344 14.398438 L 18.941406 14.398438 L 18.941406 25.925781 C 18.523438 25.925781 18.105469 26.03125 17.742188 26.242188 C 17.109375 25.441406 16.140625 24.957031 15.101562 24.957031 C 14.769531 24.957031 14.445312 25.007812 14.140625 25.097656 L 14.140625 4.714844 Z M 25.660156 10.558594 L 26.621094 10.558594 L 26.621094 12.480469 L 25.660156 12.480469 Z M 20.859375 14.398438 L 20.859375 13.4375 L 27.582031 13.4375 L 27.582031 14.398438 Z M 24.699219 17.277344 L 26.621094 17.277344 L 26.621094 26.921875 C 26.359375 26.886719 26.09375 26.867188 25.824219 26.894531 C 25.570312 26.347656 25.175781 25.898438 24.699219 25.566406 Z M 22.78125 24.957031 C 22.449219 24.957031 22.128906 25.011719 21.820312 25.105469 L 21.820312 17.277344 L 23.742188 17.277344 L 23.742188 25.097656 C 23.433594 25.007812 23.113281 24.957031 22.78125 24.957031 Z M 28.539062 15.359375 L 28.539062 27.902344 C 28.261719 27.617188 27.9375 27.382812 27.582031 27.210938 L 27.582031 16.320312 L 20.859375 16.320312 L 20.859375 25.566406 C 20.59375 25.757812 20.34375 25.980469 20.140625 26.242188 C 20.0625 26.199219 19.980469 26.160156 19.902344 26.125 L 19.902344 15.359375 Z M 8.382812 28.316406 C 8.382812 27.523438 9.027344 26.878906 9.820312 26.878906 C 10.339844 26.878906 10.820312 27.160156 11.074219 27.613281 L 11.226562 27.875 L 11.742188 27.839844 C 11.882812 27.839844 12.03125 27.863281 12.195312 27.921875 L 12.664062 28.078125 L 12.808594 27.609375 C 13.121094 26.597656 14.042969 25.917969 15.101562 25.917969 C 15.976562 25.917969 16.78125 26.394531 17.203125 27.160156 L 17.503906 27.703125 L 17.953125 27.277344 C 18.496094 26.765625 19.386719 26.765625 19.929688 27.277344 L 20.378906 27.703125 L 20.679688 27.160156 C 21.101562 26.394531 21.90625 25.917969 22.78125 25.917969 C 23.824219 25.917969 24.738281 26.582031 25.0625 27.574219 L 25.199219 27.988281 L 25.625 27.894531 C 26.574219 27.683594 27.503906 28.078125 28.050781 28.796875 L 8.476562 28.796875 C 8.421875 28.644531 8.382812 28.484375 8.382812 28.316406 Z M 29.5 28.796875 L 29.5 14.398438 L 28.539062 14.398438 L 28.539062 12.480469 L 27.582031 12.480469 L 27.582031 9.597656 L 26.621094 9.597656 L 26.621094 7.679688 L 25.660156 7.679688 L 25.660156 9.597656 L 24.699219 9.597656 L 24.699219 12.480469 L 23.742188 12.480469 L 23.742188 1.816406 L 20.859375 2.390625 L 20.859375 0.960938 L 19.902344 0.960938 L 19.902344 2.582031 L 18.941406 2.773438 L 18.941406 0 L 17.980469 0 L 17.980469 2.964844 L 17.019531 3.160156 L 17.019531 0.960938 L 16.0625 0.960938 L 16.0625 3.351562 L 13.179688 3.925781 L 13.179688 6.71875 L 4.542969 6.71875 L 4.542969 7.679688 L 5.503906 7.679688 L 5.503906 13.484375 C 5.34375 13.457031 5.183594 13.4375 5.023438 13.4375 C 3.167969 13.4375 1.664062 15.164062 1.664062 17.277344 C 1.664062 19.210938 2.917969 20.808594 4.542969 21.074219 L 4.542969 21.699219 C 4.140625 21.335938 3.640625 21.117188 3.101562 21.117188 C 1.777344 21.117188 0.703125 22.410156 0.703125 24 C 0.703125 25.390625 1.527344 26.550781 2.621094 26.820312 L 2.621094 28.796875 L 0.703125 28.796875 L 0.703125 29.757812 L 30.460938 29.757812 L 30.460938 28.796875 L 29.5 28.796875 " fill-opacity="1" fill-rule="nonzero"/></g><path fill="#003f82" d="M 17.019531 8.640625 L 16.0625 8.640625 L 16.0625 6.71875 L 17.019531 6.71875 Z M 17.980469 5.757812 L 15.101562 5.757812 L 15.101562 9.597656 L 17.980469 9.597656 L 17.980469 5.757812 " fill-opacity="1" fill-rule="nonzero"/><path fill="#003f82" d="M 17.019531 13.4375 L 16.0625 13.4375 L 16.0625 11.519531 L 17.019531 11.519531 Z M 17.980469 10.558594 L 15.101562 10.558594 L 15.101562 14.398438 L 17.980469 14.398438 L 17.980469 10.558594 " fill-opacity="1" fill-rule="nonzero"/><path fill="#003f82" d="M 17.019531 18.238281 L 16.0625 18.238281 L 16.0625 16.320312 L 17.019531 16.320312 Z M 17.980469 15.359375 L 15.101562 15.359375 L 15.101562 19.199219 L 17.980469 19.199219 L 17.980469 15.359375 " fill-opacity="1" fill-rule="nonzero"/><path fill="#003f82" d="M 17.019531 23.039062 L 16.0625 23.039062 L 16.0625 21.117188 L 17.019531 21.117188 Z M 17.980469 20.160156 L 15.101562 20.160156 L 15.101562 24 L 17.980469 24 L 17.980469 20.160156 " fill-opacity="1" fill-rule="nonzero"/><path fill="#003f82" d="M 20.859375 8.640625 L 19.902344 8.640625 L 19.902344 6.71875 L 20.859375 6.71875 Z M 21.820312 5.757812 L 18.941406 5.757812 L 18.941406 9.597656 L 21.820312 9.597656 L 21.820312 5.757812 " fill-opacity="1" fill-rule="nonzero"/><path fill="#003f82" d="M 8.382812 8.640625 L 7.421875 8.640625 L 7.421875 9.597656 L 8.382812 9.597656 L 8.382812 8.640625 " fill-opacity="1" fill-rule="nonzero"/><path fill="#003f82" d="M 10.300781 8.640625 L 9.339844 8.640625 L 9.339844 9.597656 L 10.300781 9.597656 L 10.300781 8.640625 " fill-opacity="1" fill-rule="nonzero"/><path fill="#003f82" d="M 12.222656 8.640625 L 11.261719 8.640625 L 11.261719 9.597656 L 12.222656 9.597656 L 12.222656 8.640625 " fill-opacity="1" fill-rule="nonzero"/><path fill="#003f82" d="M 8.382812 10.558594 L 7.421875 10.558594 L 7.421875 11.519531 L 8.382812 11.519531 L 8.382812 10.558594 " fill-opacity="1" fill-rule="nonzero"/><path fill="#003f82" d="M 10.300781 10.558594 L 9.339844 10.558594 L 9.339844 11.519531 L 10.300781 11.519531 L 10.300781 10.558594 " fill-opacity="1" fill-rule="nonzero"/><path fill="#003f82" d="M 12.222656 10.558594 L 11.261719 10.558594 L 11.261719 11.519531 L 12.222656 11.519531 L 12.222656 10.558594 " fill-opacity="1" fill-rule="nonzero"/><path fill="#003f82" d="M 10.300781 12.480469 L 9.339844 12.480469 L 9.339844 13.4375 L 10.300781 13.4375 L 10.300781 12.480469 " fill-opacity="1" fill-rule="nonzero"/><path fill="#003f82" d="M 8.382812 12.480469 L 7.421875 12.480469 L 7.421875 13.4375 L 8.382812 13.4375 L 8.382812 12.480469 " fill-opacity="1" fill-rule="nonzero"/><path fill="#003f82" d="M 12.222656 12.480469 L 11.261719 12.480469 L 11.261719 13.4375 L 12.222656 13.4375 L 12.222656 12.480469 " fill-opacity="1" fill-rule="nonzero"/><path fill="#003f82" d="M 12.222656 14.398438 L 11.261719 14.398438 L 11.261719 15.359375 L 12.222656 15.359375 L 12.222656 14.398438 " fill-opacity="1" fill-rule="nonzero"/></svg>