<svg xmlns="http://www.w3.org/2000/svg" xmlns:xlink="http://www.w3.org/1999/xlink" width="40" zoomAndPan="magnify" viewBox="0 0 30 30.000001" height="40" preserveAspectRatio="xMidYMid meet" version="1.0"><defs><clipPath id="3f20777e21"><path d="M 1.167969 0.785156 L 28.023438 0.785156 L 28.023438 27.640625 L 1.167969 27.640625 Z M 1.167969 0.785156 " clip-rule="nonzero"/></clipPath></defs><path fill="#013f69" d="M 5.464844 3.828125 C 5.464844 3.113281 4.886719 2.53125 4.175781 2.53125 C 3.464844 2.53125 2.886719 3.113281 2.886719 3.828125 L 2.886719 5.125 L 5.464844 5.125 Z M 4.605469 4.261719 L 3.746094 4.261719 L 3.746094 3.828125 C 3.746094 3.589844 3.9375 3.394531 4.175781 3.394531 C 4.410156 3.394531 4.605469 3.589844 4.605469 3.828125 Z M 4.605469 4.261719 " fill-opacity="1" fill-rule="nonzero"/><path fill="#013f69" d="M 8.902344 3.828125 C 8.902344 3.113281 8.324219 2.53125 7.613281 2.53125 C 6.902344 2.53125 6.324219 3.113281 6.324219 3.828125 L 6.324219 5.125 L 8.902344 5.125 Z M 8.042969 4.261719 L 7.183594 4.261719 L 7.183594 3.828125 C 7.183594 3.589844 7.375 3.394531 7.613281 3.394531 C 7.847656 3.394531 8.042969 3.589844 8.042969 3.828125 Z M 8.042969 4.261719 " fill-opacity="1" fill-rule="nonzero"/><path fill="#013f69" d="M 7.996094 7.925781 L 8.019531 7.859375 L 7.203125 7.585938 L 7.183594 7.652344 C 6.996094 8.210938 6.480469 8.589844 5.894531 8.589844 C 5.308594 8.589844 4.789062 8.210938 4.605469 7.652344 L 4.582031 7.585938 L 3.765625 7.859375 L 3.789062 7.925781 C 4.089844 8.839844 4.9375 9.453125 5.894531 9.453125 C 6.851562 9.453125 7.695312 8.839844 7.996094 7.925781 Z M 7.996094 7.925781 " fill-opacity="1" fill-rule="nonzero"/><path fill="#013f69" d="M 5.464844 5.992188 L 6.324219 5.992188 L 6.324219 7.722656 L 5.464844 7.722656 Z M 5.464844 5.992188 " fill-opacity="1" fill-rule="nonzero"/><path fill="#013f69" d="M 21.363281 5.125 C 22.074219 5.125 22.652344 4.542969 22.652344 3.828125 C 22.652344 3.113281 22.074219 2.53125 21.363281 2.53125 C 20.652344 2.53125 20.074219 3.113281 20.074219 3.828125 C 20.074219 4.542969 20.652344 5.125 21.363281 5.125 Z M 21.363281 3.394531 C 21.597656 3.394531 21.792969 3.589844 21.792969 3.828125 C 21.792969 4.066406 21.597656 4.261719 21.363281 4.261719 C 21.125 4.261719 20.933594 4.066406 20.933594 3.828125 C 20.933594 3.589844 21.125 3.394531 21.363281 3.394531 Z M 21.363281 3.394531 " fill-opacity="1" fill-rule="nonzero"/><g clip-path="url(#3f20777e21)"><path fill="#013f69" d="M 27.808594 18.796875 C 27.808594 17.941406 27.117188 17.242188 26.265625 17.242188 C 26.035156 17.242188 25.820312 17.332031 25.660156 17.496094 L 24.71875 18.441406 L 23.921875 17.800781 C 23.640625 17.574219 23.3125 17.410156 22.96875 17.324219 C 23.328125 16.328125 23.511719 15.285156 23.511719 14.214844 C 23.511719 13.355469 23.390625 12.507812 23.15625 11.691406 C 23.4375 11.574219 23.707031 11.429688 23.960938 11.257812 L 24.667969 10.785156 L 22.050781 8.675781 L 28.019531 3.863281 L 27.535156 3.375 C 25.886719 1.714844 23.691406 0.796875 21.363281 0.796875 C 19.03125 0.796875 16.839844 1.714844 15.191406 3.375 L 14.703125 3.863281 L 16.578125 5.375 C 15.898438 5.210938 15.195312 5.125 14.488281 5.125 C 13.144531 5.125 11.824219 5.429688 10.621094 6.003906 L 10.621094 1.664062 C 10.621094 1.1875 10.234375 0.796875 9.761719 0.796875 L 2.027344 0.796875 C 1.550781 0.796875 1.167969 1.1875 1.167969 1.664062 L 1.167969 7.074219 C 1.167969 8.953125 2.269531 10.660156 3.972656 11.425781 L 4.898438 11.835938 C 5.160156 11.957031 5.4375 12.023438 5.722656 12.042969 C 5.550781 12.75 5.464844 13.480469 5.464844 14.214844 C 5.464844 15.0625 5.578125 15.898438 5.808594 16.707031 C 5.777344 16.730469 5.746094 16.753906 5.714844 16.78125 L 1.503906 20.640625 C 1.289062 20.835938 1.167969 21.113281 1.167969 21.402344 C 1.167969 21.917969 1.539062 22.34375 2.027344 22.421875 L 2.027344 25.035156 C 1.550781 25.035156 1.167969 25.421875 1.167969 25.898438 L 1.167969 26.765625 C 1.167969 27.242188 1.550781 27.628906 2.027344 27.628906 L 11.480469 27.628906 C 11.953125 27.628906 12.339844 27.242188 12.339844 26.765625 L 12.339844 25.898438 C 12.339844 25.421875 11.953125 25.035156 11.480469 25.035156 L 11.480469 22.785156 C 12.441406 23.128906 13.449219 23.300781 14.488281 23.300781 C 15.550781 23.300781 16.585938 23.117188 17.574219 22.757812 C 17.660156 23.105469 17.820312 23.433594 18.046875 23.71875 L 19.804688 25.933594 C 20.664062 27.011719 21.941406 27.628906 23.316406 27.628906 C 25.792969 27.628906 27.808594 25.601562 27.808594 23.105469 C 27.808594 22.046875 27.429688 21.015625 26.761719 20.207031 L 27.554688 19.40625 C 27.71875 19.246094 27.808594 19.027344 27.808594 18.796875 Z M 22.652344 14.214844 C 22.652344 15.261719 22.457031 16.28125 22.078125 17.242188 L 18.796875 17.242188 C 19.070312 16.257812 19.214844 15.234375 19.214844 14.214844 C 19.214844 13.234375 19.082031 12.25 18.828125 11.300781 C 19.585938 11.792969 20.460938 12.050781 21.363281 12.050781 C 21.691406 12.050781 22.019531 12.015625 22.335938 11.949219 C 22.546875 12.679688 22.652344 13.441406 22.652344 14.214844 Z M 10.863281 19.082031 C 11.027344 19.433594 11.214844 19.773438 11.417969 20.105469 L 9.238281 18.109375 L 10.453125 18.109375 C 10.574219 18.441406 10.710938 18.765625 10.863281 19.082031 Z M 14.488281 22.3125 L 14.488281 22.316406 L 14.484375 22.3125 C 13.082031 21.183594 12.019531 19.734375 11.367188 18.109375 L 17.605469 18.109375 C 16.953125 19.734375 15.894531 21.183594 14.488281 22.3125 Z M 13.210938 22.335938 C 12.832031 22.277344 12.457031 22.191406 12.089844 22.078125 C 12.246094 21.894531 12.339844 21.660156 12.339844 21.402344 C 12.339844 21.402344 12.339844 21.398438 12.339844 21.394531 C 12.609375 21.726562 12.902344 22.039062 13.210938 22.335938 Z M 11.066406 17.242188 C 10.773438 16.273438 10.621094 15.257812 10.621094 14.214844 C 10.621094 13.171875 10.773438 12.152344 11.066406 11.183594 L 17.910156 11.183594 C 18.199219 12.152344 18.355469 13.171875 18.355469 14.214844 C 18.355469 15.257812 18.199219 16.273438 17.910156 17.242188 Z M 14.484375 6.113281 L 14.488281 6.113281 C 15.894531 7.246094 16.953125 8.695312 17.605469 10.320312 L 11.367188 10.320312 C 12.019531 8.695312 13.082031 7.246094 14.484375 6.113281 Z M 23.199219 10.710938 C 22.636719 11.023438 22.007812 11.183594 21.363281 11.183594 C 20.714844 11.183594 20.085938 11.023438 19.523438 10.710938 L 21.363281 9.230469 Z M 21.363281 8.121094 L 20.335938 7.292969 C 20.25 7.222656 20.164062 7.152344 20.078125 7.082031 C 20.488281 6.933594 20.921875 6.855469 21.363281 6.855469 C 21.800781 6.855469 22.238281 6.933594 22.648438 7.082031 Z M 21.363281 1.664062 C 23.371094 1.664062 25.269531 2.417969 26.730469 3.796875 L 23.414062 6.46875 C 22.777344 6.15625 22.074219 5.992188 21.363281 5.992188 C 20.652344 5.992188 19.949219 6.15625 19.3125 6.46875 L 15.992188 3.796875 C 17.457031 2.417969 19.351562 1.664062 21.363281 1.664062 Z M 20.675781 8.675781 L 18.632812 10.320312 L 18.519531 10.320312 C 18.398438 9.988281 18.265625 9.664062 18.113281 9.347656 C 17.535156 8.132812 16.730469 7.027344 15.765625 6.09375 C 17.074219 6.300781 18.3125 6.828125 19.375 7.628906 Z M 10.621094 7.074219 L 10.621094 6.972656 C 11.425781 6.535156 12.300781 6.238281 13.207031 6.09375 C 12.242188 7.027344 11.441406 8.132812 10.863281 9.347656 C 10.710938 9.664062 10.574219 9.988281 10.453125 10.320312 L 9.351562 10.320312 C 10.152344 9.453125 10.621094 8.300781 10.621094 7.074219 Z M 4.324219 10.632812 C 2.929688 10.007812 2.027344 8.613281 2.027344 7.074219 L 2.027344 1.664062 L 9.761719 1.664062 L 9.761719 7.074219 C 9.761719 8.613281 8.859375 10.007812 7.464844 10.632812 L 6.542969 11.046875 C 6.335938 11.136719 6.117188 11.183594 5.894531 11.183594 C 5.667969 11.183594 5.449219 11.136719 5.246094 11.046875 Z M 6.324219 14.214844 C 6.324219 13.4375 6.429688 12.671875 6.644531 11.933594 C 6.726562 11.90625 6.808594 11.875 6.890625 11.835938 L 7.8125 11.425781 C 7.972656 11.351562 8.128906 11.273438 8.277344 11.183594 L 10.175781 11.183594 C 9.902344 12.171875 9.761719 13.195312 9.761719 14.214844 C 9.761719 15.234375 9.902344 16.257812 10.175781 17.242188 L 8.292969 17.242188 L 7.789062 16.78125 C 7.503906 16.523438 7.136719 16.378906 6.753906 16.378906 C 6.707031 16.378906 6.65625 16.378906 6.609375 16.386719 C 6.421875 15.679688 6.324219 14.953125 6.324219 14.214844 Z M 2.082031 21.28125 L 6.292969 17.421875 C 6.421875 17.308594 6.582031 17.242188 6.753906 17.242188 C 6.921875 17.242188 7.085938 17.308594 7.210938 17.421875 L 11.425781 21.28125 C 11.460938 21.3125 11.480469 21.355469 11.480469 21.402344 C 11.480469 21.496094 11.40625 21.570312 11.3125 21.570312 L 10.464844 21.570312 L 6.753906 18.171875 L 3.039062 21.570312 L 2.191406 21.570312 C 2.101562 21.570312 2.027344 21.496094 2.027344 21.402344 C 2.027344 21.355469 2.046875 21.3125 2.082031 21.28125 Z M 8.042969 25.035156 L 8.042969 22.4375 L 8.902344 22.4375 L 8.902344 25.035156 Z M 4.316406 21.570312 L 6.753906 19.34375 L 9.1875 21.570312 Z M 5.464844 22.4375 L 5.464844 25.035156 L 4.605469 25.035156 L 4.605469 22.4375 Z M 6.324219 22.4375 L 7.183594 22.4375 L 7.183594 25.035156 L 6.324219 25.035156 Z M 2.886719 22.4375 L 3.746094 22.4375 L 3.746094 25.035156 L 2.886719 25.035156 Z M 11.480469 26.765625 L 2.027344 26.765625 L 2.027344 25.898438 L 11.480469 25.898438 Z M 9.761719 25.035156 L 9.761719 22.4375 L 10.621094 22.4375 L 10.621094 25.035156 Z M 17.511719 21.855469 C 16.945312 22.082031 16.363281 22.242188 15.765625 22.335938 C 16.730469 21.40625 17.535156 20.296875 18.113281 19.082031 C 18.265625 18.765625 18.398438 18.441406 18.519531 18.109375 L 20.449219 18.109375 C 20.265625 18.320312 20.117188 18.566406 20.007812 18.839844 C 19.839844 19.265625 19.5 19.605469 19.078125 19.773438 C 18.203125 20.128906 17.609375 20.925781 17.511719 21.855469 Z M 26.949219 23.105469 C 26.949219 25.125 25.316406 26.765625 23.316406 26.765625 C 22.203125 26.765625 21.171875 26.265625 20.476562 25.390625 L 18.71875 23.175781 C 18.484375 22.878906 18.355469 22.507812 18.355469 22.132812 C 18.355469 21.445312 18.765625 20.832031 19.398438 20.578125 C 20.035156 20.320312 20.550781 19.804688 20.804688 19.160156 C 21.058594 18.523438 21.664062 18.109375 22.347656 18.109375 C 22.722656 18.109375 23.089844 18.238281 23.386719 18.476562 L 24.109375 19.058594 L 22.902344 20.273438 C 22.761719 20.414062 22.679688 20.59375 22.65625 20.789062 C 21.871094 21.015625 21.265625 21.675781 21.128906 22.515625 L 20.839844 24.261719 L 22.574219 23.96875 C 23.40625 23.832031 24.0625 23.222656 24.285156 22.429688 C 24.480469 22.410156 24.660156 22.324219 24.800781 22.183594 L 26.152344 20.820312 C 26.660156 21.464844 26.949219 22.277344 26.949219 23.105469 Z M 22.84375 21.636719 C 22.984375 21.890625 23.195312 22.101562 23.445312 22.242188 C 23.300781 22.691406 22.914062 23.035156 22.433594 23.117188 L 21.882812 23.207031 L 21.976562 22.65625 C 22.054688 22.171875 22.398438 21.785156 22.84375 21.636719 Z M 24.191406 21.570312 C 23.816406 21.570312 23.511719 21.261719 23.511719 20.886719 L 26.265625 18.109375 C 26.640625 18.109375 26.949219 18.417969 26.949219 18.796875 Z M 24.191406 21.570312 " fill-opacity="1" fill-rule="nonzero"/></g></svg>