<svg xmlns="http://www.w3.org/2000/svg" xmlns:xlink="http://www.w3.org/1999/xlink" width="40" zoomAndPan="magnify" viewBox="0 0 30 30.000001" height="40" preserveAspectRatio="xMidYMid meet" version="1.0"><defs><clipPath id="9a64308b8a"><path d="M 0.484375 17 L 29.515625 17 L 29.515625 29.03125 L 0.484375 29.03125 Z M 0.484375 17 " clip-rule="nonzero"/></clipPath><clipPath id="2fe5e31434"><path d="M 0.484375 15 L 29.515625 15 L 29.515625 17 L 0.484375 17 Z M 0.484375 15 " clip-rule="nonzero"/></clipPath></defs><g clip-path="url(#9a64308b8a)"><path fill="#013f69" d="M 3.621094 19.691406 L 2.519531 20.046875 L 1.585938 17.179688 L 0.695312 17.472656 L 1.632812 20.332031 C 1.707031 20.570312 1.875 20.765625 2.09375 20.878906 C 2.316406 20.992188 2.566406 21.015625 2.8125 20.9375 L 3.910156 20.582031 C 4.425781 21.519531 5.058594 22.398438 5.804688 23.1875 L 5.125 24.125 C 4.972656 24.328125 4.914062 24.574219 4.949219 24.816406 C 4.988281 25.066406 5.125 25.285156 5.324219 25.4375 L 7.597656 27.085938 C 7.804688 27.234375 8.050781 27.296875 8.300781 27.253906 C 8.546875 27.214844 8.761719 27.078125 8.90625 26.878906 L 9.589844 25.945312 C 10.566406 26.414062 11.597656 26.746094 12.652344 26.945312 L 12.652344 28.101562 C 12.652344 28.617188 13.074219 29.035156 13.589844 29.035156 L 16.398438 29.035156 C 16.914062 29.035156 17.335938 28.617188 17.335938 28.101562 L 17.335938 26.945312 C 18.394531 26.746094 19.425781 26.410156 20.402344 25.941406 L 21.078125 26.875 C 21.222656 27.078125 21.4375 27.210938 21.6875 27.253906 C 21.941406 27.296875 22.1875 27.234375 22.390625 27.085938 L 24.660156 25.4375 C 24.867188 25.285156 24.996094 25.066406 25.035156 24.816406 C 25.074219 24.570312 25.011719 24.328125 24.867188 24.125 L 24.191406 23.183594 C 24.933594 22.402344 25.570312 21.527344 26.078125 20.574219 L 27.179688 20.9375 C 27.417969 21.011719 27.671875 20.992188 27.894531 20.878906 C 28.121094 20.761719 28.285156 20.570312 28.359375 20.332031 L 29.296875 17.464844 L 28.40625 17.175781 L 27.46875 20.046875 L 26.371094 19.6875 C 25.949219 19.546875 25.484375 19.734375 25.253906 20.128906 C 24.78125 21 24.191406 21.8125 23.507812 22.539062 C 23.195312 22.871094 23.160156 23.375 23.429688 23.730469 L 24.109375 24.667969 L 21.835938 26.316406 L 21.152344 25.375 C 20.886719 25.015625 20.410156 24.894531 19.992188 25.085938 C 19.089844 25.515625 18.136719 25.824219 17.167969 26.007812 C 16.722656 26.089844 16.394531 26.476562 16.394531 26.925781 L 16.394531 28.082031 L 13.585938 28.082031 L 13.585938 26.925781 C 13.585938 26.476562 13.261719 26.085938 12.8125 26.007812 C 11.839844 25.824219 10.886719 25.515625 9.980469 25.082031 C 9.566406 24.894531 9.089844 25.011719 8.824219 25.375 L 8.144531 26.3125 L 5.875 24.664062 L 6.546875 23.730469 C 6.820312 23.371094 6.785156 22.867188 6.46875 22.53125 C 5.785156 21.808594 5.195312 20.996094 4.71875 20.117188 C 4.492188 19.726562 4.027344 19.539062 3.605469 19.679688 Z M 3.621094 19.691406 " fill-opacity="1" fill-rule="nonzero"/></g><path fill="#013f69" d="M 15 24.351562 C 19.320312 24.351562 23.089844 21.582031 24.378906 17.464844 L 23.484375 17.183594 C 22.320312 20.90625 18.910156 23.414062 14.996094 23.414062 C 11.082031 23.414062 7.671875 20.914062 6.503906 17.183594 L 5.613281 17.464844 C 6.898438 21.582031 10.667969 24.351562 14.992188 24.351562 Z M 15 24.351562 " fill-opacity="1" fill-rule="nonzero"/><g clip-path="url(#2fe5e31434)"><path fill="#013f69" d="M 0.484375 15.453125 L 29.515625 15.453125 L 29.515625 16.390625 L 0.484375 16.390625 Z M 0.484375 15.453125 " fill-opacity="1" fill-rule="nonzero"/></g><path fill="#013f69" d="M 27.644531 14.515625 L 27.644531 7.960938 C 27.644531 7.703125 27.433594 7.492188 27.175781 7.492188 L 23.429688 7.492188 L 23.429688 0.46875 C 23.429688 0.210938 23.21875 0 22.960938 0 L 17.339844 0 C 17.082031 0 16.875 0.210938 16.875 0.46875 L 16.875 5.152344 L 13.125 5.152344 L 13.125 3.277344 C 13.125 3.136719 13.066406 3.007812 12.957031 2.917969 L 10.148438 0.574219 C 9.976562 0.429688 9.722656 0.429688 9.550781 0.574219 L 6.738281 2.917969 C 6.632812 3.007812 6.570312 3.136719 6.570312 3.277344 L 6.570312 7.023438 L 2.824219 7.023438 C 2.566406 7.023438 2.355469 7.234375 2.355469 7.492188 L 2.355469 14.515625 L 3.292969 14.515625 L 3.292969 7.960938 L 6.570312 7.960938 L 6.570312 14.515625 L 7.507812 14.515625 L 7.507812 3.496094 L 9.847656 1.546875 L 12.191406 3.496094 L 12.191406 14.515625 L 13.125 14.515625 L 13.125 6.085938 L 16.875 6.085938 L 16.875 14.515625 L 17.808594 14.515625 L 17.808594 0.9375 L 22.492188 0.9375 L 22.492188 14.515625 L 23.429688 14.515625 L 23.429688 8.429688 L 26.707031 8.429688 L 26.707031 14.515625 Z M 27.644531 14.515625 " fill-opacity="1" fill-rule="nonzero"/><path fill="#013f69" d="M 18.746094 2.339844 L 19.683594 2.339844 L 19.683594 3.277344 L 18.746094 3.277344 Z M 18.746094 2.339844 " fill-opacity="1" fill-rule="nonzero"/><path fill="#013f69" d="M 20.621094 2.339844 L 21.554688 2.339844 L 21.554688 3.277344 L 20.621094 3.277344 Z M 20.621094 2.339844 " fill-opacity="1" fill-rule="nonzero"/><path fill="#013f69" d="M 18.746094 4.683594 L 19.683594 4.683594 L 19.683594 5.621094 L 18.746094 5.621094 Z M 18.746094 4.683594 " fill-opacity="1" fill-rule="nonzero"/><path fill="#013f69" d="M 20.621094 4.683594 L 21.554688 4.683594 L 21.554688 5.621094 L 20.621094 5.621094 Z M 20.621094 4.683594 " fill-opacity="1" fill-rule="nonzero"/><path fill="#013f69" d="M 18.746094 7.023438 L 19.683594 7.023438 L 19.683594 7.960938 L 18.746094 7.960938 Z M 18.746094 7.023438 " fill-opacity="1" fill-rule="nonzero"/><path fill="#013f69" d="M 20.621094 7.023438 L 21.554688 7.023438 L 21.554688 7.960938 L 20.621094 7.960938 Z M 20.621094 7.023438 " fill-opacity="1" fill-rule="nonzero"/><path fill="#013f69" d="M 8.445312 4.214844 L 11.253906 4.214844 L 11.253906 5.152344 L 8.445312 5.152344 Z M 8.445312 4.214844 " fill-opacity="1" fill-rule="nonzero"/><path fill="#013f69" d="M 8.445312 6.554688 L 11.253906 6.554688 L 11.253906 7.492188 L 8.445312 7.492188 Z M 8.445312 6.554688 " fill-opacity="1" fill-rule="nonzero"/></svg>