<svg xmlns="http://www.w3.org/2000/svg" xmlns:xlink="http://www.w3.org/1999/xlink" width="40" zoomAndPan="magnify" viewBox="0 0 30 30.000001" height="40" preserveAspectRatio="xMidYMid meet" version="1.0"><defs><clipPath id="e5e6570a2b"><path d="M 5.324219 0 L 29.46875 0 L 29.46875 24 L 5.324219 24 Z M 5.324219 0 " clip-rule="nonzero"/></clipPath><clipPath id="0e98ad7edb"><path d="M 0.484375 18 L 11 18 L 11 29 L 0.484375 29 Z M 0.484375 18 " clip-rule="nonzero"/></clipPath></defs><path fill="#013f69" d="M 17.566406 10.242188 C 18.871094 10.242188 19.90625 9.164062 19.90625 7.90625 C 19.90625 6.601562 18.871094 5.570312 17.566406 5.570312 C 16.265625 5.570312 15.234375 6.601562 15.234375 7.90625 C 15.234375 9.207031 16.3125 10.242188 17.566406 10.242188 " fill-opacity="1" fill-rule="nonzero"/><path fill="#013f69" d="M 19.769531 10.644531 C 19.632812 10.601562 19.5 10.601562 19.367188 10.644531 C 18.285156 11.320312 16.851562 11.320312 15.816406 10.644531 C 15.679688 10.554688 15.546875 10.554688 15.410156 10.644531 C 13.882812 11.453125 12.894531 13.027344 12.894531 14.777344 C 12.894531 15.273438 13.167969 15.992188 14.511719 16.484375 C 15.324219 16.800781 16.445312 16.933594 17.613281 16.933594 C 19.949219 16.933594 22.285156 16.261719 22.285156 14.777344 C 22.285156 13.027344 21.296875 11.453125 19.769531 10.644531 " fill-opacity="1" fill-rule="nonzero"/><path fill="#013f69" d="M 22.824219 11.050781 C 23.8125 11.050781 24.621094 10.242188 24.621094 9.253906 C 24.621094 8.265625 23.8125 7.457031 22.824219 7.457031 C 21.835938 7.457031 21.027344 8.265625 21.027344 9.253906 C 21.027344 10.242188 21.835938 11.050781 22.824219 11.050781 " fill-opacity="1" fill-rule="nonzero"/><path fill="#013f69" d="M 24.441406 11.320312 C 24.304688 11.226562 24.125 11.273438 23.992188 11.320312 C 23.453125 11.679688 22.730469 11.765625 22.105469 11.546875 C 22.777344 12.488281 23.136719 13.613281 23.136719 14.777344 C 23.136719 15.226562 23.003906 15.675781 22.730469 16.035156 L 22.777344 16.035156 C 23.902344 16.035156 25.203125 15.8125 25.832031 15.226562 C 26.101562 15.003906 26.238281 14.6875 26.238281 14.371094 C 26.28125 13.070312 25.5625 11.902344 24.441406 11.320312 " fill-opacity="1" fill-rule="nonzero"/><path fill="#013f69" d="M 13.078125 11.546875 C 12.445312 11.769531 11.730469 11.679688 11.191406 11.320312 C 11.054688 11.230469 10.875 11.230469 10.738281 11.320312 C 9.617188 11.90625 8.898438 13.074219 8.898438 14.375 C 8.898438 14.6875 9.035156 15.003906 9.300781 15.226562 C 9.933594 15.855469 11.277344 16.039062 12.355469 16.039062 L 12.402344 16.039062 C 12.089844 15.542969 12 15.09375 12 14.777344 C 12.042969 13.566406 12.402344 12.445312 13.078125 11.546875 " fill-opacity="1" fill-rule="nonzero"/><path fill="#013f69" d="M 12.355469 11.050781 C 13.34375 11.050781 14.15625 10.242188 14.15625 9.253906 C 14.15625 8.265625 13.34375 7.457031 12.355469 7.457031 C 11.367188 7.457031 10.5625 8.265625 10.5625 9.253906 C 10.515625 10.242188 11.367188 11.050781 12.355469 11.050781 " fill-opacity="1" fill-rule="nonzero"/><g clip-path="url(#e5e6570a2b)"><path fill="#013f69" d="M 17.566406 22.910156 C 11.503906 22.910156 6.5625 17.964844 6.5625 11.902344 C 6.5625 5.796875 11.503906 0.851562 17.566406 0.851562 C 23.632812 0.851562 28.574219 5.796875 28.574219 11.859375 C 28.617188 17.964844 23.675781 22.910156 17.566406 22.910156 Z M 17.566406 0 C 11.054688 0 5.710938 5.347656 5.710938 11.902344 C 5.710938 18.414062 11.054688 23.761719 17.566406 23.761719 C 24.082031 23.761719 29.472656 18.414062 29.472656 11.902344 C 29.472656 5.347656 24.125 0 17.566406 0 " fill-opacity="1" fill-rule="nonzero"/></g><g clip-path="url(#0e98ad7edb)"><path fill="#013f69" d="M 6.695312 18.503906 L 1.621094 23.628906 C 0.453125 24.792969 0.453125 26.726562 1.621094 27.894531 C 2.789062 29.0625 4.722656 29.0625 5.890625 27.894531 L 10.964844 22.820312 C 9.210938 21.695312 7.730469 20.257812 6.695312 18.503906 " fill-opacity="1" fill-rule="nonzero"/></g></svg>