<svg xmlns="http://www.w3.org/2000/svg" xmlns:xlink="http://www.w3.org/1999/xlink" width="40" zoomAndPan="magnify" viewBox="0 0 30 30.000001" height="40" preserveAspectRatio="xMidYMid meet" version="1.0"><defs><clipPath id="8a99d3054d"><path d="M 0.484375 1 L 4 1 L 4 5 L 0.484375 5 Z M 0.484375 1 " clip-rule="nonzero"/></clipPath><clipPath id="24b8fa187f"><path d="M 0.484375 7 L 10 7 L 10 29.03125 L 0.484375 29.03125 Z M 0.484375 7 " clip-rule="nonzero"/></clipPath><clipPath id="3d530c72b3"><path d="M 9 9 L 29.515625 9 L 29.515625 29.03125 L 9 29.03125 Z M 9 9 " clip-rule="nonzero"/></clipPath></defs><path fill="#013f69" d="M 13.050781 15.34375 C 13.4375 15.730469 14.09375 15.75 14.5 15.367188 L 16.996094 12.894531 C 16.996094 12.894531 18.625 14.59375 18.625 14.59375 C 18.785156 14.777344 19.078125 14.777344 19.261719 14.617188 C 19.441406 14.4375 19.441406 14.164062 19.285156 13.984375 L 18.785156 13.460938 L 21.527344 10.8125 C 21.324219 10.582031 21.140625 10.335938 21.007812 10.0625 L 18.195312 12.78125 L 14.910156 9.335938 L 21.347656 3.058594 C 21.574219 2.855469 21.84375 2.742188 22.140625 2.742188 C 22.457031 2.742188 22.75 2.878906 22.976562 3.105469 L 24.632812 4.851562 C 24.859375 5.078125 24.949219 5.371094 24.949219 5.664062 C 25.265625 5.777344 25.539062 5.9375 25.8125 6.140625 C 25.945312 5.574219 25.832031 4.964844 25.492188 4.464844 L 27.214844 2.789062 C 27.804688 2.222656 27.828125 1.269531 27.261719 0.65625 L 27.125 0.5 L 27.101562 0.476562 C 26.832031 0.179688 26.445312 0.0234375 26.039062 0 C 25.628906 0 25.242188 0.136719 24.972656 0.429688 L 23.203125 2.128906 C 22.910156 1.949219 22.523438 1.835938 22.160156 1.835938 C 21.640625 1.835938 21.121094 2.039062 20.734375 2.425781 L 14.230469 8.726562 L 13.617188 8.089844 C 13.4375 7.910156 13.164062 7.910156 12.984375 8.066406 C 12.800781 8.25 12.800781 8.523438 12.960938 8.703125 L 14.636719 10.449219 L 12.144531 12.941406 C 11.738281 13.328125 11.714844 13.984375 12.121094 14.367188 C 12.121094 14.390625 13.050781 15.34375 13.050781 15.34375 Z M 25.628906 1.085938 C 25.742188 0.972656 25.902344 0.90625 26.058594 0.929688 C 26.21875 0.929688 26.355469 0.996094 26.46875 1.109375 L 26.605469 1.269531 L 26.625 1.292969 C 26.851562 1.542969 26.851562 1.925781 26.605469 2.152344 L 24.902344 3.808594 L 23.929688 2.765625 Z M 12.757812 13.597656 L 15.273438 11.105469 L 16.359375 12.238281 L 13.867188 14.707031 C 13.84375 14.753906 13.820312 14.753906 13.796875 14.753906 C 13.777344 14.753906 13.730469 14.753906 13.707031 14.707031 L 12.777344 13.757812 C 12.734375 13.734375 12.734375 13.710938 12.734375 13.6875 C 12.734375 13.644531 12.757812 13.621094 12.757812 13.597656 Z M 12.757812 13.597656 " fill-opacity="1" fill-rule="nonzero"/><path fill="#013f69" d="M 23.839844 6.367188 C 22.59375 6.367188 21.574219 7.386719 21.574219 8.636719 C 21.574219 9.882812 22.59375 10.902344 23.839844 10.902344 C 25.085938 10.902344 26.105469 9.882812 26.105469 8.636719 C 26.105469 7.386719 25.085938 6.367188 23.839844 6.367188 Z M 23.839844 9.996094 C 23.089844 9.996094 22.480469 9.382812 22.480469 8.636719 C 22.480469 7.886719 23.089844 7.273438 23.839844 7.273438 C 24.585938 7.273438 25.199219 7.886719 25.199219 8.636719 C 25.199219 9.382812 24.585938 9.996094 23.839844 9.996094 Z M 23.839844 9.996094 " fill-opacity="1" fill-rule="nonzero"/><g clip-path="url(#8a99d3054d)"><path fill="#013f69" d="M 1.855469 4.101562 C 2.601562 4.101562 3.214844 3.488281 3.214844 2.742188 C 3.214844 1.996094 2.601562 1.382812 1.855469 1.382812 C 1.105469 1.382812 0.496094 1.996094 0.496094 2.742188 C 0.496094 3.488281 1.105469 4.101562 1.855469 4.101562 Z M 1.855469 2.289062 C 2.105469 2.289062 2.308594 2.492188 2.308594 2.742188 C 2.308594 2.992188 2.105469 3.195312 1.855469 3.195312 C 1.605469 3.195312 1.402344 2.992188 1.402344 2.742188 C 1.402344 2.492188 1.605469 2.289062 1.855469 2.289062 Z M 1.855469 2.289062 " fill-opacity="1" fill-rule="nonzero"/></g><path fill="#013f69" d="M 5.480469 2.742188 C 6.230469 2.742188 6.839844 2.128906 6.839844 1.382812 C 6.839844 0.632812 6.230469 0.0234375 5.480469 0.0234375 C 4.734375 0.0234375 4.121094 0.632812 4.121094 1.382812 C 4.121094 2.128906 4.734375 2.742188 5.480469 2.742188 Z M 5.480469 0.929688 C 5.730469 0.929688 5.933594 1.132812 5.933594 1.382812 C 5.933594 1.632812 5.730469 1.835938 5.480469 1.835938 C 5.230469 1.835938 5.027344 1.632812 5.027344 1.382812 C 5.027344 1.132812 5.230469 0.929688 5.480469 0.929688 Z M 5.480469 0.929688 " fill-opacity="1" fill-rule="nonzero"/><g clip-path="url(#24b8fa187f)"><path fill="#013f69" d="M 9.109375 8.179688 C 9.109375 7.933594 8.902344 7.726562 8.652344 7.726562 L 0.949219 7.726562 C 0.699219 7.726562 0.496094 7.933594 0.496094 8.179688 C 0.496094 8.429688 0.699219 8.636719 0.949219 8.636719 L 1.175781 8.636719 L 1.175781 26.789062 C 1.175781 28.035156 2.195312 29.03125 3.464844 29.03125 L 6.160156 29.03125 C 7.40625 29.03125 8.449219 28.011719 8.449219 26.789062 L 8.449219 8.636719 L 8.675781 8.636719 C 8.902344 8.636719 9.109375 8.429688 9.109375 8.179688 Z M 7.519531 9.542969 L 7.292969 9.542969 C 7.046875 9.542969 6.839844 9.746094 6.839844 9.996094 C 6.839844 10.242188 7.046875 10.449219 7.292969 10.449219 L 7.519531 10.449219 L 7.519531 10.902344 L 7.292969 10.902344 C 7.046875 10.902344 6.839844 11.105469 6.839844 11.355469 C 6.839844 11.605469 7.046875 11.808594 7.292969 11.808594 L 7.519531 11.808594 L 7.519531 12.261719 L 7.292969 12.261719 C 7.046875 12.261719 6.839844 12.464844 6.839844 12.714844 C 6.839844 12.964844 7.046875 13.167969 7.292969 13.167969 L 7.519531 13.167969 L 7.519531 13.621094 L 7.292969 13.621094 C 7.046875 13.621094 6.839844 13.824219 6.839844 14.074219 C 6.839844 14.324219 7.046875 14.527344 7.292969 14.527344 L 7.519531 14.527344 L 7.519531 14.980469 L 7.292969 14.980469 C 7.046875 14.980469 6.839844 15.183594 6.839844 15.433594 C 6.839844 15.683594 7.046875 15.886719 7.292969 15.886719 L 7.519531 15.886719 L 7.519531 16.339844 L 7.292969 16.339844 C 7.046875 16.339844 6.839844 16.542969 6.839844 16.792969 C 6.839844 17.042969 7.046875 17.246094 7.292969 17.246094 L 7.519531 17.246094 L 7.519531 17.699219 L 7.292969 17.699219 C 7.046875 17.699219 6.839844 17.90625 6.839844 18.152344 C 6.839844 18.402344 7.046875 18.605469 7.292969 18.605469 L 7.519531 18.605469 L 7.519531 19.058594 L 7.292969 19.058594 C 7.046875 19.058594 6.839844 19.265625 6.839844 19.511719 C 6.839844 19.761719 7.046875 19.964844 7.292969 19.964844 L 7.519531 19.964844 L 7.519531 20.421875 L 7.292969 20.421875 C 7.046875 20.421875 6.839844 20.625 6.839844 20.875 C 6.839844 21.121094 7.046875 21.328125 7.292969 21.328125 L 7.519531 21.328125 L 7.519531 21.78125 L 7.292969 21.78125 C 7.046875 21.78125 6.839844 21.984375 6.839844 22.234375 C 6.839844 22.484375 7.046875 22.6875 7.292969 22.6875 L 7.519531 22.6875 L 7.519531 23.140625 L 7.292969 23.140625 C 7.046875 23.140625 6.839844 23.34375 6.839844 23.59375 C 6.839844 23.84375 7.046875 24.046875 7.292969 24.046875 L 7.519531 24.046875 L 7.519531 24.5 L 7.292969 24.5 C 7.046875 24.5 6.839844 24.703125 6.839844 24.953125 C 6.839844 25.203125 7.046875 25.40625 7.292969 25.40625 L 7.519531 25.40625 L 7.519531 25.859375 L 7.292969 25.859375 C 7.046875 25.859375 6.839844 26.0625 6.839844 26.3125 C 6.839844 26.5625 7.046875 26.765625 7.292969 26.765625 L 7.519531 26.765625 L 7.519531 26.789062 C 7.519531 27.535156 6.910156 28.125 6.136719 28.125 L 3.464844 28.125 C 2.714844 28.125 2.082031 27.515625 2.082031 26.789062 L 2.082031 26.765625 L 2.308594 26.765625 C 2.558594 26.765625 2.761719 26.5625 2.761719 26.3125 C 2.761719 26.0625 2.558594 25.859375 2.308594 25.859375 L 2.082031 25.859375 L 2.082031 25.40625 L 2.308594 25.40625 C 2.558594 25.40625 2.761719 25.203125 2.761719 24.953125 C 2.761719 24.703125 2.558594 24.5 2.308594 24.5 L 2.082031 24.5 L 2.082031 24.046875 L 2.308594 24.046875 C 2.558594 24.046875 2.761719 23.84375 2.761719 23.59375 C 2.761719 23.34375 2.558594 23.140625 2.308594 23.140625 L 2.082031 23.140625 L 2.082031 22.6875 L 2.308594 22.6875 C 2.558594 22.6875 2.761719 22.484375 2.761719 22.234375 C 2.761719 21.984375 2.558594 21.78125 2.308594 21.78125 L 2.082031 21.78125 L 2.082031 21.328125 L 2.308594 21.328125 C 2.558594 21.328125 2.761719 21.121094 2.761719 20.875 C 2.761719 20.625 2.558594 20.421875 2.308594 20.421875 L 2.082031 20.421875 L 2.082031 19.964844 L 2.308594 19.964844 C 2.558594 19.964844 2.761719 19.761719 2.761719 19.511719 C 2.761719 19.265625 2.558594 19.058594 2.308594 19.058594 L 2.082031 19.058594 L 2.082031 18.605469 L 2.308594 18.605469 C 2.558594 18.605469 2.761719 18.402344 2.761719 18.152344 C 2.761719 17.90625 2.558594 17.699219 2.308594 17.699219 L 2.082031 17.699219 L 2.082031 17.246094 L 2.308594 17.246094 C 2.558594 17.246094 2.761719 17.042969 2.761719 16.792969 C 2.761719 16.542969 2.558594 16.339844 2.308594 16.339844 L 2.082031 16.339844 L 2.082031 15.886719 L 2.308594 15.886719 C 2.558594 15.886719 2.761719 15.683594 2.761719 15.433594 C 2.761719 15.183594 2.558594 14.980469 2.308594 14.980469 L 2.082031 14.980469 L 2.082031 14.527344 L 2.308594 14.527344 C 2.558594 14.527344 2.761719 14.324219 2.761719 14.074219 C 2.761719 13.824219 2.558594 13.621094 2.308594 13.621094 L 2.082031 13.621094 L 2.082031 13.167969 L 2.308594 13.167969 C 2.558594 13.167969 2.761719 12.964844 2.761719 12.714844 C 2.761719 12.464844 2.558594 12.261719 2.308594 12.261719 L 2.082031 12.261719 L 2.082031 11.808594 L 2.308594 11.808594 C 2.558594 11.808594 2.761719 11.605469 2.761719 11.355469 C 2.761719 11.105469 2.558594 10.902344 2.308594 10.902344 L 2.082031 10.902344 L 2.082031 10.449219 L 2.308594 10.449219 C 2.558594 10.449219 2.761719 10.242188 2.761719 9.996094 C 2.761719 9.746094 2.558594 9.542969 2.308594 9.542969 L 2.082031 9.542969 L 2.082031 8.636719 L 7.519531 8.636719 Z M 7.519531 9.542969 " fill-opacity="1" fill-rule="nonzero"/></g><path fill="#013f69" d="M 19.304688 22.234375 C 18.058594 22.234375 17.039062 23.253906 17.039062 24.5 C 17.039062 25.746094 18.058594 26.765625 19.304688 26.765625 C 20.550781 26.765625 21.574219 25.746094 21.574219 24.5 C 21.574219 23.253906 20.550781 22.234375 19.304688 22.234375 Z M 19.304688 25.859375 C 18.558594 25.859375 17.945312 25.246094 17.945312 24.5 C 17.945312 23.75 18.558594 23.140625 19.304688 23.140625 C 20.054688 23.140625 20.664062 23.75 20.664062 24.5 C 20.664062 25.246094 20.054688 25.859375 19.304688 25.859375 Z M 19.304688 25.859375 " fill-opacity="1" fill-rule="nonzero"/><path fill="#013f69" d="M 5.707031 6.820312 C 6.589844 6.820312 7.292969 6.121094 7.292969 5.234375 C 7.292969 4.351562 6.589844 3.648438 5.707031 3.648438 C 4.824219 3.648438 4.121094 4.351562 4.121094 5.234375 C 4.121094 6.121094 4.824219 6.820312 5.707031 6.820312 Z M 5.707031 4.554688 C 6.09375 4.554688 6.386719 4.851562 6.386719 5.234375 C 6.386719 5.621094 6.09375 5.914062 5.707031 5.914062 C 5.324219 5.914062 5.027344 5.621094 5.027344 5.234375 C 5.027344 4.851562 5.324219 4.554688 5.707031 4.554688 Z M 5.707031 4.554688 " fill-opacity="1" fill-rule="nonzero"/><path fill="#013f69" d="M 19.894531 5.597656 L 17.628906 7.863281 C 17.449219 8.046875 17.449219 8.316406 17.628906 8.5 C 17.71875 8.589844 17.832031 8.636719 17.945312 8.636719 C 18.058594 8.636719 18.171875 8.589844 18.261719 8.5 L 20.53125 6.234375 C 20.710938 6.050781 20.710938 5.777344 20.53125 5.597656 C 20.347656 5.417969 20.078125 5.417969 19.894531 5.597656 Z M 19.894531 5.597656 " fill-opacity="1" fill-rule="nonzero"/><path fill="#013f69" d="M 21.84375 22.617188 C 22.027344 22.867188 22.160156 23.140625 22.273438 23.410156 C 25.0625 22.234375 27.011719 19.46875 27.011719 16.273438 C 27.011719 14.460938 26.378906 12.78125 25.3125 11.445312 C 25.015625 11.605469 24.722656 11.695312 24.382812 11.761719 C 25.449219 12.984375 26.105469 14.574219 26.105469 16.296875 C 26.105469 19.128906 24.335938 21.574219 21.84375 22.617188 Z M 21.84375 22.617188 " fill-opacity="1" fill-rule="nonzero"/><g clip-path="url(#3d530c72b3)"><path fill="#013f69" d="M 25.425781 25.859375 L 22.34375 25.859375 C 26.492188 24.566406 29.503906 20.714844 29.503906 16.136719 C 29.503906 13.554688 28.554688 11.152344 26.921875 9.335938 C 26.851562 9.675781 26.71875 9.996094 26.535156 10.289062 C 27.828125 11.898438 28.597656 13.9375 28.597656 16.136719 C 28.597656 20.148438 26.039062 23.59375 22.457031 24.863281 C 22.410156 25.226562 22.320312 25.566406 22.160156 25.882812 C 22.003906 26.222656 21.777344 26.515625 21.527344 26.765625 L 25.425781 26.765625 C 25.675781 26.765625 25.878906 26.96875 25.878906 27.21875 L 25.878906 27.671875 C 25.878906 27.921875 25.675781 28.125 25.425781 28.125 L 12.28125 28.125 C 12.03125 28.125 11.828125 27.921875 11.828125 27.671875 L 11.828125 27.21875 C 11.828125 26.96875 12.03125 26.765625 12.28125 26.765625 L 17.085938 26.765625 C 16.8125 26.515625 16.609375 26.199219 16.449219 25.882812 C 16.292969 25.566406 16.179688 25.203125 16.15625 24.839844 C 14.027344 24.046875 12.234375 22.484375 11.148438 20.421875 L 12.574219 20.421875 C 13.480469 21.847656 14.773438 22.890625 16.292969 23.503906 C 16.382812 23.207031 16.519531 22.9375 16.699219 22.6875 C 15.519531 22.234375 14.457031 21.460938 13.683594 20.421875 L 15.226562 20.421875 C 15.476562 20.421875 15.679688 20.214844 15.679688 19.964844 C 15.679688 19.71875 15.476562 19.511719 15.226562 19.511719 L 9.335938 19.511719 L 9.335938 20.421875 L 10.148438 20.421875 C 11.375 23.070312 13.664062 25.019531 16.359375 25.859375 L 12.28125 25.859375 C 11.53125 25.859375 10.921875 26.472656 10.921875 27.21875 L 10.921875 27.671875 C 10.921875 28.421875 11.53125 29.03125 12.28125 29.03125 L 25.425781 29.03125 C 26.171875 29.03125 26.785156 28.421875 26.785156 27.671875 L 26.785156 27.21875 C 26.785156 26.472656 26.171875 25.859375 25.425781 25.859375 Z M 25.425781 25.859375 " fill-opacity="1" fill-rule="nonzero"/></g></svg>