<svg xmlns="http://www.w3.org/2000/svg" xmlns:xlink="http://www.w3.org/1999/xlink" width="40" zoomAndPan="magnify" viewBox="0 0 30 30.000001" height="40" preserveAspectRatio="xMidYMid meet" version="1.0"><defs><clipPath id="fdc501f9c0"><path d="M 9 0.507812 L 22 0.507812 L 22 7 L 9 7 Z M 9 0.507812 " clip-rule="nonzero"/></clipPath><clipPath id="612c3e9983"><path d="M 18 26 L 22 26 L 22 28.816406 L 18 28.816406 Z M 18 26 " clip-rule="nonzero"/></clipPath><clipPath id="26699581c9"><path d="M 24 26 L 29 26 L 29 28.816406 L 24 28.816406 Z M 24 26 " clip-rule="nonzero"/></clipPath><clipPath id="6116fdaf9a"><path d="M 23 25 L 27 25 L 27 28.816406 L 23 28.816406 Z M 23 25 " clip-rule="nonzero"/></clipPath><clipPath id="fc960b2637"><path d="M 20 25 L 24 25 L 24 28.816406 L 20 28.816406 Z M 20 25 " clip-rule="nonzero"/></clipPath><clipPath id="ace1e82eb9"><path d="M 26 22 L 29.515625 22 L 29.515625 27 L 26 27 Z M 26 22 " clip-rule="nonzero"/></clipPath><clipPath id="a15f4f6728"><path d="M 26 18 L 29.515625 18 L 29.515625 23 L 26 23 Z M 26 18 " clip-rule="nonzero"/></clipPath><clipPath id="156210673b"><path d="M 0.484375 25 L 2 25 L 2 27 L 0.484375 27 Z M 0.484375 25 " clip-rule="nonzero"/></clipPath></defs><path fill="#013f69" d="M 20.785156 17.898438 C 21.085938 17.316406 21.4375 16.855469 21.824219 16.519531 C 20.609375 16.820312 19.539062 17.464844 18.714844 18.34375 C 18.699219 18.363281 18.683594 18.378906 18.664062 18.398438 C 18.644531 18.421875 18.621094 18.445312 18.597656 18.472656 C 18.566406 18.507812 18.535156 18.546875 18.503906 18.582031 C 19.101562 18.773438 19.703125 18.925781 20.304688 19.046875 C 20.441406 18.636719 20.601562 18.25 20.785156 17.898438 Z M 20.785156 17.898438 " fill-opacity="1" fill-rule="nonzero"/><path fill="#013f69" d="M 12.199219 15.570312 L 14.015625 18.839844 L 14.96875 17.90625 L 12.820312 15.011719 Z M 12.199219 15.570312 " fill-opacity="1" fill-rule="nonzero"/><path fill="#013f69" d="M 16.410156 18.671875 L 17.480469 16.9375 L 18.328125 15.566406 L 17.710938 15.011719 L 15.566406 17.902344 Z M 16.410156 18.671875 " fill-opacity="1" fill-rule="nonzero"/><path fill="#013f69" d="M 19.773438 22.800781 L 17.039062 22.800781 C 17.046875 22.996094 17.0625 23.195312 17.089844 23.390625 C 17.089844 23.394531 17.089844 23.402344 17.089844 23.40625 C 17.226562 24.425781 17.617188 25.371094 18.195312 26.175781 C 18.851562 25.960938 19.507812 25.789062 20.167969 25.65625 C 19.925781 24.78125 19.792969 23.808594 19.773438 22.800781 Z M 19.773438 22.800781 " fill-opacity="1" fill-rule="nonzero"/><path fill="#013f69" d="M 16.585938 22.308594 C 16.644531 20.917969 17.132812 19.632812 17.921875 18.585938 C 17.933594 18.570312 17.945312 18.550781 17.960938 18.539062 C 17.996094 18.492188 18.035156 18.445312 18.070312 18.398438 C 18.074219 18.394531 18.078125 18.390625 18.082031 18.382812 C 18.125 18.335938 18.164062 18.285156 18.207031 18.238281 C 18.214844 18.226562 18.226562 18.214844 18.238281 18.199219 C 18.277344 18.15625 18.316406 18.113281 18.355469 18.070312 C 18.386719 18.039062 18.417969 18.003906 18.449219 17.972656 C 18.457031 17.964844 18.464844 17.957031 18.46875 17.949219 C 19.046875 17.351562 19.738281 16.859375 20.515625 16.5 L 18.710938 15.800781 L 16.652344 19.140625 C 16.617188 19.195312 16.558594 19.234375 16.488281 19.242188 C 16.480469 19.246094 16.46875 19.246094 16.460938 19.246094 C 16.457031 19.246094 16.453125 19.246094 16.449219 19.246094 C 16.441406 19.246094 16.4375 19.246094 16.429688 19.242188 C 16.421875 19.242188 16.410156 19.242188 16.402344 19.238281 C 16.394531 19.238281 16.390625 19.234375 16.382812 19.234375 C 16.375 19.230469 16.367188 19.226562 16.355469 19.222656 C 16.351562 19.21875 16.347656 19.214844 16.34375 19.214844 C 16.328125 19.207031 16.316406 19.195312 16.304688 19.1875 L 15.269531 18.238281 L 14.121094 19.367188 C 14.109375 19.378906 14.097656 19.386719 14.082031 19.394531 C 14.078125 19.398438 14.074219 19.402344 14.070312 19.402344 C 14.058594 19.410156 14.050781 19.414062 14.039062 19.417969 C 14.035156 19.417969 14.027344 19.421875 14.023438 19.421875 C 14.011719 19.425781 14.003906 19.425781 13.992188 19.429688 C 13.988281 19.429688 13.980469 19.429688 13.972656 19.429688 C 13.96875 19.429688 13.964844 19.429688 13.960938 19.429688 C 13.953125 19.429688 13.941406 19.429688 13.929688 19.429688 C 13.878906 19.421875 13.828125 19.394531 13.792969 19.359375 C 13.78125 19.34375 13.773438 19.332031 13.765625 19.316406 L 11.8125 15.804688 L 7.222656 17.578125 L 7.222656 23.195312 L 9.554688 23.195312 L 9.554688 19.648438 C 9.554688 19.527344 9.65625 19.425781 9.78125 19.425781 C 9.90625 19.425781 10.007812 19.527344 10.007812 19.648438 L 10.007812 23.195312 L 16.609375 23.195312 C 16.597656 23.042969 16.585938 22.890625 16.582031 22.734375 C 16.582031 22.679688 16.582031 22.628906 16.582031 22.578125 C 16.582031 22.503906 16.582031 22.429688 16.585938 22.355469 C 16.585938 22.339844 16.585938 22.324219 16.585938 22.308594 Z M 16.585938 22.308594 " fill-opacity="1" fill-rule="nonzero"/><path fill="#013f69" d="M 20.171875 19.476562 C 19.519531 19.34375 18.863281 19.171875 18.210938 18.957031 C 17.515625 19.925781 17.09375 21.085938 17.039062 22.3125 C 17.039062 22.328125 17.039062 22.339844 17.039062 22.355469 L 19.773438 22.355469 C 19.792969 21.335938 19.929688 20.355469 20.171875 19.476562 Z M 20.171875 19.476562 " fill-opacity="1" fill-rule="nonzero"/><path fill="#013f69" d="M 5.132812 13.101562 C 5.132812 13.101562 5.136719 13.101562 5.136719 13.101562 C 5.171875 13.125 5.207031 13.144531 5.242188 13.164062 C 5.257812 13.171875 5.273438 13.179688 5.289062 13.1875 C 5.304688 13.195312 5.316406 13.203125 5.332031 13.207031 C 5.355469 13.21875 5.378906 13.230469 5.402344 13.242188 C 5.402344 13.242188 5.40625 13.242188 5.40625 13.242188 C 5.484375 13.273438 5.570312 13.304688 5.65625 13.324219 C 5.664062 13.328125 5.671875 13.328125 5.679688 13.332031 C 5.710938 13.339844 5.742188 13.347656 5.777344 13.351562 C 5.800781 13.355469 5.824219 13.363281 5.851562 13.363281 C 5.867188 13.367188 5.882812 13.371094 5.898438 13.371094 C 5.921875 13.375 5.949219 13.375 5.972656 13.378906 C 5.984375 13.378906 6 13.382812 6.011719 13.382812 C 6.050781 13.382812 6.089844 13.386719 6.128906 13.386719 C 6.167969 13.386719 6.207031 13.382812 6.246094 13.382812 C 6.261719 13.382812 6.273438 13.378906 6.285156 13.378906 C 6.3125 13.375 6.339844 13.375 6.363281 13.371094 C 6.378906 13.367188 6.394531 13.367188 6.410156 13.363281 C 6.441406 13.359375 6.46875 13.355469 6.5 13.351562 C 6.523438 13.34375 6.550781 13.339844 6.578125 13.332031 C 6.589844 13.328125 6.597656 13.328125 6.605469 13.324219 C 6.691406 13.304688 6.773438 13.277344 6.851562 13.242188 C 6.855469 13.242188 6.855469 13.242188 6.859375 13.238281 C 6.882812 13.230469 6.90625 13.21875 6.929688 13.207031 C 6.945312 13.203125 6.957031 13.195312 6.972656 13.1875 C 6.988281 13.179688 7.003906 13.171875 7.019531 13.164062 C 7.054688 13.144531 7.089844 13.125 7.121094 13.101562 C 7.125 13.101562 7.125 13.101562 7.128906 13.101562 C 7.652344 12.773438 8 12.199219 8 11.542969 C 8 10.527344 7.160156 9.703125 6.128906 9.703125 C 5.101562 9.703125 4.261719 10.527344 4.261719 11.542969 C 4.261719 12.199219 4.609375 12.773438 5.132812 13.101562 Z M 6.128906 10.34375 C 6.800781 10.34375 7.347656 10.882812 7.347656 11.542969 C 7.347656 12.207031 6.800781 12.742188 6.128906 12.742188 C 5.460938 12.742188 4.914062 12.207031 4.914062 11.542969 C 4.914062 10.882812 5.460938 10.34375 6.128906 10.34375 Z M 6.128906 10.34375 " fill-opacity="1" fill-rule="nonzero"/><g clip-path="url(#fdc501f9c0)"><path fill="#013f69" d="M 11.292969 4.347656 C 11.292969 4.335938 11.292969 4.324219 11.292969 4.316406 C 11.296875 4.3125 11.296875 4.308594 11.296875 4.304688 C 11.296875 4.296875 11.300781 4.289062 11.300781 4.285156 C 11.304688 4.28125 11.304688 4.277344 11.304688 4.273438 C 11.308594 4.265625 11.3125 4.257812 11.3125 4.253906 C 11.316406 4.25 11.316406 4.246094 11.320312 4.242188 C 11.324219 4.234375 11.324219 4.230469 11.328125 4.226562 C 11.332031 4.222656 11.335938 4.21875 11.339844 4.214844 C 11.339844 4.210938 11.34375 4.203125 11.347656 4.199219 C 11.351562 4.195312 11.355469 4.195312 11.359375 4.191406 C 11.363281 4.1875 11.367188 4.183594 11.371094 4.179688 C 11.375 4.175781 11.378906 4.171875 11.382812 4.167969 C 11.390625 4.164062 11.394531 4.160156 11.398438 4.160156 C 11.402344 4.15625 11.40625 4.152344 11.410156 4.152344 C 11.417969 4.148438 11.421875 4.144531 11.425781 4.144531 C 11.425781 4.144531 11.429688 4.144531 11.429688 4.144531 C 11.429688 4.144531 11.429688 4.144531 11.429688 4.140625 C 12.601562 3.632812 13.8125 3.359375 15.03125 3.332031 C 15.121094 3.332031 15.210938 3.328125 15.300781 3.328125 C 16.589844 3.328125 17.910156 3.601562 19.214844 4.140625 C 19.214844 4.140625 19.214844 4.140625 19.21875 4.140625 C 19.226562 4.144531 19.230469 4.148438 19.234375 4.148438 C 19.238281 4.152344 19.246094 4.152344 19.25 4.15625 C 19.253906 4.160156 19.257812 4.164062 19.265625 4.167969 C 19.269531 4.167969 19.273438 4.171875 19.277344 4.175781 C 19.28125 4.179688 19.285156 4.183594 19.289062 4.1875 C 19.292969 4.191406 19.296875 4.195312 19.300781 4.199219 C 19.304688 4.203125 19.308594 4.207031 19.3125 4.210938 C 19.3125 4.214844 19.316406 4.21875 19.320312 4.222656 C 19.324219 4.226562 19.328125 4.234375 19.328125 4.238281 C 19.332031 4.242188 19.335938 4.246094 19.335938 4.25 C 19.339844 4.257812 19.339844 4.261719 19.34375 4.269531 C 19.34375 4.273438 19.347656 4.277344 19.347656 4.28125 C 19.351562 4.289062 19.351562 4.296875 19.355469 4.304688 C 19.355469 4.308594 19.355469 4.3125 19.355469 4.3125 C 19.359375 4.324219 19.359375 4.335938 19.359375 4.347656 L 19.359375 5.09375 L 20.925781 4.191406 L 20.925781 5.875 L 20.398438 6.367188 C 20.351562 6.410156 20.328125 6.46875 20.328125 6.53125 C 20.328125 6.585938 20.347656 6.640625 20.390625 6.683594 C 20.433594 6.730469 20.492188 6.753906 20.554688 6.753906 C 20.609375 6.753906 20.664062 6.730469 20.710938 6.691406 L 21.152344 6.277344 L 21.597656 6.691406 C 21.640625 6.730469 21.695312 6.753906 21.75 6.753906 C 21.8125 6.753906 21.871094 6.730469 21.917969 6.683594 C 21.957031 6.640625 21.976562 6.585938 21.976562 6.53125 C 21.976562 6.46875 21.953125 6.410156 21.90625 6.367188 L 21.378906 5.875 L 21.378906 3.9375 C 21.378906 3.933594 21.378906 3.933594 21.378906 3.933594 L 21.570312 3.820312 L 15.328125 0.511719 L 9.085938 3.820312 L 11.292969 5.09375 Z M 11.292969 4.347656 " fill-opacity="1" fill-rule="nonzero"/></g><path fill="#013f69" d="M 12.726562 6.152344 C 12.796875 6.136719 12.867188 6.125 12.9375 6.113281 C 12.949219 6.109375 12.960938 6.109375 12.972656 6.105469 C 13.035156 6.09375 13.097656 6.085938 13.164062 6.074219 C 13.179688 6.070312 13.195312 6.070312 13.210938 6.066406 C 13.273438 6.058594 13.332031 6.046875 13.390625 6.039062 C 13.40625 6.035156 13.425781 6.035156 13.445312 6.03125 C 13.503906 6.023438 13.566406 6.015625 13.625 6.007812 C 13.640625 6.003906 13.65625 6.003906 13.671875 6 C 13.738281 5.992188 13.804688 5.984375 13.871094 5.980469 C 13.878906 5.976562 13.886719 5.976562 13.894531 5.976562 C 14.363281 5.925781 14.832031 5.902344 15.300781 5.902344 C 16.488281 5.902344 17.699219 6.0625 18.90625 6.382812 L 18.90625 4.5 C 17.652344 4.019531 16.417969 3.777344 15.230469 3.777344 C 15.171875 3.777344 15.113281 3.777344 15.050781 3.78125 C 13.949219 3.8125 12.835938 4.050781 11.746094 4.496094 L 11.746094 6.378906 C 12.070312 6.292969 12.394531 6.214844 12.722656 6.152344 C 12.722656 6.152344 12.722656 6.152344 12.726562 6.152344 Z M 12.726562 6.152344 " fill-opacity="1" fill-rule="nonzero"/><path fill="#013f69" d="M 12.5 11.980469 C 13.03125 12.90625 13.960938 14.007812 15.339844 14.007812 C 17.847656 14.007812 19.214844 10.285156 19.214844 8.371094 C 19.214844 7.835938 19.105469 7.324219 18.886719 6.839844 C 17.683594 6.515625 16.472656 6.347656 15.289062 6.347656 C 14.855469 6.347656 14.421875 6.371094 13.992188 6.414062 C 13.980469 6.414062 13.972656 6.417969 13.964844 6.417969 C 13.90625 6.421875 13.847656 6.429688 13.789062 6.4375 C 13.769531 6.441406 13.75 6.441406 13.730469 6.445312 C 13.679688 6.449219 13.628906 6.457031 13.574219 6.464844 C 13.550781 6.46875 13.527344 6.46875 13.503906 6.472656 C 13.453125 6.480469 13.402344 6.488281 13.351562 6.496094 C 13.328125 6.5 13.304688 6.503906 13.28125 6.507812 C 13.230469 6.515625 13.175781 6.523438 13.125 6.53125 C 13.105469 6.535156 13.085938 6.539062 13.066406 6.542969 C 13.007812 6.554688 12.949219 6.5625 12.890625 6.574219 C 12.882812 6.578125 12.871094 6.578125 12.859375 6.582031 C 12.503906 6.648438 12.148438 6.730469 11.796875 6.832031 C 11.578125 7.308594 11.46875 7.824219 11.46875 8.371094 C 11.46875 9.480469 11.871094 10.898438 12.5 11.980469 Z M 12.5 11.980469 " fill-opacity="1" fill-rule="nonzero"/><path fill="#013f69" d="M 6.324219 14.660156 L 7.019531 15.324219 L 7.019531 13.660156 C 6.78125 13.757812 6.523438 13.8125 6.261719 13.828125 C 6.257812 13.828125 6.253906 13.828125 6.25 13.828125 C 6.210938 13.832031 6.167969 13.832031 6.128906 13.832031 C 6.089844 13.832031 6.050781 13.832031 6.011719 13.828125 C 6.007812 13.828125 6.003906 13.828125 6 13.828125 C 5.734375 13.8125 5.480469 13.757812 5.242188 13.660156 L 5.242188 15.347656 L 6.015625 14.65625 C 6.101562 14.578125 6.238281 14.578125 6.324219 14.660156 Z M 6.324219 14.660156 " fill-opacity="1" fill-rule="nonzero"/><path fill="#013f69" d="M 6.128906 12.296875 C 6.550781 12.296875 6.894531 11.960938 6.894531 11.542969 C 6.894531 11.128906 6.550781 10.792969 6.128906 10.792969 C 5.710938 10.792969 5.367188 11.128906 5.367188 11.542969 C 5.367188 11.960938 5.710938 12.296875 6.128906 12.296875 Z M 6.128906 12.296875 " fill-opacity="1" fill-rule="nonzero"/><g clip-path="url(#612c3e9983)"><path fill="#013f69" d="M 20.785156 27.257812 C 20.597656 26.898438 20.433594 26.503906 20.296875 26.085938 C 19.691406 26.207031 19.089844 26.359375 18.484375 26.550781 C 19.332031 27.5625 20.496094 28.304688 21.824219 28.636719 C 21.4375 28.300781 21.085938 27.835938 20.785156 27.257812 Z M 20.785156 27.257812 " fill-opacity="1" fill-rule="nonzero"/></g><g clip-path="url(#26699581c9)"><path fill="#013f69" d="M 25.964844 27.257812 C 25.660156 27.835938 25.308594 28.300781 24.925781 28.636719 C 26.253906 28.308594 27.417969 27.5625 28.269531 26.550781 C 27.664062 26.359375 27.058594 26.203125 26.453125 26.082031 C 26.3125 26.5 26.152344 26.894531 25.964844 27.257812 Z M 25.964844 27.257812 " fill-opacity="1" fill-rule="nonzero"/></g><path fill="#013f69" d="M 26.523438 22.800781 L 23.601562 22.800781 L 23.601562 25.332031 C 24.449219 25.34375 25.292969 25.421875 26.136719 25.566406 C 26.371094 24.722656 26.503906 23.78125 26.523438 22.800781 Z M 26.523438 22.800781 " fill-opacity="1" fill-rule="nonzero"/><g clip-path="url(#6116fdaf9a)"><path fill="#013f69" d="M 26.003906 25.996094 C 25.203125 25.863281 24.402344 25.789062 23.601562 25.777344 L 23.601562 28.808594 C 24.332031 28.703125 25.019531 28.089844 25.5625 27.050781 C 25.730469 26.726562 25.878906 26.375 26.003906 25.996094 Z M 26.003906 25.996094 " fill-opacity="1" fill-rule="nonzero"/></g><path fill="#013f69" d="M 26.128906 19.5625 C 25.289062 19.707031 24.445312 19.785156 23.601562 19.796875 L 23.601562 22.355469 L 26.523438 22.355469 C 26.503906 21.363281 26.371094 20.414062 26.128906 19.5625 Z M 26.128906 19.5625 " fill-opacity="1" fill-rule="nonzero"/><g clip-path="url(#fc960b2637)"><path fill="#013f69" d="M 21.1875 27.050781 C 21.730469 28.089844 22.417969 28.703125 23.148438 28.808594 L 23.148438 25.777344 C 22.347656 25.792969 21.546875 25.863281 20.746094 26 C 20.871094 26.375 21.019531 26.730469 21.1875 27.050781 Z M 21.1875 27.050781 " fill-opacity="1" fill-rule="nonzero"/></g><g clip-path="url(#ace1e82eb9)"><path fill="#013f69" d="M 26.582031 25.652344 C 27.242188 25.785156 27.902344 25.960938 28.558594 26.175781 C 29.25 25.214844 29.671875 24.054688 29.714844 22.800781 L 26.972656 22.800781 C 26.957031 23.808594 26.824219 24.777344 26.582031 25.652344 Z M 26.582031 25.652344 " fill-opacity="1" fill-rule="nonzero"/></g><g clip-path="url(#a15f4f6728)"><path fill="#013f69" d="M 26.972656 22.355469 L 29.714844 22.355469 C 29.667969 21.09375 29.242188 19.921875 28.542969 18.957031 C 27.890625 19.171875 27.234375 19.347656 26.574219 19.480469 C 26.820312 20.359375 26.957031 21.335938 26.972656 22.355469 Z M 26.972656 22.355469 " fill-opacity="1" fill-rule="nonzero"/></g><path fill="#013f69" d="M 20.613281 25.570312 C 21.457031 25.425781 22.304688 25.34375 23.148438 25.332031 L 23.148438 22.800781 L 20.226562 22.800781 C 20.242188 23.785156 20.375 24.726562 20.613281 25.570312 Z M 20.613281 25.570312 " fill-opacity="1" fill-rule="nonzero"/><path fill="#013f69" d="M 25.5625 18.101562 C 25.019531 17.066406 24.332031 16.449219 23.601562 16.34375 L 23.601562 19.351562 C 24.398438 19.339844 25.199219 19.269531 25.996094 19.132812 C 25.871094 18.765625 25.726562 18.417969 25.5625 18.101562 Z M 25.5625 18.101562 " fill-opacity="1" fill-rule="nonzero"/><path fill="#013f69" d="M 25.964844 17.898438 C 26.148438 18.25 26.308594 18.636719 26.445312 19.050781 C 27.046875 18.929688 27.652344 18.777344 28.25 18.585938 C 27.402344 17.582031 26.246094 16.847656 24.925781 16.519531 C 25.308594 16.855469 25.660156 17.316406 25.964844 17.898438 Z M 25.964844 17.898438 " fill-opacity="1" fill-rule="nonzero"/><path fill="#013f69" d="M 21.1875 18.101562 C 21.023438 18.417969 20.878906 18.761719 20.753906 19.128906 C 21.550781 19.265625 22.351562 19.339844 23.148438 19.351562 L 23.148438 16.34375 C 22.417969 16.449219 21.730469 17.066406 21.1875 18.101562 Z M 21.1875 18.101562 " fill-opacity="1" fill-rule="nonzero"/><path fill="#013f69" d="M 20.226562 22.355469 L 23.148438 22.355469 L 23.148438 19.796875 C 22.304688 19.785156 21.460938 19.707031 20.621094 19.558594 C 20.378906 20.410156 20.242188 21.363281 20.226562 22.355469 Z M 20.226562 22.355469 " fill-opacity="1" fill-rule="nonzero"/><path fill="#013f69" d="M 4.757812 24.84375 C 4.757812 24.964844 4.859375 25.066406 4.984375 25.066406 L 14.652344 25.066406 C 14.777344 25.066406 14.878906 24.964844 14.878906 24.84375 C 14.878906 24.71875 14.777344 24.621094 14.652344 24.621094 L 4.984375 24.621094 C 4.859375 24.621094 4.757812 24.71875 4.757812 24.84375 Z M 4.757812 24.84375 " fill-opacity="1" fill-rule="nonzero"/><path fill="#013f69" d="M 9.550781 25.746094 L 1.917969 25.746094 C 1.792969 25.746094 1.691406 25.84375 1.691406 25.96875 C 1.691406 26.089844 1.792969 26.191406 1.917969 26.191406 L 9.550781 26.191406 C 9.675781 26.191406 9.773438 26.089844 9.773438 25.96875 C 9.773438 25.84375 9.675781 25.746094 9.550781 25.746094 Z M 9.550781 25.746094 " fill-opacity="1" fill-rule="nonzero"/><g clip-path="url(#156210673b)"><path fill="#013f69" d="M 1.136719 25.746094 L 0.183594 25.746094 C 0.0585938 25.746094 -0.0429688 25.84375 -0.0429688 25.96875 C -0.0429688 26.089844 0.0585938 26.191406 0.183594 26.191406 L 1.136719 26.191406 C 1.261719 26.191406 1.363281 26.089844 1.363281 25.96875 C 1.363281 25.84375 1.261719 25.746094 1.136719 25.746094 Z M 1.136719 25.746094 " fill-opacity="1" fill-rule="nonzero"/></g><path fill="#013f69" d="M 16.445312 25.714844 L 12.828125 25.714844 C 12.703125 25.714844 12.601562 25.8125 12.601562 25.9375 C 12.601562 26.058594 12.703125 26.160156 12.828125 26.160156 L 16.445312 26.160156 C 16.570312 26.160156 16.671875 26.058594 16.671875 25.9375 C 16.671875 25.8125 16.570312 25.714844 16.445312 25.714844 Z M 16.445312 25.714844 " fill-opacity="1" fill-rule="nonzero"/></svg>