<svg xmlns="http://www.w3.org/2000/svg" xmlns:xlink="http://www.w3.org/1999/xlink" width="40" zoomAndPan="magnify" viewBox="0 0 30 30.000001" height="40" preserveAspectRatio="xMidYMid meet" version="1.0"><defs><clipPath id="fdacfb0915"><path d="M 0.484375 13 L 29.515625 13 L 29.515625 29.03125 L 0.484375 29.03125 Z M 0.484375 13 " clip-rule="nonzero"/></clipPath><clipPath id="23e42a973c"><path d="M 2 0.90625 L 20 0.90625 L 20 9 L 2 9 Z M 2 0.90625 " clip-rule="nonzero"/></clipPath></defs><path fill="#013f69" d="M 23.730469 12.703125 L 23.730469 8.929688 C 23.730469 8.667969 23.941406 8.457031 24.199219 8.457031 L 26.058594 8.457031 C 26.3125 8.457031 26.523438 8.667969 26.523438 8.929688 L 26.523438 12.703125 L 28.382812 12.703125 L 28.382812 3.269531 C 28.382812 3.007812 28.175781 2.796875 27.917969 2.796875 L 22.335938 2.796875 C 22.082031 2.796875 21.871094 3.007812 21.871094 3.269531 L 21.871094 12.703125 Z M 23.730469 4.683594 L 26.523438 4.683594 L 26.523438 5.625 L 23.730469 5.625 Z M 23.730469 6.570312 L 26.523438 6.570312 L 26.523438 7.511719 L 23.730469 7.511719 Z M 23.730469 6.570312 " fill-opacity="1" fill-rule="nonzero"/><path fill="#013f69" d="M 24.664062 9.398438 L 25.59375 9.398438 L 25.59375 12.703125 L 24.664062 12.703125 Z M 24.664062 9.398438 " fill-opacity="1" fill-rule="nonzero"/><path fill="#013f69" d="M 6.0625 16.476562 L 6.0625 17.417969 C 6.0625 17.679688 6.273438 17.890625 6.527344 17.890625 L 15.828125 17.890625 C 16.085938 17.890625 16.292969 17.679688 16.292969 17.417969 L 16.292969 16.476562 Z M 6.0625 16.476562 " fill-opacity="1" fill-rule="nonzero"/><g clip-path="url(#fdacfb0915)"><path fill="#013f69" d="M 29.777344 13.171875 L 0.949219 13.171875 C 0.691406 13.171875 0.484375 13.382812 0.484375 13.644531 L 0.484375 15.53125 C 0.484375 15.792969 0.691406 16.003906 0.949219 16.003906 L 2.34375 16.003906 L 2.34375 28.738281 C 2.34375 29 2.550781 29.210938 2.808594 29.210938 L 4.667969 29.210938 C 4.925781 29.210938 5.132812 29 5.132812 28.738281 L 5.132812 26.382812 L 25.59375 26.382812 L 25.59375 28.738281 C 25.59375 29 25.800781 29.210938 26.058594 29.210938 L 27.917969 29.210938 C 28.175781 29.210938 28.382812 29 28.382812 28.738281 L 28.382812 16.003906 L 29.777344 16.003906 C 30.035156 16.003906 30.242188 15.792969 30.242188 15.53125 L 30.242188 13.644531 C 30.242188 13.382812 30.035156 13.171875 29.777344 13.171875 Z M 20.011719 16.949219 L 21.871094 16.949219 L 21.871094 17.890625 L 20.011719 17.890625 Z M 25.59375 25.4375 L 5.132812 25.4375 L 5.132812 16.003906 L 17.222656 16.003906 L 17.222656 19.304688 C 17.222656 19.566406 17.429688 19.777344 17.6875 19.777344 L 24.199219 19.777344 C 24.453125 19.777344 24.664062 19.566406 24.664062 19.304688 L 24.664062 16.003906 L 25.59375 16.003906 Z M 25.59375 25.4375 " fill-opacity="1" fill-rule="nonzero"/></g><path fill="#013f69" d="M 2.34375 9.164062 L 2.34375 10.816406 C 2.34375 11.074219 2.550781 11.285156 2.808594 11.285156 L 9.234375 11.285156 L 9.003906 12.703125 L 12.425781 12.703125 L 12.191406 11.285156 L 18.617188 11.285156 C 18.875 11.285156 19.082031 11.074219 19.082031 10.816406 L 19.082031 9.164062 Z M 2.34375 9.164062 " fill-opacity="1" fill-rule="nonzero"/><g clip-path="url(#23e42a973c)"><path fill="#013f69" d="M 19.082031 8.691406 L 19.082031 1.378906 C 19.082031 1.121094 18.875 0.910156 18.617188 0.910156 L 2.808594 0.910156 C 2.550781 0.910156 2.34375 1.121094 2.34375 1.378906 L 2.34375 8.691406 Z M 19.082031 8.691406 " fill-opacity="1" fill-rule="nonzero"/></g></svg>