<svg xmlns="http://www.w3.org/2000/svg" xmlns:xlink="http://www.w3.org/1999/xlink" width="40" zoomAndPan="magnify" viewBox="0 0 30 30.000001" height="40" preserveAspectRatio="xMidYMid meet" version="1.0"><defs><clipPath id="bb195fad9e"><path d="M 1.574219 0 L 29.15625 0 L 29.15625 24 L 1.574219 24 Z M 1.574219 0 " clip-rule="nonzero"/></clipPath><clipPath id="e25c420196"><path d="M 7 26 L 13 26 L 13 27.582031 L 7 27.582031 Z M 7 26 " clip-rule="nonzero"/></clipPath></defs><g clip-path="url(#bb195fad9e)"><path fill="#013f69" d="M 27.144531 0.207031 C 26.996094 0.09375 26.835938 0.078125 26.667969 0.164062 C 26.5 0.246094 26.414062 0.382812 26.414062 0.570312 L 26.414062 1.484375 L 18.652344 1.484375 C 17.730469 1.484375 16.867188 1.703125 16.058594 2.140625 C 15.246094 2.578125 14.589844 3.179688 14.082031 3.949219 C 12.8125 3.21875 11.445312 2.855469 9.980469 2.855469 L 9.976562 2.855469 C 9.664062 2.855469 9.351562 2.871094 9.042969 2.90625 C 8.582031 2.957031 8.132812 3.042969 7.6875 3.171875 C 7.246094 3.296875 6.816406 3.460938 6.398438 3.660156 C 5.984375 3.859375 5.585938 4.09375 5.210938 4.359375 C 4.832031 4.625 4.480469 4.921875 4.15625 5.25 C 3.828125 5.574219 3.53125 5.925781 3.265625 6.300781 C 2.996094 6.679688 2.761719 7.074219 2.5625 7.488281 C 2.363281 7.90625 2.199219 8.335938 2.070312 8.777344 C 1.945312 9.222656 1.855469 9.671875 1.804688 10.132812 C 1.683594 11.230469 1.785156 12.308594 2.113281 13.367188 C 2.4375 14.421875 2.960938 15.371094 3.679688 16.214844 C 5.042969 17.914062 5.769531 19.855469 5.867188 22.03125 L 5.867188 23.402344 C 5.867188 23.527344 5.910156 23.636719 6 23.726562 C 6.089844 23.816406 6.199219 23.859375 6.324219 23.859375 L 13.628906 23.859375 C 13.757812 23.859375 13.863281 23.816406 13.953125 23.726562 C 14.042969 23.636719 14.085938 23.527344 14.085938 23.402344 L 14.085938 22.03125 C 14.085938 20.246094 15.070312 17.667969 16.324219 16.160156 C 17.238281 15.066406 17.816406 13.816406 18.066406 12.410156 C 18.449219 12.453125 18.832031 12.453125 19.214844 12.414062 C 19.597656 12.375 19.972656 12.296875 20.339844 12.179688 C 20.703125 12.0625 21.054688 11.90625 21.386719 11.714844 C 21.722656 11.523438 22.03125 11.300781 22.316406 11.042969 C 22.601562 10.785156 22.859375 10.5 23.085938 10.191406 C 23.3125 9.878906 23.503906 9.546875 23.660156 9.195312 C 23.816406 8.84375 23.933594 8.480469 24.015625 8.105469 C 24.09375 7.730469 24.132812 7.347656 24.132812 6.964844 C 24.132812 5.878906 23.839844 4.882812 23.246094 3.972656 L 22.480469 4.472656 C 22.882812 5.09375 23.117188 5.773438 23.1875 6.507812 L 21.847656 6.507812 L 21.847656 7.421875 L 23.195312 7.421875 C 23.144531 7.945312 23.003906 8.445312 22.777344 8.917969 C 22.550781 9.394531 22.253906 9.820312 21.878906 10.191406 C 21.507812 10.5625 21.082031 10.863281 20.609375 11.089844 C 20.132812 11.3125 19.632812 11.453125 19.109375 11.507812 L 19.109375 10.160156 L 18.195312 10.160156 L 18.195312 11.507812 C 17.671875 11.453125 17.171875 11.3125 16.699219 11.089844 C 16.222656 10.863281 15.796875 10.5625 15.425781 10.191406 C 15.054688 9.820312 14.753906 9.394531 14.527344 8.917969 C 14.304688 8.445312 14.164062 7.945312 14.109375 7.421875 L 15.457031 7.421875 L 15.457031 6.507812 L 14.109375 6.507812 C 14.164062 5.984375 14.304688 5.484375 14.527344 5.007812 C 14.753906 4.53125 15.054688 4.109375 15.425781 3.738281 C 15.796875 3.363281 16.222656 3.066406 16.699219 2.839844 C 17.171875 2.613281 17.671875 2.472656 18.195312 2.421875 L 18.195312 3.765625 L 19.109375 3.765625 L 19.109375 2.398438 L 26.414062 2.398438 L 26.414062 3.3125 C 26.414062 3.5 26.5 3.636719 26.667969 3.71875 C 26.835938 3.804688 26.996094 3.789062 27.144531 3.675781 L 28.972656 2.304688 C 29.03125 2.261719 29.074219 2.210938 29.105469 2.144531 C 29.140625 2.082031 29.15625 2.011719 29.15625 1.941406 C 29.15625 1.867188 29.140625 1.800781 29.105469 1.738281 C 29.074219 1.671875 29.03125 1.617188 28.972656 1.574219 Z M 13.171875 22.945312 L 6.78125 22.945312 L 6.78125 22.03125 L 13.171875 22.03125 Z M 17.171875 12.234375 C 16.949219 13.484375 16.433594 14.597656 15.621094 15.574219 C 14.339844 17.214844 13.546875 19.0625 13.242188 21.121094 L 11.804688 21.121094 L 11.804688 13.8125 L 12.261719 13.8125 L 12.261719 14.269531 C 12.261719 14.394531 12.304688 14.503906 12.394531 14.59375 C 12.484375 14.683594 12.589844 14.726562 12.714844 14.726562 L 14.542969 14.726562 C 14.667969 14.726562 14.777344 14.683594 14.867188 14.59375 C 14.957031 14.503906 15 14.394531 15 14.269531 L 15 12.441406 C 15 12.316406 14.957031 12.210938 14.867188 12.121094 C 14.777344 12.03125 14.667969 11.988281 14.542969 11.988281 L 12.714844 11.988281 C 12.589844 11.988281 12.484375 12.03125 12.394531 12.121094 C 12.304688 12.210938 12.261719 12.316406 12.261719 12.441406 L 12.261719 12.898438 L 11.347656 12.898438 C 11.21875 12.898438 11.113281 12.945312 11.023438 13.035156 C 10.933594 13.121094 10.890625 13.230469 10.890625 13.355469 L 10.890625 21.121094 L 10.433594 21.121094 L 10.433594 10.171875 C 10.433594 10.046875 10.390625 9.941406 10.300781 9.851562 C 10.210938 9.761719 10.101562 9.71875 9.976562 9.71875 L 9.0625 9.71875 L 9.0625 9.261719 C 9.0625 9.132812 9.019531 9.027344 8.929688 8.9375 C 8.839844 8.847656 8.734375 8.804688 8.605469 8.804688 L 6.78125 8.804688 C 6.65625 8.804688 6.546875 8.847656 6.457031 8.9375 C 6.367188 9.027344 6.324219 9.132812 6.324219 9.261719 L 6.324219 11.085938 C 6.324219 11.214844 6.367188 11.320312 6.457031 11.410156 C 6.546875 11.5 6.65625 11.542969 6.78125 11.542969 L 8.605469 11.542969 C 8.734375 11.542969 8.839844 11.5 8.929688 11.410156 C 9.019531 11.320312 9.0625 11.214844 9.0625 11.085938 L 9.0625 10.628906 L 9.519531 10.628906 L 9.519531 21.121094 L 9.0625 21.121094 L 9.0625 14.285156 C 9.0625 14.15625 9.019531 14.050781 8.929688 13.960938 C 8.839844 13.871094 8.734375 13.828125 8.605469 13.828125 L 7.695312 13.828125 L 7.695312 13.371094 C 7.695312 13.242188 7.648438 13.136719 7.558594 13.046875 C 7.472656 12.957031 7.363281 12.914062 7.238281 12.914062 L 5.410156 12.914062 C 5.285156 12.914062 5.175781 12.957031 5.085938 13.046875 C 5 13.136719 4.953125 13.242188 4.953125 13.371094 L 4.953125 15.195312 C 4.953125 15.324219 5 15.429688 5.085938 15.519531 C 5.175781 15.609375 5.285156 15.652344 5.410156 15.652344 L 7.238281 15.652344 C 7.363281 15.652344 7.472656 15.609375 7.558594 15.519531 C 7.648438 15.429688 7.695312 15.324219 7.695312 15.195312 L 7.695312 14.738281 L 8.148438 14.738281 L 8.148438 21.121094 L 6.714844 21.121094 C 6.4375 19.074219 5.660156 17.242188 4.375 15.621094 C 3.738281 14.875 3.273438 14.035156 2.984375 13.097656 C 2.695312 12.160156 2.601562 11.203125 2.710938 10.226562 C 2.800781 9.40625 3.027344 8.625 3.386719 7.878906 C 3.742188 7.136719 4.214844 6.472656 4.800781 5.890625 C 5.382812 5.308594 6.046875 4.839844 6.792969 4.480469 C 7.539062 4.125 8.320312 3.902344 9.140625 3.8125 C 9.421875 3.78125 9.71875 3.773438 9.980469 3.765625 C 11.289062 3.765625 12.511719 4.09375 13.644531 4.75 C 13.484375 5.105469 13.367188 5.476562 13.285156 5.863281 C 13.207031 6.246094 13.167969 6.636719 13.171875 7.027344 C 13.179688 7.421875 13.222656 7.808594 13.3125 8.191406 C 13.398438 8.574219 13.527344 8.941406 13.695312 9.296875 C 13.863281 9.652344 14.066406 9.984375 14.304688 10.296875 C 14.542969 10.609375 14.8125 10.890625 15.113281 11.144531 C 15.414062 11.398438 15.734375 11.617188 16.082031 11.800781 C 16.429688 11.984375 16.792969 12.128906 17.171875 12.234375 Z M 13.171875 13.8125 L 13.171875 12.898438 L 14.085938 12.898438 L 14.085938 13.8125 Z M 8.148438 9.71875 L 8.148438 10.628906 L 7.238281 10.628906 L 7.238281 9.71875 Z M 6.78125 13.828125 L 6.78125 14.738281 L 5.867188 14.738281 L 5.867188 13.828125 Z M 27.328125 2.398438 L 27.328125 1.484375 L 27.9375 1.941406 Z M 27.328125 2.398438 " fill-opacity="1" fill-rule="nonzero"/></g><path fill="#013f69" d="M 6.78125 24.773438 L 13.171875 24.773438 L 13.171875 25.6875 L 6.78125 25.6875 Z M 6.78125 24.773438 " fill-opacity="1" fill-rule="nonzero"/><g clip-path="url(#e25c420196)"><path fill="#013f69" d="M 7.695312 26.597656 L 12.261719 26.597656 L 12.261719 27.511719 L 7.695312 27.511719 Z M 7.695312 26.597656 " fill-opacity="1" fill-rule="nonzero"/></g><path fill="#013f69" d="M 17.605469 5.726562 L 16.960938 6.375 L 18.332031 7.742188 C 18.417969 7.832031 18.527344 7.875 18.652344 7.875 C 18.777344 7.875 18.886719 7.832031 18.976562 7.742188 L 21.257812 5.460938 L 20.613281 4.8125 L 18.652344 6.773438 Z M 17.605469 5.726562 " fill-opacity="1" fill-rule="nonzero"/></svg>