<svg xmlns="http://www.w3.org/2000/svg" xmlns:xlink="http://www.w3.org/1999/xlink" width="40" zoomAndPan="magnify" viewBox="0 0 30 30.000001" height="40" preserveAspectRatio="xMidYMid meet" version="1.0"><defs><clipPath id="a1af173951"><path d="M 1.425781 0.945312 L 28.28125 0.945312 L 28.28125 27.796875 L 1.425781 27.796875 Z M 1.425781 0.945312 " clip-rule="nonzero"/></clipPath><clipPath id="148945c743"><path d="M 13 5 L 28.28125 5 L 28.28125 27.796875 L 13 27.796875 Z M 13 5 " clip-rule="nonzero"/></clipPath></defs><path fill="#013f69" d="M 9.035156 2.734375 C 5.828125 2.734375 3.21875 5.34375 3.21875 8.550781 C 3.21875 11.761719 5.828125 14.371094 9.035156 14.371094 C 12.246094 14.371094 14.855469 11.761719 14.855469 8.550781 C 14.855469 5.34375 12.246094 2.734375 9.035156 2.734375 Z M 9.035156 13.476562 C 6.320312 13.476562 4.113281 11.265625 4.113281 8.550781 C 4.113281 5.835938 6.320312 3.628906 9.035156 3.628906 C 11.582031 3.628906 13.683594 5.570312 13.933594 8.050781 L 7.472656 11.746094 L 7.914062 12.523438 L 13.929688 9.085938 C 13.664062 11.550781 11.570312 13.476562 9.035156 13.476562 Z M 9.035156 13.476562 " fill-opacity="1" fill-rule="nonzero"/><g clip-path="url(#a1af173951)"><path fill="#013f69" d="M 27.835938 0.945312 L 25.148438 0.945312 L 25.148438 1.839844 L 26.753906 1.839844 L 24.164062 4.425781 L 22.664062 3.675781 C 22.5 3.59375 22.304688 3.621094 22.167969 3.742188 L 18.398438 7.09375 L 17.339844 6.390625 C 17.199219 6.296875 17.019531 6.289062 16.871094 6.375 L 16.394531 6.644531 C 15.542969 3.371094 12.574219 0.945312 9.035156 0.945312 C 4.839844 0.945312 1.425781 4.355469 1.425781 8.550781 C 1.425781 12.289062 4.136719 15.398438 7.695312 16.035156 L 7.695312 17.054688 L 6.796875 17.054688 C 6.550781 17.054688 6.351562 17.257812 6.351562 17.503906 L 6.351562 19.292969 C 6.351562 19.542969 6.550781 19.742188 6.796875 19.742188 L 6.796875 25.558594 C 6.796875 26.792969 7.800781 27.796875 9.035156 27.796875 C 10.269531 27.796875 11.273438 26.792969 11.273438 25.558594 L 11.273438 19.742188 C 11.523438 19.742188 11.722656 19.542969 11.722656 19.292969 L 11.722656 17.503906 C 11.722656 17.257812 11.523438 17.054688 11.273438 17.054688 L 10.378906 17.054688 L 10.378906 16.035156 C 13.933594 15.398438 16.644531 12.289062 16.644531 8.550781 C 16.644531 8.21875 16.617188 7.894531 16.574219 7.574219 L 17.074219 7.289062 L 18.1875 8.03125 C 18.261719 8.078125 18.347656 8.105469 18.433594 8.105469 C 18.542969 8.105469 18.648438 8.066406 18.734375 7.992188 L 22.535156 4.613281 L 24.054688 5.371094 C 24.226562 5.457031 24.433594 5.425781 24.570312 5.289062 L 27.386719 2.472656 L 27.386719 4.078125 L 28.28125 4.078125 L 28.28125 1.390625 C 28.28125 1.144531 28.082031 0.945312 27.835938 0.945312 Z M 10.378906 25.558594 C 10.378906 26.300781 9.777344 26.902344 9.035156 26.902344 C 8.296875 26.902344 7.695312 26.300781 7.695312 25.558594 L 7.695312 19.742188 L 10.378906 19.742188 Z M 10.828125 18.847656 L 7.246094 18.847656 L 7.246094 17.953125 L 10.828125 17.953125 Z M 9.484375 17.054688 L 8.589844 17.054688 L 8.589844 16.136719 C 8.738281 16.148438 8.886719 16.160156 9.035156 16.160156 C 9.1875 16.160156 9.335938 16.148438 9.484375 16.136719 Z M 9.035156 15.265625 C 5.335938 15.265625 2.324219 12.253906 2.324219 8.550781 C 2.324219 4.851562 5.335938 1.839844 9.035156 1.839844 C 12.738281 1.839844 15.75 4.851562 15.75 8.550781 C 15.75 12.253906 12.738281 15.265625 9.035156 15.265625 Z M 9.035156 15.265625 " fill-opacity="1" fill-rule="nonzero"/></g><g clip-path="url(#148945c743)"><path fill="#013f69" d="M 27.835938 5.867188 L 24.253906 5.867188 C 24.007812 5.867188 23.804688 6.066406 23.804688 6.316406 L 23.804688 10.789062 L 20.671875 10.789062 C 20.425781 10.789062 20.226562 10.992188 20.226562 11.238281 L 20.226562 13.027344 L 17.09375 13.027344 C 16.84375 13.027344 16.644531 13.226562 16.644531 13.476562 L 16.644531 18.847656 L 13.511719 18.847656 C 13.265625 18.847656 13.066406 19.046875 13.066406 19.292969 L 13.066406 27.351562 C 13.066406 27.597656 13.265625 27.796875 13.511719 27.796875 L 27.835938 27.796875 C 28.082031 27.796875 28.28125 27.597656 28.28125 27.351562 L 28.28125 6.316406 C 28.28125 6.066406 28.082031 5.867188 27.835938 5.867188 Z M 13.960938 19.742188 L 16.644531 19.742188 L 16.644531 26.902344 L 13.960938 26.902344 Z M 17.539062 19.292969 L 17.539062 13.921875 L 20.226562 13.921875 L 20.226562 26.902344 L 17.539062 26.902344 Z M 21.121094 13.476562 L 21.121094 11.683594 L 23.804688 11.683594 L 23.804688 26.902344 L 21.121094 26.902344 Z M 27.386719 26.902344 L 24.703125 26.902344 L 24.703125 6.761719 L 27.386719 6.761719 Z M 27.386719 26.902344 " fill-opacity="1" fill-rule="nonzero"/></g></svg>