<svg xmlns="http://www.w3.org/2000/svg" xmlns:xlink="http://www.w3.org/1999/xlink" width="40" zoomAndPan="magnify" viewBox="0 0 30 30.000001" height="40" preserveAspectRatio="xMidYMid meet" version="1.0"><defs><clipPath id="2026e4a798"><path d="M 23 12 L 29.316406 12 L 29.316406 19 L 23 19 Z M 23 12 " clip-rule="nonzero"/></clipPath><clipPath id="da83c1e311"><path d="M 1.011719 16 L 12 16 L 12 29 L 1.011719 29 Z M 1.011719 16 " clip-rule="nonzero"/></clipPath></defs><path fill="#013f69" d="M 17.734375 22.367188 L 24.359375 15.824219 L 25.828125 17.28125 L 19.207031 23.824219 Z M 17.734375 22.367188 " fill-opacity="1" fill-rule="nonzero"/><path fill="#013f69" d="M 16.652344 22.742188 L 15.746094 21.847656 L 14.707031 24.890625 C 15.164062 25.039062 15.566406 25.285156 15.902344 25.625 C 16.238281 25.96875 16.476562 26.371094 16.621094 26.824219 L 19.703125 25.796875 L 18.824219 24.925781 Z M 16.652344 22.742188 " fill-opacity="1" fill-rule="nonzero"/><path fill="#013f69" d="M 14.363281 25.878906 L 13.699219 27.808594 L 15.652344 27.152344 C 15.433594 26.519531 15.003906 26.09375 14.363281 25.878906 Z M 14.363281 25.878906 " fill-opacity="1" fill-rule="nonzero"/><g clip-path="url(#2026e4a798)"><path fill="#013f69" d="M 29.140625 16.1875 L 25.46875 12.550781 C 25.367188 12.453125 25.242188 12.402344 25.101562 12.402344 C 24.957031 12.402344 24.835938 12.453125 24.734375 12.550781 L 23.621094 13.640625 L 24.722656 14.738281 L 28.03125 18.007812 L 29.140625 16.917969 C 29.242188 16.816406 29.296875 16.695312 29.296875 16.550781 C 29.296875 16.410156 29.242188 16.289062 29.140625 16.1875 Z M 29.140625 16.1875 " fill-opacity="1" fill-rule="nonzero"/></g><path fill="#013f69" d="M 19.941406 24.546875 L 26.5625 18.003906 L 27.296875 18.726562 L 20.671875 25.269531 Z M 19.941406 24.546875 " fill-opacity="1" fill-rule="nonzero"/><path fill="#013f69" d="M 16.261719 20.914062 L 22.886719 14.371094 L 23.621094 15.097656 L 17 21.640625 Z M 16.261719 20.914062 " fill-opacity="1" fill-rule="nonzero"/><g clip-path="url(#da83c1e311)"><path fill="#013f69" d="M 10.898438 27.882812 L 2.050781 27.882812 L 2.050781 25.824219 L 6.734375 25.824219 C 6.878906 25.824219 7 25.777344 7.101562 25.675781 C 7.203125 25.574219 7.253906 25.453125 7.253906 25.3125 L 7.253906 22.226562 C 7.253906 22.085938 7.203125 21.964844 7.101562 21.863281 C 7 21.761719 6.878906 21.714844 6.734375 21.714844 L 2.050781 21.714844 L 2.050781 19.65625 L 9.859375 19.65625 C 10 19.65625 10.125 19.605469 10.226562 19.507812 C 10.328125 19.40625 10.378906 19.285156 10.378906 19.144531 L 10.378906 17.085938 C 10.378906 16.945312 10.328125 16.824219 10.226562 16.722656 C 10.125 16.621094 10 16.574219 9.859375 16.574219 C 9.714844 16.574219 9.589844 16.621094 9.488281 16.722656 C 9.386719 16.824219 9.335938 16.945312 9.335938 17.085938 L 9.335938 18.628906 L 1.53125 18.628906 C 1.386719 18.628906 1.265625 18.679688 1.164062 18.78125 C 1.0625 18.878906 1.011719 19 1.011719 19.144531 L 1.011719 22.226562 C 1.011719 22.371094 1.0625 22.492188 1.164062 22.589844 C 1.265625 22.691406 1.386719 22.742188 1.53125 22.742188 L 6.214844 22.742188 L 6.214844 24.796875 L 1.53125 24.796875 C 1.386719 24.796875 1.265625 24.847656 1.164062 24.949219 C 1.0625 25.046875 1.011719 25.171875 1.011719 25.3125 L 1.011719 28.394531 C 1.011719 28.539062 1.0625 28.660156 1.164062 28.761719 C 1.265625 28.859375 1.386719 28.910156 1.53125 28.910156 L 10.898438 28.910156 C 11.042969 28.910156 11.164062 28.859375 11.265625 28.761719 C 11.367188 28.660156 11.417969 28.539062 11.417969 28.394531 C 11.417969 28.253906 11.367188 28.132812 11.265625 28.03125 C 11.164062 27.933594 11.042969 27.882812 10.898438 27.882812 Z M 10.898438 27.882812 " fill-opacity="1" fill-rule="nonzero"/></g><path fill="#013f69" d="M 11.859375 4.832031 C 11.398438 4.53125 10.894531 4.339844 10.347656 4.265625 C 9.800781 4.191406 9.265625 4.238281 8.738281 4.402344 C 8.398438 4.507812 8.078125 4.660156 7.785156 4.859375 C 7.488281 5.058594 7.226562 5.292969 7.003906 5.566406 C 6.777344 5.84375 6.597656 6.144531 6.464844 6.46875 C 6.332031 6.796875 6.246094 7.136719 6.214844 7.488281 C 6.160156 8.109375 6.261719 8.707031 6.515625 9.277344 C 6.773438 9.847656 7.152344 10.320312 7.65625 10.695312 C 8.085938 11.003906 8.296875 11.421875 8.296875 11.945312 L 8.296875 12.460938 L 11.417969 12.460938 L 11.417969 11.945312 C 11.421875 11.433594 11.628906 11.023438 12.042969 10.71875 C 12.277344 10.542969 12.484375 10.347656 12.671875 10.121094 C 12.855469 9.898438 13.011719 9.660156 13.136719 9.398438 C 13.265625 9.136719 13.359375 8.867188 13.417969 8.585938 C 13.480469 8.304688 13.503906 8.019531 13.496094 7.730469 C 13.488281 7.441406 13.445312 7.160156 13.367188 6.878906 C 13.289062 6.601562 13.179688 6.335938 13.035156 6.085938 C 12.894531 5.835938 12.722656 5.601562 12.523438 5.390625 C 12.324219 5.179688 12.105469 4.996094 11.859375 4.835938 Z M 11.9375 8.347656 C 11.796875 8.347656 11.671875 8.296875 11.570312 8.195312 C 11.46875 8.097656 11.417969 7.976562 11.417969 7.832031 C 11.417969 7.628906 11.378906 7.433594 11.300781 7.242188 C 11.21875 7.054688 11.109375 6.886719 10.960938 6.742188 C 10.816406 6.597656 10.644531 6.488281 10.453125 6.40625 C 10.261719 6.328125 10.066406 6.289062 9.859375 6.289062 C 9.714844 6.289062 9.589844 6.242188 9.488281 6.140625 C 9.386719 6.039062 9.335938 5.917969 9.335938 5.777344 C 9.335938 5.632812 9.386719 5.511719 9.488281 5.414062 C 9.589844 5.3125 9.714844 5.261719 9.859375 5.261719 C 10.203125 5.261719 10.535156 5.328125 10.851562 5.457031 C 11.171875 5.589844 11.453125 5.773438 11.695312 6.015625 C 11.941406 6.257812 12.128906 6.535156 12.261719 6.847656 C 12.394531 7.164062 12.460938 7.492188 12.460938 7.832031 C 12.460938 7.976562 12.410156 8.097656 12.308594 8.195312 C 12.207031 8.296875 12.082031 8.347656 11.9375 8.347656 Z M 11.9375 8.347656 " fill-opacity="1" fill-rule="nonzero"/><path fill="#013f69" d="M 8.296875 14.003906 C 8.296875 14.144531 8.347656 14.265625 8.449219 14.367188 C 8.550781 14.464844 8.671875 14.515625 8.816406 14.515625 L 10.898438 14.515625 C 11.042969 14.515625 11.164062 14.464844 11.265625 14.367188 C 11.367188 14.265625 11.417969 14.144531 11.417969 14.003906 L 11.417969 13.488281 L 8.296875 13.488281 Z M 8.296875 14.003906 " fill-opacity="1" fill-rule="nonzero"/><path fill="#013f69" d="M 9.859375 2.179688 C 10 2.179688 10.125 2.128906 10.226562 2.027344 C 10.328125 1.925781 10.378906 1.804688 10.378906 1.664062 L 10.378906 0.636719 C 10.378906 0.492188 10.328125 0.371094 10.226562 0.273438 C 10.125 0.171875 10 0.121094 9.859375 0.121094 C 9.714844 0.121094 9.589844 0.171875 9.488281 0.273438 C 9.386719 0.371094 9.335938 0.492188 9.335938 0.636719 L 9.335938 1.664062 C 9.335938 1.804688 9.386719 1.925781 9.488281 2.027344 C 9.589844 2.128906 9.714844 2.179688 9.859375 2.179688 Z M 9.859375 2.179688 " fill-opacity="1" fill-rule="nonzero"/><path fill="#013f69" d="M 5.074219 3.832031 C 5.175781 3.933594 5.300781 3.984375 5.441406 3.984375 C 5.585938 3.984375 5.707031 3.933594 5.808594 3.832031 C 5.910156 3.734375 5.960938 3.613281 5.960938 3.472656 C 5.960938 3.328125 5.910156 3.207031 5.808594 3.109375 L 5.074219 2.378906 C 4.972656 2.277344 4.851562 2.226562 4.707031 2.226562 C 4.5625 2.226562 4.4375 2.277344 4.335938 2.378906 C 4.234375 2.480469 4.183594 2.601562 4.183594 2.742188 C 4.183594 2.886719 4.234375 3.007812 4.335938 3.109375 Z M 5.074219 3.832031 " fill-opacity="1" fill-rule="nonzero"/><path fill="#013f69" d="M 2.574219 8.347656 L 3.613281 8.347656 C 3.757812 8.347656 3.878906 8.296875 3.980469 8.195312 C 4.082031 8.097656 4.132812 7.976562 4.132812 7.832031 C 4.132812 7.691406 4.082031 7.570312 3.980469 7.46875 C 3.878906 7.367188 3.757812 7.320312 3.613281 7.320312 L 2.574219 7.320312 C 2.429688 7.320312 2.304688 7.367188 2.203125 7.46875 C 2.101562 7.570312 2.050781 7.691406 2.050781 7.832031 C 2.050781 7.976562 2.101562 8.097656 2.203125 8.195312 C 2.304688 8.296875 2.429688 8.347656 2.574219 8.347656 Z M 2.574219 8.347656 " fill-opacity="1" fill-rule="nonzero"/><path fill="#013f69" d="M 4.707031 13.4375 C 4.851562 13.4375 4.972656 13.386719 5.074219 13.289062 L 5.808594 12.558594 C 5.925781 12.460938 5.984375 12.335938 5.992188 12.1875 C 5.996094 12.039062 5.945312 11.910156 5.839844 11.804688 C 5.730469 11.699219 5.601562 11.648438 5.449219 11.652344 C 5.300781 11.660156 5.175781 11.71875 5.074219 11.832031 L 4.335938 12.558594 C 4.234375 12.65625 4.183594 12.78125 4.183594 12.921875 C 4.183594 13.066406 4.234375 13.1875 4.335938 13.289062 C 4.4375 13.386719 4.5625 13.4375 4.707031 13.4375 Z M 4.707031 13.4375 " fill-opacity="1" fill-rule="nonzero"/><path fill="#013f69" d="M 14.640625 13.289062 C 14.742188 13.390625 14.863281 13.441406 15.007812 13.441406 C 15.152344 13.441406 15.277344 13.390625 15.378906 13.289062 C 15.480469 13.1875 15.53125 13.066406 15.53125 12.921875 C 15.53125 12.78125 15.480469 12.65625 15.378906 12.558594 L 14.640625 11.832031 C 14.539062 11.71875 14.414062 11.660156 14.265625 11.652344 C 14.113281 11.648438 13.984375 11.699219 13.875 11.804688 C 13.769531 11.910156 13.71875 12.039062 13.722656 12.1875 C 13.730469 12.335938 13.789062 12.460938 13.90625 12.558594 Z M 14.640625 13.289062 " fill-opacity="1" fill-rule="nonzero"/><path fill="#013f69" d="M 16.101562 8.347656 L 17.140625 8.347656 C 17.285156 8.347656 17.410156 8.296875 17.511719 8.195312 C 17.613281 8.097656 17.664062 7.976562 17.664062 7.832031 C 17.664062 7.691406 17.613281 7.570312 17.511719 7.46875 C 17.410156 7.367188 17.285156 7.320312 17.140625 7.320312 L 16.101562 7.320312 C 15.957031 7.320312 15.835938 7.367188 15.734375 7.46875 C 15.632812 7.570312 15.582031 7.691406 15.582031 7.832031 C 15.582031 7.976562 15.632812 8.097656 15.734375 8.195312 C 15.835938 8.296875 15.957031 8.347656 16.101562 8.347656 Z M 16.101562 8.347656 " fill-opacity="1" fill-rule="nonzero"/><path fill="#013f69" d="M 14.273438 3.984375 C 14.417969 3.980469 14.539062 3.933594 14.640625 3.832031 L 15.378906 3.109375 C 15.480469 3.007812 15.53125 2.886719 15.53125 2.742188 C 15.53125 2.601562 15.480469 2.480469 15.378906 2.378906 C 15.277344 2.277344 15.152344 2.226562 15.007812 2.226562 C 14.863281 2.226562 14.742188 2.277344 14.640625 2.378906 L 13.90625 3.109375 C 13.804688 3.207031 13.753906 3.328125 13.753906 3.472656 C 13.753906 3.613281 13.804688 3.734375 13.90625 3.832031 C 14.007812 3.933594 14.132812 3.984375 14.273438 3.984375 Z M 14.273438 3.984375 " fill-opacity="1" fill-rule="nonzero"/></svg>