<svg xmlns="http://www.w3.org/2000/svg" xmlns:xlink="http://www.w3.org/1999/xlink" width="40" zoomAndPan="magnify" viewBox="0 0 30 30.000001" height="40" preserveAspectRatio="xMidYMid meet" version="1.0"><defs><clipPath id="0eb0e03048"><path d="M 7 12 L 21 12 L 21 25.414062 L 7 25.414062 Z M 7 12 " clip-rule="nonzero"/></clipPath><clipPath id="fec5b3f42f"><path d="M 0.484375 3.640625 L 13 3.640625 L 13 17 L 0.484375 17 Z M 0.484375 3.640625 " clip-rule="nonzero"/></clipPath><clipPath id="e1607481be"><path d="M 17 5 L 29.515625 5 L 29.515625 19 L 17 19 Z M 17 5 " clip-rule="nonzero"/></clipPath></defs><g clip-path="url(#0eb0e03048)"><path fill="#013f69" d="M 13.914062 22.976562 C 11.8125 22.976562 10.105469 21.269531 10.105469 19.167969 C 10.105469 17.066406 11.8125 15.355469 13.914062 15.355469 C 16.011719 15.355469 17.71875 17.066406 17.71875 19.167969 C 17.71875 21.269531 16.011719 22.976562 13.914062 22.976562 Z M 19.871094 17.007812 L 18.226562 17.164062 C 18.105469 16.90625 17.964844 16.660156 17.800781 16.425781 L 18.761719 15.078125 C 18.527344 14.800781 18.273438 14.546875 17.996094 14.3125 L 16.648438 15.273438 C 16.417969 15.109375 16.171875 14.96875 15.914062 14.847656 L 16.070312 13.199219 C 15.734375 13.078125 15.386719 12.984375 15.027344 12.917969 L 14.335938 14.425781 C 14.199219 14.410156 14.054688 14.402344 13.914062 14.402344 C 13.769531 14.402344 13.628906 14.410156 13.488281 14.425781 L 12.800781 12.917969 C 12.441406 12.984375 12.09375 13.078125 11.757812 13.199219 L 11.914062 14.847656 C 11.652344 14.96875 11.40625 15.109375 11.175781 15.273438 L 9.828125 14.3125 C 9.550781 14.546875 9.296875 14.800781 9.0625 15.078125 L 10.023438 16.425781 C 9.859375 16.660156 9.71875 16.90625 9.597656 17.164062 L 7.953125 17.007812 C 7.832031 17.34375 7.734375 17.691406 7.671875 18.050781 L 9.175781 18.742188 C 9.164062 18.882812 9.152344 19.023438 9.152344 19.167969 C 9.152344 19.308594 9.164062 19.453125 9.175781 19.59375 L 7.671875 20.28125 C 7.734375 20.640625 7.832031 20.988281 7.953125 21.324219 L 9.597656 21.167969 C 9.71875 21.429688 9.859375 21.675781 10.023438 21.90625 L 9.0625 23.253906 C 9.296875 23.53125 9.550781 23.789062 9.828125 24.019531 L 11.175781 23.058594 C 11.40625 23.222656 11.652344 23.363281 11.914062 23.484375 L 11.757812 25.132812 C 12.09375 25.253906 12.441406 25.351562 12.800781 25.414062 L 13.488281 23.910156 C 13.628906 23.921875 13.769531 23.929688 13.914062 23.929688 C 14.054688 23.929688 14.199219 23.921875 14.335938 23.910156 L 15.027344 25.414062 C 15.386719 25.351562 15.734375 25.253906 16.070312 25.132812 L 15.914062 23.484375 C 16.171875 23.363281 16.417969 23.222656 16.648438 23.058594 L 17.996094 24.019531 C 18.273438 23.789062 18.527344 23.53125 18.761719 23.253906 L 17.800781 21.90625 C 17.964844 21.675781 18.105469 21.429688 18.226562 21.167969 L 19.871094 21.324219 C 19.992188 20.988281 20.089844 20.640625 20.152344 20.28125 L 18.648438 19.59375 C 18.660156 19.453125 18.671875 19.308594 18.671875 19.167969 C 18.671875 19.023438 18.660156 18.882812 18.648438 18.742188 L 20.152344 18.050781 C 20.089844 17.691406 19.992188 17.34375 19.871094 17.007812 " fill-opacity="1" fill-rule="nonzero"/></g><path fill="#013f69" d="M 13.914062 21.070312 C 12.863281 21.070312 12.007812 20.21875 12.007812 19.167969 C 12.007812 18.117188 12.863281 17.261719 13.914062 17.261719 C 14.960938 17.261719 15.816406 18.117188 15.816406 19.167969 C 15.816406 20.21875 14.960938 21.070312 13.914062 21.070312 Z M 13.914062 15.992188 C 12.164062 15.992188 10.738281 17.414062 10.738281 19.167969 C 10.738281 20.917969 12.164062 22.34375 13.914062 22.34375 C 15.660156 22.34375 17.085938 20.917969 17.085938 19.167969 C 17.085938 17.414062 15.660156 15.992188 13.914062 15.992188 " fill-opacity="1" fill-rule="nonzero"/><g clip-path="url(#fec5b3f42f)"><path fill="#013f69" d="M 6.722656 13.699219 C 4.625 13.699219 2.917969 11.992188 2.917969 9.890625 C 2.917969 7.789062 4.625 6.078125 6.722656 6.078125 C 8.824219 6.078125 10.53125 7.789062 10.53125 9.890625 C 10.53125 11.992188 8.824219 13.699219 6.722656 13.699219 Z M 8.882812 15.855469 L 8.722656 14.207031 C 8.984375 14.085938 9.230469 13.945312 9.460938 13.78125 L 10.808594 14.742188 C 11.085938 14.511719 11.339844 14.253906 11.574219 13.976562 L 10.613281 12.628906 C 10.777344 12.398438 10.917969 12.152344 11.039062 11.890625 L 12.683594 12.046875 C 12.804688 11.710938 12.902344 11.363281 12.964844 11.003906 L 11.460938 10.316406 C 11.472656 10.175781 11.484375 10.03125 11.484375 9.890625 C 11.484375 9.746094 11.472656 9.605469 11.460938 9.464844 L 12.964844 8.773438 C 12.902344 8.414062 12.804688 8.066406 12.683594 7.730469 L 11.039062 7.886719 C 10.917969 7.628906 10.777344 7.382812 10.613281 7.148438 L 11.574219 5.800781 C 11.339844 5.523438 11.085938 5.269531 10.808594 5.035156 L 9.460938 5.996094 C 9.230469 5.832031 8.984375 5.691406 8.722656 5.570312 L 8.882812 3.921875 C 8.542969 3.800781 8.195312 3.707031 7.835938 3.640625 L 7.148438 5.148438 C 7.007812 5.132812 6.867188 5.125 6.722656 5.125 C 6.582031 5.125 6.441406 5.132812 6.300781 5.148438 L 5.613281 3.640625 C 5.253906 3.707031 4.902344 3.800781 4.566406 3.921875 L 4.722656 5.570312 C 4.464844 5.691406 4.21875 5.832031 3.988281 5.996094 L 2.640625 5.035156 C 2.363281 5.269531 2.109375 5.523438 1.875 5.800781 L 2.835938 7.148438 C 2.671875 7.382812 2.53125 7.628906 2.410156 7.886719 L 0.765625 7.730469 C 0.644531 8.066406 0.546875 8.414062 0.484375 8.773438 L 1.988281 9.464844 C 1.976562 9.605469 1.964844 9.746094 1.964844 9.890625 C 1.964844 10.03125 1.976562 10.175781 1.988281 10.316406 L 0.484375 11.003906 C 0.546875 11.363281 0.644531 11.710938 0.765625 12.046875 L 2.410156 11.890625 C 2.53125 12.152344 2.671875 12.398438 2.835938 12.628906 L 1.875 13.976562 C 2.109375 14.253906 2.363281 14.511719 2.640625 14.742188 L 3.988281 13.78125 C 4.21875 13.945312 4.464844 14.085938 4.722656 14.207031 L 4.566406 15.855469 C 4.902344 15.976562 5.253906 16.074219 5.613281 16.136719 L 6.300781 14.632812 C 6.441406 14.644531 6.582031 14.652344 6.722656 14.652344 C 6.867188 14.652344 7.007812 14.644531 7.148438 14.632812 L 7.835938 16.136719 C 8.195312 16.074219 8.542969 15.976562 8.882812 15.855469 " fill-opacity="1" fill-rule="nonzero"/></g><path fill="#013f69" d="M 6.726562 11.160156 C 6.023438 11.160156 5.457031 10.589844 5.457031 9.890625 C 5.457031 9.1875 6.023438 8.617188 6.726562 8.617188 C 7.425781 8.617188 7.992188 9.1875 7.992188 9.890625 C 7.992188 10.589844 7.425781 11.160156 6.726562 11.160156 Z M 6.726562 7.984375 C 5.675781 7.984375 4.820312 8.839844 4.820312 9.890625 C 4.820312 10.941406 5.675781 11.792969 6.726562 11.792969 C 7.773438 11.792969 8.628906 10.941406 8.628906 9.890625 C 8.628906 8.839844 7.773438 7.984375 6.726562 7.984375 " fill-opacity="1" fill-rule="nonzero"/><g clip-path="url(#e1607481be)"><path fill="#013f69" d="M 23.273438 15.816406 C 21.175781 15.816406 19.46875 14.105469 19.46875 12.003906 C 19.46875 9.90625 21.175781 8.195312 23.273438 8.195312 C 25.375 8.195312 27.082031 9.90625 27.082031 12.003906 C 27.082031 14.105469 25.375 15.816406 23.273438 15.816406 Z M 28.035156 12.003906 C 28.035156 11.863281 28.023438 11.71875 28.011719 11.578125 L 29.515625 10.890625 C 29.453125 10.53125 29.355469 10.183594 29.234375 9.847656 L 27.589844 10.003906 C 27.46875 9.746094 27.328125 9.496094 27.164062 9.265625 L 28.125 7.917969 C 27.890625 7.640625 27.636719 7.386719 27.359375 7.152344 L 26.011719 8.113281 C 25.78125 7.949219 25.535156 7.808594 25.273438 7.6875 L 25.433594 6.039062 C 25.097656 5.917969 24.746094 5.820312 24.386719 5.757812 L 23.699219 7.261719 C 23.558594 7.25 23.417969 7.242188 23.273438 7.242188 C 23.132812 7.242188 22.992188 7.25 22.851562 7.261719 L 22.164062 5.757812 C 21.804688 5.820312 21.453125 5.917969 21.117188 6.039062 L 21.273438 7.6875 C 21.015625 7.808594 20.769531 7.949219 20.539062 8.113281 L 19.191406 7.152344 C 18.914062 7.386719 18.660156 7.640625 18.425781 7.917969 L 19.386719 9.265625 C 19.222656 9.496094 19.082031 9.746094 18.960938 10.003906 L 17.316406 9.847656 C 17.195312 10.183594 17.097656 10.53125 17.035156 10.890625 L 18.539062 11.578125 C 18.527344 11.71875 18.515625 11.863281 18.515625 12.003906 C 18.515625 12.148438 18.527344 12.289062 18.539062 12.429688 L 17.035156 13.121094 C 17.097656 13.480469 17.195312 13.828125 17.316406 14.164062 L 18.960938 14.007812 C 19.082031 14.265625 19.222656 14.511719 19.386719 14.746094 L 18.425781 16.09375 C 18.660156 16.371094 18.914062 16.625 19.191406 16.859375 L 20.539062 15.898438 C 20.769531 16.0625 21.015625 16.203125 21.273438 16.324219 L 21.117188 17.972656 C 21.453125 18.09375 21.804688 18.1875 22.164062 18.253906 L 22.851562 16.746094 C 22.992188 16.761719 23.132812 16.769531 23.273438 16.769531 C 23.417969 16.769531 23.558594 16.761719 23.699219 16.746094 L 24.386719 18.253906 C 24.746094 18.1875 25.097656 18.09375 25.433594 17.972656 L 25.273438 16.324219 C 25.535156 16.203125 25.78125 16.0625 26.011719 15.898438 L 27.359375 16.859375 C 27.636719 16.625 27.890625 16.371094 28.125 16.09375 L 27.164062 14.746094 C 27.328125 14.511719 27.46875 14.265625 27.589844 14.007812 L 29.234375 14.164062 C 29.355469 13.828125 29.453125 13.480469 29.515625 13.121094 L 28.011719 12.429688 C 28.023438 12.289062 28.035156 12.148438 28.035156 12.003906 " fill-opacity="1" fill-rule="nonzero"/></g><path fill="#013f69" d="M 23.273438 13.277344 C 22.574219 13.277344 22.007812 12.707031 22.007812 12.003906 C 22.007812 11.304688 22.574219 10.734375 23.273438 10.734375 C 23.976562 10.734375 24.542969 11.304688 24.542969 12.003906 C 24.542969 12.707031 23.976562 13.277344 23.273438 13.277344 Z M 23.273438 9.464844 C 21.875 9.464844 20.738281 10.605469 20.738281 12.003906 C 20.738281 13.40625 21.875 14.546875 23.273438 14.546875 C 24.675781 14.546875 25.8125 13.40625 25.8125 12.003906 C 25.8125 10.605469 24.675781 9.464844 23.273438 9.464844 " fill-opacity="1" fill-rule="nonzero"/></svg>