<svg xmlns="http://www.w3.org/2000/svg" xmlns:xlink="http://www.w3.org/1999/xlink" width="40" zoomAndPan="magnify" viewBox="0 0 30 30.000001" height="40" preserveAspectRatio="xMidYMid meet" version="1.0"><defs><clipPath id="5624fd4697"><path d="M 11 28 L 18 28 L 18 29.03125 L 11 29.03125 Z M 11 28 " clip-rule="nonzero"/></clipPath><clipPath id="c793805ef4"><path d="M 0.484375 14 L 3 14 L 3 15 L 0.484375 15 Z M 0.484375 14 " clip-rule="nonzero"/></clipPath><clipPath id="3c4d03559c"><path d="M 27 14 L 29.515625 14 L 29.515625 15 L 27 15 Z M 27 14 " clip-rule="nonzero"/></clipPath></defs><path fill="#013f69" d="M 17.722656 26.308594 L 11.371094 26.308594 C 11.121094 26.308594 10.917969 26.515625 10.917969 26.765625 C 10.917969 27.011719 11.121094 27.21875 11.371094 27.21875 L 17.722656 27.21875 C 17.972656 27.21875 18.175781 27.011719 18.175781 26.765625 C 18.175781 26.515625 17.972656 26.308594 17.722656 26.308594 Z M 17.722656 26.308594 " fill-opacity="1" fill-rule="nonzero"/><g clip-path="url(#5624fd4697)"><path fill="#013f69" d="M 16.816406 28.125 L 12.277344 28.125 C 12.027344 28.125 11.824219 28.328125 11.824219 28.578125 C 11.824219 28.828125 12.027344 29.03125 12.277344 29.03125 L 16.816406 29.03125 C 17.0625 29.03125 17.269531 28.828125 17.269531 28.578125 C 17.269531 28.328125 17.0625 28.125 16.816406 28.125 Z M 16.816406 28.125 " fill-opacity="1" fill-rule="nonzero"/></g><path fill="#013f69" d="M 14.230469 18.597656 L 14.863281 18.597656 C 15.453125 18.597656 15.953125 18.144531 15.953125 17.578125 L 15.953125 17.125 C 16.269531 17.035156 16.566406 16.898438 16.859375 16.738281 L 17.175781 17.054688 C 17.5625 17.441406 18.242188 17.417969 18.652344 17.011719 L 19.105469 16.558594 C 19.535156 16.125 19.558594 15.46875 19.152344 15.082031 L 18.832031 14.765625 C 18.992188 14.472656 19.105469 14.175781 19.21875 13.859375 L 19.671875 13.859375 C 20.238281 13.859375 20.691406 13.382812 20.691406 12.769531 L 20.691406 12.132812 C 20.691406 11.542969 20.238281 11.046875 19.671875 11.046875 L 19.21875 11.046875 C 19.128906 10.726562 18.992188 10.433594 18.832031 10.136719 L 19.152344 9.820312 C 19.535156 9.433594 19.511719 8.753906 19.105469 8.347656 L 18.652344 7.894531 C 18.222656 7.460938 17.5625 7.441406 17.175781 7.847656 L 16.859375 8.164062 C 16.566406 8.007812 16.269531 7.894531 15.953125 7.78125 L 15.953125 7.324219 C 15.953125 6.757812 15.476562 6.304688 14.863281 6.304688 L 14.230469 6.304688 C 13.640625 6.304688 13.140625 6.757812 13.140625 7.324219 L 13.140625 7.78125 C 12.824219 7.871094 12.527344 8.007812 12.234375 8.164062 L 11.914062 7.847656 C 11.53125 7.460938 10.847656 7.484375 10.441406 7.894531 L 9.988281 8.347656 C 9.785156 8.550781 9.648438 8.847656 9.648438 9.140625 C 9.648438 9.414062 9.738281 9.664062 9.917969 9.84375 L 10.238281 10.160156 C 10.078125 10.457031 9.964844 10.75 9.851562 11.070312 L 9.398438 11.070312 C 8.875 11.070312 8.421875 11.566406 8.421875 12.15625 L 8.421875 12.792969 C 8.421875 13.382812 8.875 13.882812 9.441406 13.882812 L 9.898438 13.882812 C 9.988281 14.199219 10.125 14.492188 10.28125 14.789062 L 9.964844 15.105469 C 9.578125 15.492188 9.601562 16.171875 10.011719 16.582031 L 10.464844 17.035156 C 10.894531 17.464844 11.550781 17.488281 11.9375 17.078125 L 12.253906 16.761719 C 12.550781 16.921875 12.84375 17.035156 13.164062 17.148438 L 13.164062 17.601562 C 13.140625 18.144531 13.640625 18.597656 14.230469 18.597656 Z M 12.414062 15.808594 L 12.097656 15.605469 L 11.28125 16.421875 C 11.257812 16.445312 11.144531 16.445312 11.074219 16.375 L 10.621094 15.921875 C 10.554688 15.855469 10.53125 15.761719 10.578125 15.71875 L 11.394531 14.902344 L 11.191406 14.585938 C 10.941406 14.175781 10.757812 13.746094 10.667969 13.292969 L 10.601562 12.929688 L 9.421875 12.929688 C 9.375 12.929688 9.308594 12.859375 9.308594 12.746094 L 9.308594 12.113281 C 9.308594 12 9.375 11.929688 9.421875 11.929688 L 10.601562 11.929688 L 10.667969 11.566406 C 10.757812 11.113281 10.941406 10.683594 11.191406 10.273438 L 11.394531 9.957031 L 10.578125 9.140625 C 10.554688 9.117188 10.554688 9.09375 10.554688 9.09375 C 10.554688 9.050781 10.578125 8.980469 10.621094 8.960938 L 11.074219 8.503906 C 11.144531 8.4375 11.257812 8.414062 11.28125 8.460938 L 12.097656 9.277344 L 12.414062 9.074219 C 12.800781 8.824219 13.230469 8.640625 13.707031 8.550781 L 14.070312 8.484375 L 14.070312 7.304688 C 14.070312 7.257812 14.136719 7.191406 14.25 7.191406 L 14.886719 7.191406 C 15 7.191406 15.066406 7.257812 15.066406 7.304688 L 15.066406 8.484375 L 15.429688 8.550781 C 15.882812 8.640625 16.316406 8.824219 16.722656 9.074219 L 17.042969 9.277344 L 17.859375 8.460938 C 17.878906 8.4375 17.972656 8.4375 18.0625 8.503906 L 18.515625 8.960938 C 18.582031 9.027344 18.605469 9.117188 18.5625 9.164062 L 17.746094 9.980469 L 17.949219 10.296875 C 18.199219 10.683594 18.378906 11.136719 18.46875 11.589844 L 18.539062 11.953125 L 19.695312 11.953125 C 19.742188 11.953125 19.808594 12.019531 19.808594 12.132812 L 19.808594 12.769531 C 19.808594 12.882812 19.742188 12.949219 19.695312 12.949219 L 18.539062 12.949219 L 18.402344 13.3125 C 18.3125 13.769531 18.128906 14.199219 17.878906 14.605469 L 17.675781 14.925781 L 18.492188 15.742188 C 18.515625 15.761719 18.515625 15.855469 18.449219 15.945312 L 17.992188 16.398438 C 17.925781 16.464844 17.835938 16.488281 17.789062 16.445312 L 16.972656 15.628906 L 16.65625 15.832031 C 16.269531 16.082031 15.839844 16.261719 15.363281 16.351562 L 15 16.421875 L 15 17.601562 C 15 17.644531 14.933594 17.714844 14.820312 17.714844 L 14.183594 17.714844 C 14.070312 17.714844 14.003906 17.644531 14.003906 17.601562 L 14.003906 16.421875 L 13.707031 16.332031 C 13.230469 16.238281 12.800781 16.058594 12.414062 15.808594 Z M 12.414062 15.808594 " fill-opacity="1" fill-rule="nonzero"/><path fill="#013f69" d="M 16.929688 12.476562 C 16.929688 11.160156 15.863281 10.09375 14.546875 10.09375 C 13.230469 10.09375 12.164062 11.160156 12.164062 12.476562 C 12.164062 13.789062 13.230469 14.855469 14.546875 14.855469 C 15.863281 14.855469 16.929688 13.789062 16.929688 12.476562 Z M 13.070312 12.476562 C 13.070312 11.660156 13.730469 11 14.546875 11 C 15.363281 11 16.019531 11.660156 16.019531 12.476562 C 16.019531 13.292969 15.363281 13.949219 14.546875 13.949219 C 13.730469 13.949219 13.070312 13.292969 13.070312 12.476562 Z M 13.070312 12.476562 " fill-opacity="1" fill-rule="nonzero"/><path fill="#013f69" d="M 15 2.269531 C 15.25 2.269531 15.453125 2.0625 15.453125 1.816406 L 15.453125 0.453125 C 15.453125 0.203125 15.25 0 15 0 C 14.75 0 14.546875 0.203125 14.546875 0.453125 L 14.546875 1.816406 C 14.546875 2.0625 14.75 2.269531 15 2.269531 Z M 15 2.269531 " fill-opacity="1" fill-rule="nonzero"/><path fill="#013f69" d="M 9.714844 2.949219 C 9.785156 3.128906 9.964844 3.222656 10.125 3.222656 C 10.191406 3.222656 10.238281 3.222656 10.304688 3.175781 C 10.53125 3.085938 10.644531 2.8125 10.554688 2.585938 L 10.03125 1.359375 C 9.941406 1.132812 9.667969 1.019531 9.441406 1.113281 C 9.214844 1.203125 9.101562 1.472656 9.195312 1.699219 Z M 9.714844 2.949219 " fill-opacity="1" fill-rule="nonzero"/><path fill="#013f69" d="M 5.699219 5.851562 C 5.792969 5.941406 5.90625 5.988281 6.019531 5.988281 C 6.132812 5.988281 6.246094 5.941406 6.335938 5.851562 C 6.515625 5.671875 6.515625 5.398438 6.335938 5.214844 L 5.382812 4.265625 C 5.203125 4.082031 4.929688 4.082031 4.746094 4.265625 C 4.566406 4.445312 4.566406 4.71875 4.746094 4.898438 Z M 5.699219 5.851562 " fill-opacity="1" fill-rule="nonzero"/><path fill="#013f69" d="M 3.433594 9.230469 L 2.183594 8.710938 C 1.957031 8.617188 1.6875 8.730469 1.59375 8.960938 C 1.503906 9.1875 1.617188 9.457031 1.84375 9.550781 L 3.09375 10.070312 C 3.160156 10.09375 3.207031 10.117188 3.273438 10.117188 C 3.457031 10.117188 3.613281 10.003906 3.683594 9.84375 C 3.773438 9.59375 3.660156 9.320312 3.433594 9.230469 Z M 3.433594 9.230469 " fill-opacity="1" fill-rule="nonzero"/><g clip-path="url(#c793805ef4)"><path fill="#013f69" d="M 2.753906 14.515625 C 2.753906 14.265625 2.546875 14.0625 2.296875 14.0625 L 0.9375 14.0625 C 0.6875 14.0625 0.484375 14.265625 0.484375 14.515625 C 0.484375 14.765625 0.6875 14.96875 0.9375 14.96875 L 2.296875 14.96875 C 2.546875 14.96875 2.753906 14.765625 2.753906 14.515625 Z M 2.753906 14.515625 " fill-opacity="1" fill-rule="nonzero"/></g><path fill="#013f69" d="M 3.09375 18.960938 L 1.84375 19.484375 C 1.617188 19.574219 1.503906 19.847656 1.59375 20.074219 C 1.664062 20.253906 1.84375 20.34375 2.003906 20.34375 C 2.070312 20.34375 2.117188 20.34375 2.183594 20.300781 L 3.433594 19.777344 C 3.660156 19.6875 3.773438 19.414062 3.683594 19.1875 C 3.589844 18.960938 3.320312 18.871094 3.09375 18.960938 Z M 3.09375 18.960938 " fill-opacity="1" fill-rule="nonzero"/><path fill="#013f69" d="M 5.699219 23.179688 L 4.746094 24.132812 C 4.566406 24.316406 4.566406 24.585938 4.746094 24.769531 C 4.839844 24.859375 4.953125 24.902344 5.066406 24.902344 C 5.179688 24.902344 5.292969 24.859375 5.382812 24.769531 L 6.335938 23.816406 C 6.515625 23.632812 6.515625 23.363281 6.335938 23.179688 C 6.152344 23 5.882812 23 5.699219 23.179688 Z M 5.699219 23.179688 " fill-opacity="1" fill-rule="nonzero"/><path fill="#013f69" d="M 24.300781 23.179688 C 24.117188 23 23.847656 23 23.664062 23.179688 C 23.484375 23.363281 23.484375 23.632812 23.664062 23.816406 L 24.617188 24.769531 C 24.707031 24.859375 24.820312 24.902344 24.933594 24.902344 C 25.046875 24.902344 25.160156 24.859375 25.253906 24.769531 C 25.433594 24.585938 25.433594 24.316406 25.253906 24.132812 Z M 24.300781 23.179688 " fill-opacity="1" fill-rule="nonzero"/><path fill="#013f69" d="M 28.15625 19.484375 L 26.90625 18.960938 C 26.679688 18.871094 26.410156 18.984375 26.316406 19.210938 C 26.226562 19.4375 26.339844 19.710938 26.566406 19.800781 L 27.816406 20.324219 C 27.882812 20.34375 27.929688 20.367188 27.996094 20.367188 C 28.179688 20.367188 28.335938 20.253906 28.40625 20.097656 C 28.519531 19.847656 28.40625 19.574219 28.15625 19.484375 Z M 28.15625 19.484375 " fill-opacity="1" fill-rule="nonzero"/><g clip-path="url(#3c4d03559c)"><path fill="#013f69" d="M 29.0625 14.0625 L 27.703125 14.0625 C 27.453125 14.0625 27.246094 14.265625 27.246094 14.515625 C 27.246094 14.765625 27.453125 14.96875 27.703125 14.96875 L 29.0625 14.96875 C 29.3125 14.96875 29.515625 14.765625 29.515625 14.515625 C 29.515625 14.265625 29.3125 14.0625 29.0625 14.0625 Z M 29.0625 14.0625 " fill-opacity="1" fill-rule="nonzero"/></g><path fill="#013f69" d="M 26.726562 10.117188 C 26.792969 10.117188 26.839844 10.117188 26.90625 10.070312 L 28.15625 9.550781 C 28.382812 9.457031 28.496094 9.1875 28.40625 8.960938 C 28.3125 8.730469 28.042969 8.617188 27.816406 8.710938 L 26.566406 9.230469 C 26.339844 9.320312 26.226562 9.59375 26.316406 9.820312 C 26.386719 10.003906 26.566406 10.117188 26.726562 10.117188 Z M 26.726562 10.117188 " fill-opacity="1" fill-rule="nonzero"/><path fill="#013f69" d="M 24.617188 4.242188 L 23.664062 5.195312 C 23.484375 5.375 23.484375 5.648438 23.664062 5.828125 C 23.753906 5.917969 23.867188 5.964844 23.980469 5.964844 C 24.09375 5.964844 24.207031 5.917969 24.300781 5.828125 L 25.253906 4.875 C 25.433594 4.695312 25.433594 4.421875 25.253906 4.242188 C 25.070312 4.058594 24.796875 4.082031 24.617188 4.242188 Z M 24.617188 4.242188 " fill-opacity="1" fill-rule="nonzero"/><path fill="#013f69" d="M 19.695312 3.199219 C 19.761719 3.222656 19.808594 3.242188 19.875 3.242188 C 20.058594 3.242188 20.214844 3.128906 20.285156 2.972656 L 20.804688 1.722656 C 20.898438 1.496094 20.785156 1.226562 20.558594 1.132812 C 20.332031 1.042969 20.058594 1.15625 19.96875 1.382812 L 19.445312 2.632812 C 19.355469 2.835938 19.445312 3.105469 19.695312 3.199219 Z M 19.695312 3.199219 " fill-opacity="1" fill-rule="nonzero"/><path fill="#013f69" d="M 23.460938 17.78125 C 23.257812 17.464844 23.300781 17.261719 23.324219 17.191406 L 23.753906 16.671875 C 23.914062 16.488281 23.890625 16.21875 23.710938 16.035156 C 23.640625 15.992188 23.597656 15.921875 23.574219 15.898438 C 23.753906 15.71875 23.867188 15.535156 23.890625 15.332031 C 23.914062 15.128906 23.847656 14.96875 23.777344 14.878906 L 23.503906 14.355469 C 23.484375 14.289062 23.503906 14.242188 23.503906 14.222656 C 23.527344 14.199219 23.597656 14.175781 23.640625 14.175781 C 23.6875 14.175781 23.710938 14.175781 23.753906 14.152344 C 24.457031 13.972656 24.84375 13.675781 24.980469 13.269531 C 25.070312 12.929688 24.933594 12.632812 24.796875 12.453125 L 22.757812 9.527344 C 22.597656 9.300781 22.53125 9.003906 22.460938 8.710938 L 22.460938 8.664062 C 22.441406 8.550781 22.394531 8.414062 22.371094 8.300781 C 21.214844 4.265625 16.882812 2.722656 13.207031 3.265625 C 8.511719 3.992188 5.019531 8.027344 5.019531 12.703125 C 5.019531 15.015625 5.90625 17.398438 7.46875 19.210938 C 9.554688 21.636719 9.691406 22.339844 10.03125 24.222656 L 10.101562 24.5625 C 10.191406 25.085938 10.554688 25.425781 10.984375 25.425781 L 15 25.425781 C 15.25 25.425781 15.453125 25.222656 15.453125 24.972656 L 15.453125 19.960938 C 15.453125 19.710938 15.25 19.507812 15 19.507812 C 14.75 19.507812 14.546875 19.710938 14.546875 19.960938 L 14.546875 24.496094 L 11.03125 24.496094 C 11.007812 24.472656 11.007812 24.429688 10.984375 24.382812 L 10.917969 24.042969 C 10.578125 22.113281 10.417969 21.230469 8.148438 18.597656 C 6.742188 16.964844 5.925781 14.8125 5.925781 12.703125 C 5.925781 8.484375 9.101562 4.832031 13.300781 4.195312 C 16.566406 3.695312 20.421875 5.058594 21.441406 8.574219 C 21.464844 8.6875 21.507812 8.800781 21.53125 8.890625 L 21.53125 8.9375 C 21.621094 9.300781 21.714844 9.707031 21.964844 10.070312 L 24.027344 12.996094 C 24.027344 13.019531 24.050781 13.019531 24.050781 13.042969 C 24.003906 13.085938 23.867188 13.179688 23.527344 13.269531 C 23.371094 13.292969 22.984375 13.335938 22.757812 13.652344 C 22.621094 13.835938 22.484375 14.128906 22.621094 14.605469 C 22.621094 14.652344 22.644531 14.675781 22.667969 14.71875 L 22.9375 15.242188 C 22.914062 15.265625 22.847656 15.332031 22.757812 15.378906 C 22.710938 15.402344 22.667969 15.445312 22.621094 15.515625 C 22.460938 15.761719 22.507812 16.058594 22.78125 16.398438 L 22.554688 16.671875 C 22.53125 16.695312 22.507812 16.714844 22.507812 16.738281 C 22.484375 16.785156 22.191406 17.375 22.621094 18.144531 C 22.597656 18.441406 22.53125 19.007812 22.210938 19.324219 C 22.054688 19.484375 21.828125 19.550781 21.554688 19.527344 C 21.554688 19.527344 21.53125 19.527344 21.53125 19.527344 L 19.671875 19.527344 C 18.808594 19.527344 18.46875 20.59375 18.3125 21.117188 L 18.289062 21.183594 C 17.972656 22.183594 17.859375 23.292969 17.949219 24.519531 L 17.042969 24.519531 C 16.792969 24.519531 16.585938 24.722656 16.585938 24.972656 C 16.585938 25.222656 16.792969 25.425781 17.042969 25.425781 L 18.175781 25.425781 C 18.355469 25.425781 18.539062 25.359375 18.652344 25.199219 C 18.789062 25.039062 18.855469 24.835938 18.855469 24.632812 C 18.742188 23.453125 18.832031 22.386719 19.128906 21.457031 L 19.152344 21.386719 C 19.445312 20.480469 19.628906 20.4375 19.648438 20.4375 L 21.488281 20.4375 C 22.007812 20.457031 22.484375 20.300781 22.824219 19.960938 C 23.527344 19.277344 23.503906 18.144531 23.503906 18.007812 C 23.527344 17.917969 23.503906 17.851562 23.460938 17.78125 Z M 23.460938 17.78125 " fill-opacity="1" fill-rule="nonzero"/></svg>