<svg xmlns="http://www.w3.org/2000/svg" xmlns:xlink="http://www.w3.org/1999/xlink" width="40" zoomAndPan="magnify" viewBox="0 0 30 30.000001" height="40" preserveAspectRatio="xMidYMid meet" version="1.0"><defs><clipPath id="e809b1ef93"><path d="M 0.484375 0 L 29.515625 0 L 29.515625 29.03125 L 0.484375 29.03125 Z M 0.484375 0 " clip-rule="nonzero"/></clipPath></defs><path fill="#013f69" d="M 15 20.605469 C 16.550781 20.605469 17.808594 19.34375 17.808594 17.792969 C 17.808594 16.246094 16.550781 14.984375 15 14.984375 C 13.449219 14.984375 12.191406 16.246094 12.191406 17.792969 C 12.191406 19.34375 13.449219 20.605469 15 20.605469 Z M 15 15.921875 C 16.03125 15.921875 16.875 16.761719 16.875 17.792969 C 16.875 18.828125 16.03125 19.667969 15 19.667969 C 13.96875 19.667969 13.125 18.828125 13.125 17.792969 C 13.125 16.761719 13.96875 15.921875 15 15.921875 Z M 15 15.921875 " fill-opacity="1" fill-rule="nonzero"/><path fill="#013f69" d="M 15.9375 18.261719 L 15.9375 17.324219 L 15.195312 17.324219 L 14.394531 16.527344 L 13.730469 17.1875 L 14.804688 18.261719 Z M 15.9375 18.261719 " fill-opacity="1" fill-rule="nonzero"/><g clip-path="url(#e809b1ef93)"><path fill="#013f69" d="M 28.578125 21.539062 L 28.578125 3.386719 L 29.386719 1.773438 C 29.472656 1.605469 29.515625 1.414062 29.515625 1.226562 C 29.515625 0.550781 28.964844 0 28.289062 0 L 20.441406 0 C 19.765625 0 19.214844 0.550781 19.214844 1.226562 C 19.214844 1.414062 19.257812 1.605469 19.34375 1.773438 L 20.152344 3.386719 L 20.152344 5.621094 L 9.847656 5.621094 L 9.847656 3.386719 L 10.65625 1.773438 C 10.742188 1.605469 10.785156 1.414062 10.785156 1.226562 C 10.785156 0.550781 10.234375 0 9.558594 0 L 1.710938 0 C 1.035156 0 0.484375 0.550781 0.484375 1.226562 C 0.484375 1.414062 0.527344 1.605469 0.613281 1.773438 L 1.421875 3.386719 L 1.421875 21.539062 C 0.902344 21.539062 0.484375 21.960938 0.484375 22.476562 L 0.484375 29.03125 L 29.515625 29.03125 L 29.515625 22.476562 C 29.515625 21.960938 29.097656 21.539062 28.578125 21.539062 Z M 19.214844 28.097656 L 18.277344 28.097656 L 18.277344 23.882812 C 18.277344 23.621094 18.488281 23.414062 18.746094 23.414062 C 19.003906 23.414062 19.214844 23.621094 19.214844 23.882812 Z M 18.746094 22.476562 C 17.972656 22.476562 17.339844 23.105469 17.339844 23.882812 L 17.339844 28.097656 L 16.40625 28.097656 L 16.40625 23.882812 C 16.40625 23.105469 15.773438 22.476562 15 22.476562 C 14.226562 22.476562 13.59375 23.105469 13.59375 23.882812 L 13.59375 28.097656 L 12.660156 28.097656 L 12.660156 23.882812 C 12.660156 23.105469 12.027344 22.476562 11.253906 22.476562 C 10.480469 22.476562 9.847656 23.105469 9.847656 23.882812 L 9.847656 28.097656 L 8.914062 28.097656 L 8.914062 22.007812 L 21.085938 22.007812 L 21.085938 28.097656 L 20.152344 28.097656 L 20.152344 23.882812 C 20.152344 23.105469 19.519531 22.476562 18.746094 22.476562 Z M 15.46875 28.097656 L 14.53125 28.097656 L 14.53125 23.882812 C 14.53125 23.621094 14.742188 23.414062 15 23.414062 C 15.257812 23.414062 15.46875 23.621094 15.46875 23.882812 Z M 11.722656 28.097656 L 10.785156 28.097656 L 10.785156 23.882812 C 10.785156 23.621094 10.996094 23.414062 11.253906 23.414062 C 11.511719 23.414062 11.722656 23.621094 11.722656 23.882812 Z M 2.355469 3.746094 L 8.914062 3.746094 L 8.914062 13.113281 L 2.355469 13.113281 Z M 27.644531 3.746094 L 27.644531 13.113281 L 21.085938 13.113281 L 21.085938 3.746094 Z M 15.800781 10.769531 L 20.152344 10.769531 L 20.152344 13.914062 Z M 20.152344 9.832031 L 19.214844 9.832031 L 19.214844 8.429688 L 20.152344 8.429688 Z M 18.277344 9.832031 L 17.339844 9.832031 L 17.339844 8.429688 L 18.277344 8.429688 Z M 16.40625 9.832031 L 15.46875 9.832031 L 15.46875 8.429688 L 16.40625 8.429688 Z M 14.53125 9.832031 L 13.59375 9.832031 L 13.59375 8.429688 L 14.53125 8.429688 Z M 12.660156 9.832031 L 11.722656 9.832031 L 11.722656 8.429688 L 12.660156 8.429688 Z M 10.785156 9.832031 L 9.847656 9.832031 L 9.847656 8.429688 L 10.785156 8.429688 Z M 9.847656 10.769531 L 14.199219 10.769531 L 9.847656 13.914062 Z M 15 11.347656 L 22.769531 16.957031 C 22.890625 17.042969 22.960938 17.183594 22.960938 17.332031 C 22.960938 17.585938 22.753906 17.792969 22.5 17.792969 L 22.328125 17.792969 C 22.230469 17.792969 22.136719 17.761719 22.054688 17.703125 L 15 12.53125 L 7.945312 17.703125 C 7.863281 17.761719 7.769531 17.792969 7.671875 17.792969 L 7.5 17.792969 C 7.246094 17.792969 7.039062 17.585938 7.039062 17.332031 C 7.039062 17.183594 7.109375 17.046875 7.230469 16.957031 Z M 15 13.691406 L 21.085938 18.15625 L 21.085938 21.070312 L 8.914062 21.070312 L 8.914062 18.15625 Z M 22.023438 22.476562 L 28.578125 22.476562 L 28.578125 23.414062 L 22.023438 23.414062 Z M 22.023438 21.539062 L 22.023438 18.691406 C 22.125 18.714844 22.222656 18.730469 22.328125 18.730469 L 22.5 18.730469 C 23.269531 18.730469 23.898438 18.101562 23.898438 17.332031 C 23.898438 16.886719 23.679688 16.460938 23.316406 16.199219 L 21.085938 14.589844 L 21.085938 14.046875 L 27.644531 14.046875 L 27.644531 21.539062 Z M 20.441406 0.9375 L 28.289062 0.9375 C 28.449219 0.9375 28.578125 1.066406 28.578125 1.226562 C 28.578125 1.269531 28.570312 1.316406 28.550781 1.355469 L 27.820312 2.808594 L 20.910156 2.808594 L 20.179688 1.355469 C 20.160156 1.316406 20.152344 1.269531 20.152344 1.226562 C 20.152344 1.066406 20.28125 0.9375 20.441406 0.9375 Z M 20.152344 6.554688 L 20.152344 7.492188 L 9.847656 7.492188 L 9.847656 6.554688 Z M 1.710938 0.9375 L 9.558594 0.9375 C 9.71875 0.9375 9.847656 1.066406 9.847656 1.226562 C 9.847656 1.269531 9.839844 1.316406 9.820312 1.355469 L 9.089844 2.808594 L 2.179688 2.808594 L 1.449219 1.355469 C 1.429688 1.316406 1.421875 1.269531 1.421875 1.226562 C 1.421875 1.066406 1.550781 0.9375 1.710938 0.9375 Z M 2.355469 14.046875 L 8.914062 14.046875 L 8.914062 14.589844 L 6.683594 16.199219 C 6.320312 16.460938 6.101562 16.886719 6.101562 17.332031 C 6.101562 18.101562 6.730469 18.730469 7.5 18.730469 L 7.671875 18.730469 C 7.777344 18.730469 7.875 18.714844 7.976562 18.691406 L 7.976562 21.539062 L 2.355469 21.539062 Z M 7.976562 22.476562 L 7.976562 23.414062 L 1.421875 23.414062 L 1.421875 22.476562 Z M 1.421875 24.351562 L 7.976562 24.351562 L 7.976562 28.097656 L 7.507812 28.097656 L 7.507812 26.457031 C 7.507812 25.8125 6.984375 25.285156 6.335938 25.285156 C 5.691406 25.285156 5.167969 25.8125 5.167969 26.457031 L 5.167969 28.097656 L 4.230469 28.097656 L 4.230469 26.457031 C 4.230469 25.8125 3.703125 25.285156 3.058594 25.285156 C 2.414062 25.285156 1.886719 25.8125 1.886719 26.457031 L 1.886719 28.097656 L 1.421875 28.097656 Z M 6.570312 28.097656 L 6.101562 28.097656 L 6.101562 26.457031 C 6.101562 26.328125 6.207031 26.222656 6.335938 26.222656 C 6.464844 26.222656 6.570312 26.328125 6.570312 26.457031 Z M 3.292969 28.097656 L 2.824219 28.097656 L 2.824219 26.457031 C 2.824219 26.328125 2.929688 26.222656 3.058594 26.222656 C 3.1875 26.222656 3.292969 26.328125 3.292969 26.457031 Z M 23.898438 28.097656 L 23.429688 28.097656 L 23.429688 26.457031 C 23.429688 26.328125 23.535156 26.222656 23.664062 26.222656 C 23.792969 26.222656 23.898438 26.328125 23.898438 26.457031 Z M 27.175781 28.097656 L 26.707031 28.097656 L 26.707031 26.457031 C 26.707031 26.328125 26.8125 26.222656 26.941406 26.222656 C 27.070312 26.222656 27.175781 26.328125 27.175781 26.457031 Z M 28.113281 28.097656 L 28.113281 26.457031 C 28.113281 25.8125 27.585938 25.285156 26.941406 25.285156 C 26.296875 25.285156 25.769531 25.8125 25.769531 26.457031 L 25.769531 28.097656 L 24.832031 28.097656 L 24.832031 26.457031 C 24.832031 25.8125 24.308594 25.285156 23.664062 25.285156 C 23.015625 25.285156 22.492188 25.8125 22.492188 26.457031 L 22.492188 28.097656 L 22.023438 28.097656 L 22.023438 24.351562 L 28.578125 24.351562 L 28.578125 28.097656 Z M 28.113281 28.097656 " fill-opacity="1" fill-rule="nonzero"/></g><path fill="#013f69" d="M 5.632812 4.683594 C 4.34375 4.683594 3.292969 5.734375 3.292969 7.023438 L 3.292969 11.238281 C 3.292969 11.753906 3.714844 12.175781 4.230469 12.175781 L 7.039062 12.175781 C 7.554688 12.175781 7.976562 11.753906 7.976562 11.238281 L 7.976562 7.023438 C 7.976562 5.734375 6.925781 4.683594 5.632812 4.683594 Z M 7.039062 7.023438 L 6.101562 7.023438 L 6.101562 5.707031 C 6.648438 5.898438 7.039062 6.414062 7.039062 7.023438 Z M 6.101562 7.960938 L 7.039062 7.960938 L 7.039062 8.898438 L 6.101562 8.898438 Z M 5.167969 8.898438 L 4.230469 8.898438 L 4.230469 7.960938 L 5.167969 7.960938 Z M 5.167969 5.707031 L 5.167969 7.023438 L 4.230469 7.023438 C 4.230469 6.414062 4.621094 5.898438 5.167969 5.707031 Z M 4.230469 9.832031 L 5.167969 9.832031 L 5.167969 11.238281 L 4.230469 11.238281 Z M 6.101562 11.238281 L 6.101562 9.832031 L 7.039062 9.832031 L 7.039062 11.238281 Z M 6.101562 11.238281 " fill-opacity="1" fill-rule="nonzero"/><path fill="#013f69" d="M 22.960938 12.175781 L 25.769531 12.175781 C 26.285156 12.175781 26.707031 11.753906 26.707031 11.238281 L 26.707031 7.023438 C 26.707031 5.734375 25.65625 4.683594 24.367188 4.683594 C 23.074219 4.683594 22.023438 5.734375 22.023438 7.023438 L 22.023438 11.238281 C 22.023438 11.753906 22.445312 12.175781 22.960938 12.175781 Z M 22.960938 9.832031 L 23.898438 9.832031 L 23.898438 11.238281 L 22.960938 11.238281 Z M 23.898438 8.898438 L 22.960938 8.898438 L 22.960938 7.960938 L 23.898438 7.960938 Z M 24.832031 7.960938 L 25.769531 7.960938 L 25.769531 8.898438 L 24.832031 8.898438 Z M 24.832031 11.238281 L 24.832031 9.832031 L 25.769531 9.832031 L 25.769531 11.238281 Z M 25.769531 7.023438 L 24.832031 7.023438 L 24.832031 5.707031 C 25.378906 5.898438 25.769531 6.414062 25.769531 7.023438 Z M 23.898438 5.707031 L 23.898438 7.023438 L 22.960938 7.023438 C 22.960938 6.414062 23.351562 5.898438 23.898438 5.707031 Z M 23.898438 5.707031 " fill-opacity="1" fill-rule="nonzero"/></svg>