<svg xmlns="http://www.w3.org/2000/svg" xmlns:xlink="http://www.w3.org/1999/xlink" width="40" zoomAndPan="magnify" viewBox="0 0 30 30.000001" height="40" preserveAspectRatio="xMidYMid meet" version="1.0"><defs><clipPath id="bc8fb05658"><path d="M 1.011719 20 L 8 20 L 8 29.03125 L 1.011719 29.03125 Z M 1.011719 20 " clip-rule="nonzero"/></clipPath><clipPath id="dda2c966ba"><path d="M 22 21 L 29.316406 21 L 29.316406 29.03125 L 22 29.03125 Z M 22 21 " clip-rule="nonzero"/></clipPath><clipPath id="66493cf49d"><path d="M 1.011719 0.964844 L 29.316406 0.964844 L 29.316406 28 L 1.011719 28 Z M 1.011719 0.964844 " clip-rule="nonzero"/></clipPath><clipPath id="76765b7022"><path d="M 1.011719 0.964844 L 5 0.964844 L 5 4 L 1.011719 4 Z M 1.011719 0.964844 " clip-rule="nonzero"/></clipPath><clipPath id="bd03f361af"><path d="M 5 0.964844 L 9 0.964844 L 9 4 L 5 4 Z M 5 0.964844 " clip-rule="nonzero"/></clipPath><clipPath id="ea33e6c874"><path d="M 9 0.964844 L 12 0.964844 L 12 4 L 9 4 Z M 9 0.964844 " clip-rule="nonzero"/></clipPath></defs><g clip-path="url(#bc8fb05658)"><path fill="#013f69" d="M 6.492188 20.59375 L 3.027344 20.59375 C 2.785156 20.59375 2.550781 20.691406 2.382812 20.863281 L 1.277344 21.964844 C 1.105469 22.136719 1.011719 22.367188 1.011719 22.609375 L 1.011719 28.355469 C 1.011719 28.859375 1.421875 29.269531 1.925781 29.269531 L 6.492188 29.269531 C 6.992188 29.269531 7.402344 28.859375 7.402344 28.355469 L 7.402344 21.507812 C 7.402344 21.003906 6.992188 20.59375 6.492188 20.59375 Z M 2.839844 21.699219 L 2.839844 22.421875 L 2.113281 22.421875 Z M 6.492188 28.355469 L 1.925781 28.355469 L 1.925781 23.335938 L 2.839844 23.335938 C 3.339844 23.335938 3.75 22.925781 3.75 22.421875 L 3.75 21.507812 L 6.492188 21.507812 Z M 6.492188 28.355469 " fill-opacity="1" fill-rule="nonzero"/></g><path fill="#013f69" d="M 2.839844 24.246094 L 5.578125 24.246094 L 5.578125 25.160156 L 2.839844 25.160156 Z M 2.839844 24.246094 " fill-opacity="1" fill-rule="nonzero"/><path fill="#013f69" d="M 2.839844 26.074219 L 5.578125 26.074219 L 5.578125 26.988281 L 2.839844 26.988281 Z M 2.839844 26.074219 " fill-opacity="1" fill-rule="nonzero"/><path fill="#013f69" d="M 4.664062 22.421875 L 5.578125 22.421875 L 5.578125 23.335938 L 4.664062 23.335938 Z M 4.664062 22.421875 " fill-opacity="1" fill-rule="nonzero"/><g clip-path="url(#dda2c966ba)"><path fill="#013f69" d="M 28.40625 21.964844 L 22.925781 21.964844 C 22.421875 21.964844 22.011719 22.375 22.011719 22.878906 L 22.011719 28.355469 C 22.011719 28.859375 22.421875 29.269531 22.925781 29.269531 L 28.40625 29.269531 C 28.910156 29.269531 29.316406 28.859375 29.316406 28.355469 L 29.316406 22.878906 C 29.316406 22.375 28.910156 21.964844 28.40625 21.964844 Z M 26.121094 28.355469 L 26.121094 25.617188 L 25.210938 25.617188 L 25.210938 28.355469 L 22.925781 28.355469 L 22.925781 22.878906 L 25.210938 22.878906 L 25.210938 24.703125 L 26.121094 24.703125 L 26.121094 22.878906 L 28.40625 22.878906 L 28.40625 28.355469 Z M 26.121094 28.355469 " fill-opacity="1" fill-rule="nonzero"/></g><g clip-path="url(#66493cf49d)"><path fill="#013f69" d="M 19.40625 25.027344 L 20 25.617188 L 16.898438 25.617188 C 20.976562 23.875 23.839844 19.824219 23.839844 15.117188 C 23.839844 13.660156 23.539062 12.269531 23 11.007812 L 25.664062 11.007812 C 26.167969 11.007812 26.578125 10.597656 26.578125 10.09375 L 26.578125 4.617188 C 26.578125 4.113281 26.167969 3.703125 25.664062 3.703125 L 24.753906 3.703125 C 24.25 3.703125 23.839844 4.113281 23.839844 4.617188 L 23.839844 10.09375 L 22.925781 10.09375 L 22.925781 6.425781 C 22.925781 5.921875 22.515625 5.511719 22.011719 5.511719 L 21.101562 5.511719 C 20.597656 5.511719 20.1875 5.921875 20.1875 6.425781 L 20.1875 7.167969 C 19.453125 6.53125 18.632812 6 17.742188 5.585938 C 18.492188 3.386719 20.570312 1.875 22.925781 1.875 C 25.949219 1.875 28.40625 4.335938 28.40625 7.355469 C 28.40625 9.417969 27.238281 11.292969 25.4375 12.222656 L 25.640625 11.609375 L 24.777344 11.320312 L 24.210938 13.019531 L 25.871094 14.128906 L 26.375 13.367188 L 25.867188 13.027344 C 27.960938 11.941406 29.316406 9.757812 29.316406 7.355469 C 29.316406 3.832031 26.449219 0.964844 22.925781 0.964844 C 20.195312 0.964844 17.785156 2.699219 16.894531 5.238281 C 15.785156 4.835938 14.585938 4.617188 13.339844 4.617188 C 7.546875 4.617188 2.839844 9.328125 2.839844 15.117188 L 2.839844 17.667969 L 2.246094 17.078125 L 1.601562 17.722656 L 3.292969 19.414062 L 4.988281 17.722656 L 4.339844 17.078125 L 3.75 17.667969 L 3.75 15.117188 C 3.75 9.828125 8.050781 5.527344 13.339844 5.527344 C 18.625 5.527344 22.925781 9.828125 22.925781 15.117188 C 22.925781 20.90625 18.214844 25.617188 12.425781 25.617188 L 8.316406 25.617188 L 8.316406 26.53125 L 20 26.53125 L 19.40625 27.121094 L 20.054688 27.765625 L 21.746094 26.074219 L 20.054688 24.382812 Z M 24.753906 4.617188 L 25.664062 4.617188 L 25.664062 10.09375 L 24.753906 10.09375 Z M 22.011719 6.425781 L 22.011719 9.207031 C 21.734375 8.800781 21.429688 8.414062 21.101562 8.050781 L 21.101562 6.425781 Z M 22.011719 6.425781 " fill-opacity="1" fill-rule="nonzero"/></g><path fill="#013f69" d="M 13.339844 19.226562 C 15.605469 19.226562 17.449219 17.382812 17.449219 15.117188 C 17.449219 12.851562 15.605469 11.007812 13.339844 11.007812 C 11.074219 11.007812 9.230469 12.851562 9.230469 15.117188 C 9.230469 17.382812 11.074219 19.226562 13.339844 19.226562 Z M 13.339844 11.921875 C 15.101562 11.921875 16.535156 13.355469 16.535156 15.117188 C 16.535156 16.878906 15.101562 18.3125 13.339844 18.3125 C 11.578125 18.3125 10.144531 16.878906 10.144531 15.117188 C 10.144531 13.355469 11.578125 11.921875 13.339844 11.921875 Z M 13.339844 11.921875 " fill-opacity="1" fill-rule="nonzero"/><path fill="#013f69" d="M 13.339844 17.398438 C 14.597656 17.398438 15.621094 16.375 15.621094 15.117188 C 15.621094 13.859375 14.597656 12.832031 13.339844 12.832031 C 12.078125 12.832031 11.054688 13.859375 11.054688 15.117188 C 11.054688 16.375 12.078125 17.398438 13.339844 17.398438 Z M 13.339844 13.746094 C 14.09375 13.746094 14.707031 14.363281 14.707031 15.117188 C 14.707031 15.871094 14.09375 16.484375 13.339844 16.484375 C 12.582031 16.484375 11.96875 15.871094 11.96875 15.117188 C 11.96875 14.363281 12.582031 13.746094 13.339844 13.746094 Z M 13.339844 13.746094 " fill-opacity="1" fill-rule="nonzero"/><path fill="#013f69" d="M 7.828125 13.289062 L 6.492188 13.289062 L 6.492188 16.941406 L 7.828125 16.941406 C 8.109375 16.941406 8.222656 17.160156 8.25 17.226562 C 8.277344 17.292969 8.351562 17.523438 8.152344 17.722656 L 7.207031 18.667969 L 9.789062 21.25 L 10.734375 20.304688 C 10.933594 20.105469 11.164062 20.179688 11.230469 20.207031 C 11.296875 20.234375 11.511719 20.34375 11.511719 20.628906 L 11.511719 21.964844 L 15.164062 21.964844 L 15.164062 20.628906 C 15.164062 20.34375 15.382812 20.234375 15.445312 20.207031 C 15.511719 20.179688 15.746094 20.105469 15.945312 20.304688 L 16.890625 21.25 L 19.472656 18.667969 L 18.527344 17.722656 C 18.328125 17.523438 18.402344 17.289062 18.425781 17.222656 C 18.457031 17.160156 18.566406 16.941406 18.851562 16.941406 L 20.1875 16.941406 L 20.1875 13.289062 L 18.851562 13.289062 C 18.566406 13.289062 18.457031 13.074219 18.425781 13.007812 C 18.398438 12.941406 18.328125 12.710938 18.527344 12.511719 L 19.472656 11.566406 L 16.890625 8.984375 L 15.945312 9.929688 C 15.746094 10.128906 15.511719 10.054688 15.445312 10.027344 C 15.382812 10 15.164062 9.886719 15.164062 9.605469 L 15.164062 8.269531 L 11.511719 8.269531 L 11.511719 9.605469 C 11.511719 9.886719 11.296875 10 11.230469 10.027344 C 11.164062 10.054688 10.933594 10.128906 10.734375 9.929688 L 9.789062 8.984375 L 7.207031 11.566406 L 8.152344 12.511719 C 8.351562 12.710938 8.277344 12.941406 8.25 13.007812 C 8.222656 13.074219 8.109375 13.289062 7.828125 13.289062 Z M 8.796875 11.867188 L 8.496094 11.566406 L 9.789062 10.273438 L 10.085938 10.574219 C 10.488281 10.972656 11.058594 11.085938 11.582031 10.871094 C 12.101562 10.65625 12.425781 10.171875 12.425781 9.605469 L 12.425781 9.179688 L 14.25 9.179688 L 14.25 9.605469 C 14.25 10.167969 14.574219 10.65625 15.097656 10.871094 C 15.621094 11.085938 16.191406 10.972656 16.589844 10.574219 L 16.890625 10.273438 L 18.179688 11.566406 L 17.882812 11.867188 C 17.484375 12.265625 17.367188 12.835938 17.585938 13.359375 C 17.800781 13.878906 18.285156 14.203125 18.851562 14.203125 L 19.273438 14.203125 L 19.273438 16.03125 L 18.851562 16.03125 C 18.285156 16.03125 17.800781 16.355469 17.585938 16.875 C 17.367188 17.398438 17.484375 17.96875 17.882812 18.367188 L 18.179688 18.667969 L 16.890625 19.960938 L 16.589844 19.660156 C 16.191406 19.261719 15.621094 19.148438 15.097656 19.363281 C 14.574219 19.578125 14.25 20.0625 14.25 20.628906 L 14.25 21.050781 L 12.425781 21.050781 L 12.425781 20.628906 C 12.425781 20.0625 12.101562 19.578125 11.582031 19.363281 C 11.058594 19.144531 10.484375 19.261719 10.085938 19.660156 L 9.789062 19.960938 L 8.496094 18.667969 L 8.796875 18.367188 C 9.195312 17.96875 9.308594 17.398438 9.09375 16.875 C 8.878906 16.355469 8.390625 16.03125 7.828125 16.03125 L 7.402344 16.03125 L 7.402344 14.203125 L 7.828125 14.203125 C 8.390625 14.203125 8.878906 13.878906 9.09375 13.359375 C 9.308594 12.835938 9.195312 12.265625 8.796875 11.867188 Z M 8.796875 11.867188 " fill-opacity="1" fill-rule="nonzero"/><g clip-path="url(#76765b7022)"><path fill="#013f69" d="M 2.839844 3.703125 L 3.75 3.703125 C 4.253906 3.703125 4.664062 3.292969 4.664062 2.789062 L 4.664062 1.875 C 4.664062 1.371094 4.253906 0.964844 3.75 0.964844 L 2.839844 0.964844 C 2.335938 0.964844 1.925781 1.371094 1.925781 1.875 L 1.925781 2.789062 C 1.925781 3.292969 2.335938 3.703125 2.839844 3.703125 Z M 2.839844 1.875 L 3.75 1.875 L 3.75 2.789062 L 2.839844 2.789062 Z M 2.839844 1.875 " fill-opacity="1" fill-rule="nonzero"/></g><g clip-path="url(#bd03f361af)"><path fill="#013f69" d="M 6.492188 3.703125 L 7.402344 3.703125 C 7.90625 3.703125 8.316406 3.292969 8.316406 2.789062 L 8.316406 1.875 C 8.316406 1.371094 7.90625 0.964844 7.402344 0.964844 L 6.492188 0.964844 C 5.988281 0.964844 5.578125 1.371094 5.578125 1.875 L 5.578125 2.789062 C 5.578125 3.292969 5.988281 3.703125 6.492188 3.703125 Z M 6.492188 1.875 L 7.402344 1.875 L 7.402344 2.789062 L 6.492188 2.789062 Z M 6.492188 1.875 " fill-opacity="1" fill-rule="nonzero"/></g><g clip-path="url(#ea33e6c874)"><path fill="#013f69" d="M 10.144531 3.703125 L 11.054688 3.703125 C 11.558594 3.703125 11.96875 3.292969 11.96875 2.789062 L 11.96875 1.875 C 11.96875 1.371094 11.558594 0.964844 11.054688 0.964844 L 10.144531 0.964844 C 9.640625 0.964844 9.230469 1.371094 9.230469 1.875 L 9.230469 2.789062 C 9.230469 3.292969 9.640625 3.703125 10.144531 3.703125 Z M 10.144531 1.875 L 11.054688 1.875 L 11.054688 2.789062 L 10.144531 2.789062 Z M 10.144531 1.875 " fill-opacity="1" fill-rule="nonzero"/></g></svg>