<svg xmlns="http://www.w3.org/2000/svg" xmlns:xlink="http://www.w3.org/1999/xlink" width="40" zoomAndPan="magnify" viewBox="0 0 30 30.000001" height="40" preserveAspectRatio="xMidYMid meet" version="1.0"><defs><clipPath id="2af606345d"><path d="M 1.070312 0 L 27.925781 0 L 27.925781 29.03125 L 1.070312 29.03125 Z M 1.070312 0 " clip-rule="nonzero"/></clipPath></defs><g clip-path="url(#2af606345d)"><path fill="#013f69" d="M 9.332031 30.476562 L 19.660156 30.476562 C 19.804688 30.476562 19.925781 30.425781 20.027344 30.328125 C 20.128906 30.226562 20.175781 30.109375 20.175781 29.96875 L 20.175781 28.445312 L 27.40625 28.445312 C 27.550781 28.445312 27.671875 28.394531 27.773438 28.296875 C 27.875 28.195312 27.925781 28.078125 27.925781 27.9375 L 27.925781 22.414062 C 27.925781 22.128906 27.878906 21.855469 27.785156 21.585938 C 27.691406 21.320312 27.554688 21.074219 27.378906 20.851562 C 27.199219 20.628906 26.992188 20.4375 26.75 20.285156 C 26.507812 20.128906 26.246094 20.019531 25.96875 19.949219 L 24.445312 19.574219 C 24.253906 19.527344 24.097656 19.429688 23.972656 19.277344 C 23.851562 19.121094 23.792969 18.949219 23.792969 18.753906 L 23.792969 18.203125 C 24.101562 18.09375 24.351562 17.90625 24.539062 17.644531 C 24.730469 17.382812 24.824219 17.089844 24.824219 16.765625 L 24.824219 14.894531 L 26.15625 14.570312 C 26.371094 14.515625 26.546875 14.402344 26.683594 14.230469 C 26.824219 14.058594 26.890625 13.859375 26.890625 13.640625 L 26.890625 10.746094 C 26.890625 10.527344 26.824219 10.332031 26.683594 10.15625 C 26.546875 9.984375 26.371094 9.871094 26.152344 9.820312 L 24.167969 9.332031 C 23.976562 8.691406 23.71875 8.078125 23.394531 7.492188 L 24.445312 5.769531 C 24.5625 5.578125 24.605469 5.375 24.578125 5.160156 C 24.550781 4.941406 24.457031 4.753906 24.300781 4.601562 L 23.644531 3.953125 L 22.914062 4.671875 L 23.539062 5.285156 L 22.492188 7 C 22.304688 7.3125 22.296875 7.628906 22.472656 7.949219 C 22.773438 8.492188 23.011719 9.058594 23.1875 9.652344 C 23.292969 10 23.523438 10.21875 23.882812 10.3125 L 25.859375 10.792969 L 25.859375 13.59375 L 24.824219 13.847656 L 24.824219 13.71875 C 24.824219 13.382812 24.757812 13.058594 24.628906 12.746094 C 24.496094 12.4375 24.308594 12.164062 24.070312 11.925781 C 23.828125 11.6875 23.546875 11.503906 23.230469 11.375 C 22.914062 11.246094 22.585938 11.179688 22.242188 11.179688 C 22.21875 11.179688 22.191406 11.1875 22.167969 11.1875 C 22.105469 10.734375 22.003906 10.289062 21.863281 9.855469 C 21.71875 9.417969 21.539062 9 21.320312 8.597656 C 21.101562 8.191406 20.84375 7.8125 20.554688 7.453125 C 20.265625 7.097656 19.945312 6.765625 19.597656 6.464844 C 19.246094 6.164062 18.875 5.894531 18.472656 5.660156 C 18.074219 5.425781 17.65625 5.226562 17.222656 5.066406 C 16.789062 4.90625 16.339844 4.785156 15.882812 4.703125 C 15.425781 4.621094 14.964844 4.578125 14.5 4.578125 C 14.035156 4.578125 13.574219 4.621094 13.113281 4.703125 C 12.65625 4.78125 12.210938 4.90625 11.773438 5.066406 C 11.339844 5.226562 10.921875 5.425781 10.523438 5.660156 C 10.125 5.894531 9.75 6.160156 9.398438 6.464844 C 9.050781 6.765625 8.730469 7.09375 8.441406 7.453125 C 8.152344 7.808594 7.894531 8.191406 7.675781 8.59375 C 7.457031 8.996094 7.277344 9.417969 7.132812 9.851562 C 6.988281 10.285156 6.886719 10.730469 6.828125 11.183594 C 6.800781 11.183594 6.773438 11.179688 6.75 11.179688 C 6.40625 11.179688 6.078125 11.246094 5.761719 11.375 C 5.445312 11.503906 5.167969 11.6875 4.925781 11.925781 C 4.683594 12.164062 4.496094 12.4375 4.367188 12.746094 C 4.234375 13.058594 4.167969 13.382812 4.167969 13.71875 L 4.167969 13.847656 L 3.136719 13.59375 L 3.136719 10.792969 L 5.109375 10.308594 C 5.46875 10.21875 5.699219 10 5.804688 9.648438 C 5.984375 9.058594 6.222656 8.488281 6.519531 7.945312 C 6.695312 7.628906 6.691406 7.3125 6.503906 7 L 5.457031 5.285156 L 7.46875 3.304688 L 9.214844 4.332031 C 9.53125 4.519531 9.851562 4.523438 10.179688 4.351562 C 10.730469 4.058594 11.308594 3.824219 11.910156 3.648438 C 12.265625 3.546875 12.488281 3.320312 12.578125 2.964844 L 13.074219 1.023438 L 15.921875 1.023438 L 16.414062 2.96875 C 16.507812 3.320312 16.730469 3.546875 17.085938 3.648438 C 17.6875 3.824219 18.261719 4.058594 18.816406 4.351562 C 19.140625 4.527344 19.460938 4.519531 19.777344 4.335938 L 21.523438 3.304688 L 22.160156 3.929688 L 22.886719 3.210938 L 22.21875 2.554688 C 22.0625 2.398438 21.875 2.308594 21.652344 2.28125 C 21.429688 2.253906 21.222656 2.296875 21.03125 2.410156 L 19.28125 3.445312 C 18.683594 3.128906 18.058594 2.875 17.40625 2.683594 L 16.910156 0.730469 C 16.859375 0.519531 16.742188 0.34375 16.566406 0.210938 C 16.390625 0.0742188 16.191406 0.0078125 15.96875 0.0078125 L 13.023438 0.0078125 C 12.800781 0.0078125 12.601562 0.0742188 12.425781 0.210938 C 12.25 0.347656 12.132812 0.519531 12.078125 0.734375 L 11.585938 2.683594 C 10.9375 2.875 10.3125 3.128906 9.714844 3.445312 L 7.960938 2.410156 C 7.769531 2.296875 7.5625 2.253906 7.34375 2.28125 C 7.121094 2.308594 6.929688 2.398438 6.773438 2.554688 L 4.695312 4.601562 C 4.535156 4.753906 4.441406 4.941406 4.414062 5.160156 C 4.386719 5.378906 4.433594 5.578125 4.546875 5.769531 L 5.597656 7.492188 C 5.277344 8.078125 5.019531 8.691406 4.824219 9.332031 L 2.839844 9.820312 C 2.625 9.871094 2.445312 9.984375 2.308594 10.160156 C 2.171875 10.332031 2.101562 10.527344 2.101562 10.75 L 2.101562 13.644531 C 2.101562 13.863281 2.171875 14.058594 2.308594 14.234375 C 2.445312 14.40625 2.621094 14.519531 2.839844 14.570312 L 4.167969 14.894531 L 4.167969 16.765625 C 4.167969 17.089844 4.261719 17.382812 4.453125 17.644531 C 4.640625 17.90625 4.890625 18.09375 5.199219 18.203125 L 5.199219 18.753906 C 5.203125 18.949219 5.140625 19.121094 5.019531 19.277344 C 4.898438 19.429688 4.742188 19.527344 4.550781 19.574219 L 3.027344 19.949219 C 2.746094 20.019531 2.484375 20.128906 2.242188 20.285156 C 2.003906 20.4375 1.792969 20.628906 1.617188 20.851562 C 1.4375 21.074219 1.304688 21.320312 1.210938 21.585938 C 1.117188 21.855469 1.070312 22.128906 1.070312 22.414062 L 1.070312 23.875 L 2.101562 23.875 L 2.101562 22.414062 C 2.101562 22.0625 2.210938 21.75 2.429688 21.476562 C 2.648438 21.199219 2.929688 21.019531 3.277344 20.9375 L 4.800781 20.5625 C 5.222656 20.457031 5.566406 20.238281 5.832031 19.902344 C 6.101562 19.566406 6.234375 19.183594 6.234375 18.753906 L 6.234375 17.78125 C 6.234375 17.640625 6.183594 17.519531 6.082031 17.421875 C 5.980469 17.324219 5.859375 17.273438 5.71875 17.273438 C 5.574219 17.273438 5.453125 17.222656 5.351562 17.125 C 5.25 17.023438 5.199219 16.90625 5.199219 16.765625 L 5.199219 13.71875 C 5.199219 13.515625 5.242188 13.320312 5.320312 13.136719 C 5.398438 12.949219 5.507812 12.785156 5.65625 12.640625 C 5.800781 12.5 5.96875 12.386719 6.15625 12.3125 C 6.347656 12.234375 6.542969 12.195312 6.75 12.195312 C 6.957031 12.195312 7.152344 12.234375 7.34375 12.3125 C 7.53125 12.386719 7.699219 12.5 7.847656 12.640625 C 7.992188 12.785156 8.101562 12.949219 8.179688 13.136719 C 8.261719 13.320312 8.300781 13.515625 8.300781 13.71875 L 8.300781 16.765625 C 8.300781 16.90625 8.25 17.023438 8.148438 17.125 C 8.046875 17.222656 7.925781 17.273438 7.78125 17.273438 C 7.640625 17.273438 7.519531 17.324219 7.417969 17.421875 C 7.316406 17.519531 7.265625 17.640625 7.265625 17.78125 L 7.265625 18.753906 C 7.265625 19.183594 7.398438 19.5625 7.667969 19.902344 C 7.933594 20.238281 8.277344 20.457031 8.699219 20.5625 L 10.222656 20.9375 C 10.738281 21.0625 11.09375 21.367188 11.285156 21.855469 L 10.769531 21.980469 C 10.492188 22.050781 10.230469 22.160156 9.988281 22.316406 C 9.746094 22.46875 9.539062 22.660156 9.363281 22.882812 C 9.183594 23.105469 9.050781 23.351562 8.957031 23.617188 C 8.863281 23.886719 8.816406 24.160156 8.816406 24.445312 L 8.816406 27.429688 L 4.683594 27.429688 L 4.683594 23.875 C 4.683594 23.734375 4.632812 23.613281 4.535156 23.515625 C 4.433594 23.417969 4.3125 23.367188 4.167969 23.367188 C 4.027344 23.367188 3.902344 23.417969 3.804688 23.515625 C 3.703125 23.613281 3.652344 23.734375 3.652344 23.875 L 3.652344 27.429688 L 2.101562 27.429688 L 2.101562 24.90625 L 1.070312 24.90625 L 1.070312 27.9375 C 1.070312 28.078125 1.121094 28.195312 1.21875 28.296875 C 1.320312 28.394531 1.441406 28.445312 1.585938 28.445312 L 8.816406 28.445312 L 8.816406 29.96875 C 8.816406 30.109375 8.867188 30.226562 8.96875 30.328125 C 9.066406 30.425781 9.191406 30.476562 9.332031 30.476562 Z M 23.792969 13.71875 L 23.792969 16.765625 C 23.792969 16.90625 23.742188 17.023438 23.640625 17.125 C 23.539062 17.222656 23.417969 17.273438 23.277344 17.273438 C 23.132812 17.273438 23.011719 17.324219 22.910156 17.421875 C 22.808594 17.519531 22.761719 17.640625 22.761719 17.78125 L 22.761719 18.753906 C 22.757812 19.183594 22.894531 19.5625 23.160156 19.902344 C 23.425781 20.238281 23.773438 20.457031 24.191406 20.5625 L 25.71875 20.9375 C 26.0625 21.019531 26.34375 21.199219 26.5625 21.476562 C 26.78125 21.75 26.890625 22.0625 26.890625 22.414062 L 26.890625 27.429688 L 25.34375 27.429688 L 25.34375 23.875 C 25.34375 23.734375 25.292969 23.613281 25.191406 23.515625 C 25.089844 23.417969 24.96875 23.367188 24.824219 23.367188 C 24.683594 23.367188 24.5625 23.417969 24.460938 23.515625 C 24.359375 23.613281 24.308594 23.734375 24.308594 23.875 L 24.308594 27.429688 L 20.175781 27.429688 L 20.175781 24.445312 C 20.179688 24.160156 20.132812 23.886719 20.039062 23.617188 C 19.945312 23.351562 19.808594 23.105469 19.632812 22.882812 C 19.453125 22.660156 19.246094 22.46875 19.003906 22.316406 C 18.761719 22.160156 18.5 22.050781 18.222656 21.980469 L 17.707031 21.855469 C 17.898438 21.367188 18.253906 21.0625 18.769531 20.9375 L 20.292969 20.5625 C 20.714844 20.457031 21.058594 20.238281 21.324219 19.902344 C 21.59375 19.566406 21.726562 19.183594 21.726562 18.753906 L 21.726562 17.78125 C 21.726562 17.640625 21.675781 17.519531 21.574219 17.421875 C 21.476562 17.324219 21.351562 17.273438 21.210938 17.273438 C 21.066406 17.273438 20.945312 17.222656 20.84375 17.125 C 20.746094 17.023438 20.695312 16.90625 20.695312 16.765625 L 20.695312 13.71875 C 20.695312 13.515625 20.734375 13.320312 20.8125 13.136719 C 20.890625 12.949219 21.003906 12.785156 21.148438 12.640625 C 21.292969 12.5 21.460938 12.386719 21.652344 12.3125 C 21.839844 12.234375 22.039062 12.195312 22.242188 12.195312 C 22.449219 12.195312 22.648438 12.234375 22.835938 12.3125 C 23.027344 12.386719 23.195312 12.5 23.339844 12.640625 C 23.484375 12.785156 23.597656 12.949219 23.675781 13.136719 C 23.753906 13.320312 23.792969 13.515625 23.792969 13.71875 Z M 16.9375 19.417969 C 18.078125 19.050781 19.078125 18.449219 19.929688 17.617188 C 20.121094 17.894531 20.375 18.089844 20.695312 18.203125 L 20.695312 18.753906 C 20.695312 18.949219 20.632812 19.121094 20.511719 19.277344 C 20.390625 19.429688 20.234375 19.527344 20.042969 19.574219 L 18.519531 19.949219 C 18.089844 20.054688 17.714844 20.253906 17.390625 20.550781 C 17.070312 20.84375 16.835938 21.195312 16.699219 21.605469 C 16.507812 21.558594 16.351562 21.460938 16.226562 21.308594 C 16.105469 21.15625 16.046875 20.980469 16.046875 20.785156 L 16.046875 20.234375 C 16.460938 20.085938 16.757812 19.816406 16.9375 19.417969 Z M 7.835938 11.417969 C 7.882812 11.019531 7.964844 10.628906 8.085938 10.246094 C 8.207031 9.863281 8.359375 9.492188 8.546875 9.136719 C 8.738281 8.78125 8.957031 8.445312 9.207031 8.128906 C 9.457031 7.8125 9.734375 7.523438 10.039062 7.257812 C 10.34375 6.992188 10.671875 6.753906 11.019531 6.546875 C 11.367188 6.339844 11.734375 6.164062 12.113281 6.019531 C 12.496094 5.878906 12.886719 5.769531 13.289062 5.699219 C 13.6875 5.625 14.09375 5.589844 14.5 5.589844 C 14.90625 5.589844 15.3125 5.628906 15.710938 5.699219 C 16.113281 5.773438 16.503906 5.878906 16.886719 6.023438 C 17.265625 6.167969 17.628906 6.339844 17.980469 6.550781 C 18.328125 6.757812 18.652344 6.996094 18.957031 7.261719 C 19.261719 7.527344 19.539062 7.820312 19.789062 8.136719 C 20.039062 8.453125 20.257812 8.789062 20.449219 9.144531 C 20.636719 9.5 20.789062 9.867188 20.910156 10.25 C 21.027344 10.632812 21.113281 11.023438 21.160156 11.421875 C 20.703125 11.628906 20.339844 11.941406 20.070312 12.355469 C 19.800781 12.769531 19.664062 13.226562 19.660156 13.71875 L 19.660156 16.40625 C 18.957031 17.242188 18.097656 17.871094 17.078125 18.285156 L 17.078125 15.75 C 17.078125 15.414062 17.011719 15.089844 16.882812 14.777344 C 16.75 14.46875 16.566406 14.191406 16.324219 13.953125 C 16.082031 13.714844 15.800781 13.53125 15.484375 13.402344 C 15.167969 13.273438 14.839844 13.210938 14.496094 13.210938 C 14.15625 13.210938 13.824219 13.273438 13.507812 13.402344 C 13.191406 13.53125 12.914062 13.714844 12.671875 13.953125 C 12.429688 14.191406 12.242188 14.46875 12.109375 14.777344 C 11.980469 15.089844 11.914062 15.414062 11.914062 15.75 L 11.914062 18.285156 C 10.894531 17.871094 10.035156 17.242188 9.332031 16.40625 L 9.332031 13.71875 C 9.332031 13.222656 9.195312 12.769531 8.925781 12.351562 C 8.65625 11.933594 8.292969 11.625 7.835938 11.417969 Z M 10.476562 19.949219 L 8.953125 19.574219 C 8.757812 19.527344 8.601562 19.429688 8.480469 19.277344 C 8.359375 19.121094 8.300781 18.949219 8.300781 18.753906 L 8.300781 18.203125 C 8.617188 18.089844 8.875 17.894531 9.0625 17.617188 C 9.917969 18.449219 10.914062 19.050781 12.054688 19.421875 C 12.234375 19.816406 12.53125 20.085938 12.949219 20.234375 L 12.949219 20.785156 C 12.949219 20.980469 12.886719 21.152344 12.765625 21.308594 C 12.644531 21.460938 12.488281 21.558594 12.296875 21.605469 C 12.15625 21.195312 11.925781 20.84375 11.601562 20.550781 C 11.277344 20.253906 10.902344 20.054688 10.476562 19.949219 Z M 9.847656 24.445312 C 9.847656 24.09375 9.957031 23.78125 10.175781 23.507812 C 10.394531 23.230469 10.679688 23.050781 11.023438 22.96875 L 12.546875 22.59375 C 12.96875 22.488281 13.3125 22.269531 13.582031 21.933594 C 13.847656 21.59375 13.980469 21.214844 13.980469 20.785156 L 13.980469 19.8125 C 13.980469 19.671875 13.929688 19.550781 13.828125 19.453125 C 13.726562 19.355469 13.605469 19.304688 13.464844 19.304688 C 13.320312 19.304688 13.199219 19.253906 13.097656 19.15625 C 12.996094 19.054688 12.949219 18.9375 12.949219 18.796875 L 12.949219 15.75 C 12.949219 15.546875 12.988281 15.351562 13.066406 15.167969 C 13.144531 14.980469 13.257812 14.816406 13.402344 14.671875 C 13.546875 14.53125 13.714844 14.417969 13.902344 14.34375 C 14.09375 14.265625 14.292969 14.226562 14.496094 14.226562 C 14.703125 14.226562 14.898438 14.265625 15.089844 14.34375 C 15.28125 14.417969 15.445312 14.53125 15.59375 14.671875 C 15.738281 14.816406 15.847656 14.980469 15.929688 15.167969 C 16.007812 15.351562 16.046875 15.546875 16.046875 15.75 L 16.046875 18.796875 C 16.046875 18.9375 15.996094 19.054688 15.894531 19.15625 C 15.792969 19.253906 15.671875 19.304688 15.53125 19.304688 C 15.386719 19.304688 15.265625 19.355469 15.164062 19.453125 C 15.0625 19.550781 15.011719 19.671875 15.011719 19.8125 L 15.011719 20.785156 C 15.011719 21.214844 15.144531 21.59375 15.414062 21.933594 C 15.679688 22.269531 16.023438 22.488281 16.445312 22.59375 L 17.972656 22.96875 C 18.316406 23.050781 18.597656 23.230469 18.816406 23.507812 C 19.035156 23.78125 19.144531 24.09375 19.144531 24.445312 L 19.144531 29.460938 L 17.59375 29.460938 L 17.59375 25.90625 C 17.59375 25.765625 17.546875 25.644531 17.445312 25.546875 C 17.34375 25.449219 17.222656 25.398438 17.078125 25.398438 C 16.9375 25.398438 16.816406 25.449219 16.714844 25.546875 C 16.613281 25.644531 16.5625 25.765625 16.5625 25.90625 L 16.5625 29.460938 L 12.429688 29.460938 L 12.429688 25.90625 C 12.429688 25.765625 12.378906 25.644531 12.28125 25.546875 C 12.179688 25.449219 12.058594 25.398438 11.914062 25.398438 C 11.773438 25.398438 11.648438 25.449219 11.550781 25.546875 C 11.449219 25.644531 11.398438 25.765625 11.398438 25.90625 L 11.398438 29.460938 L 9.847656 29.460938 Z M 9.847656 24.445312 " fill-opacity="1" fill-rule="nonzero"/></g><path fill="#013f69" d="M 13.464844 11.410156 L 13.464844 12.195312 C 13.464844 12.335938 13.515625 12.457031 13.613281 12.554688 C 13.714844 12.652344 13.835938 12.703125 13.980469 12.703125 L 15.011719 12.703125 C 15.15625 12.703125 15.277344 12.652344 15.378906 12.554688 C 15.480469 12.457031 15.53125 12.335938 15.53125 12.195312 L 15.53125 11.410156 C 15.792969 11.257812 16.015625 11.058594 16.1875 10.816406 C 16.363281 10.570312 16.476562 10.296875 16.53125 10.003906 C 16.585938 9.707031 16.570312 9.414062 16.492188 9.125 C 16.414062 8.832031 16.277344 8.574219 16.078125 8.34375 C 15.882812 8.113281 15.648438 7.9375 15.371094 7.808594 C 15.09375 7.683594 14.800781 7.617188 14.496094 7.617188 C 14.191406 7.617188 13.902344 7.683594 13.625 7.808594 C 13.347656 7.9375 13.109375 8.113281 12.914062 8.34375 C 12.71875 8.574219 12.582031 8.832031 12.5 9.125 C 12.421875 9.414062 12.410156 9.707031 12.460938 10.003906 C 12.515625 10.296875 12.628906 10.570312 12.804688 10.816406 C 12.980469 11.058594 13.199219 11.257812 13.464844 11.410156 Z M 14.496094 8.640625 C 14.75 8.640625 14.96875 8.71875 15.164062 8.878906 C 15.355469 9.035156 15.472656 9.238281 15.515625 9.480469 C 15.558594 9.726562 15.515625 9.953125 15.386719 10.167969 C 15.257812 10.378906 15.078125 10.527344 14.839844 10.609375 C 14.613281 10.6875 14.496094 10.847656 14.496094 11.085938 C 14.496094 10.847656 14.382812 10.6875 14.152344 10.609375 C 13.917969 10.527344 13.734375 10.378906 13.605469 10.167969 C 13.480469 9.953125 13.4375 9.726562 13.480469 9.480469 C 13.523438 9.238281 13.640625 9.035156 13.832031 8.878906 C 14.023438 8.71875 14.246094 8.640625 14.496094 8.640625 Z M 14.496094 8.640625 " fill-opacity="1" fill-rule="nonzero"/><path fill="#013f69" d="M 13.980469 6.101562 L 15.011719 6.101562 L 15.011719 7.117188 L 13.980469 7.117188 Z M 13.980469 6.101562 " fill-opacity="1" fill-rule="nonzero"/><path fill="#013f69" d="M 15.957031 7.503906 L 16.6875 6.785156 L 17.417969 7.503906 L 16.6875 8.21875 Z M 15.957031 7.503906 " fill-opacity="1" fill-rule="nonzero"/><path fill="#013f69" d="M 11.574219 7.503906 L 12.304688 6.785156 L 13.035156 7.5 L 12.304688 8.21875 Z M 11.574219 7.503906 " fill-opacity="1" fill-rule="nonzero"/><path fill="#013f69" d="M 17.078125 9.148438 L 18.113281 9.148438 L 18.113281 10.164062 L 17.078125 10.164062 Z M 17.078125 9.148438 " fill-opacity="1" fill-rule="nonzero"/><path fill="#013f69" d="M 10.882812 9.148438 L 11.914062 9.148438 L 11.914062 10.164062 L 10.882812 10.164062 Z M 10.882812 9.148438 " fill-opacity="1" fill-rule="nonzero"/></svg>