<svg xmlns="http://www.w3.org/2000/svg" xmlns:xlink="http://www.w3.org/1999/xlink" width="40" zoomAndPan="magnify" viewBox="0 0 30 30.000001" height="40" preserveAspectRatio="xMidYMid meet" version="1.0"><defs><clipPath id="bffb05d322"><path d="M 26 12 L 28.789062 12 L 28.789062 15 L 26 15 Z M 26 12 " clip-rule="nonzero"/></clipPath><clipPath id="410b7d0f43"><path d="M 0.484375 8 L 3 8 L 3 11 L 0.484375 11 Z M 0.484375 8 " clip-rule="nonzero"/></clipPath><clipPath id="9fa574d133"><path d="M 3 0 L 26 0 L 26 29.03125 L 3 29.03125 Z M 3 0 " clip-rule="nonzero"/></clipPath><clipPath id="772a378a0a"><path d="M 5 13 L 19 13 L 19 29.03125 L 5 29.03125 Z M 5 13 " clip-rule="nonzero"/></clipPath></defs><path fill="#013f69" d="M 4.265625 16.492188 L 3.527344 16.492188 L 3.527344 17.273438 L 2.757812 17.273438 L 2.757812 18.027344 L 3.527344 18.027344 L 3.527344 18.8125 L 4.265625 18.8125 L 4.265625 18.027344 L 5.03125 18.027344 L 5.03125 17.273438 L 4.265625 17.273438 Z M 4.265625 16.492188 " fill-opacity="1" fill-rule="nonzero"/><g clip-path="url(#bffb05d322)"><path fill="#013f69" d="M 27.996094 12.847656 L 27.996094 12.066406 L 27.257812 12.066406 L 27.257812 12.847656 L 26.492188 12.847656 L 26.492188 13.601562 L 27.257812 13.601562 L 27.257812 14.386719 L 27.996094 14.386719 L 27.996094 13.601562 L 28.765625 13.601562 L 28.765625 12.847656 Z M 27.996094 12.847656 " fill-opacity="1" fill-rule="nonzero"/></g><path fill="#013f69" d="M 24.433594 16.492188 L 23.695312 16.492188 L 23.695312 17.273438 L 22.925781 17.273438 L 22.925781 18.027344 L 23.695312 18.027344 L 23.695312 18.8125 L 24.433594 18.8125 L 24.433594 18.027344 L 25.199219 18.027344 L 25.199219 17.273438 L 24.433594 17.273438 Z M 24.433594 16.492188 " fill-opacity="1" fill-rule="nonzero"/><g clip-path="url(#410b7d0f43)"><path fill="#013f69" d="M 2.789062 9.28125 L 2.019531 9.28125 L 2.019531 8.496094 L 1.285156 8.496094 L 1.285156 9.28125 L 0.515625 9.28125 L 0.515625 10.035156 L 1.285156 10.035156 L 1.285156 10.820312 L 2.019531 10.820312 L 2.019531 10.035156 L 2.789062 10.035156 Z M 2.789062 9.28125 " fill-opacity="1" fill-rule="nonzero"/></g><path fill="#013f69" d="M 19.226562 4.347656 L 23.648438 4.347656 L 23.648438 5.101562 L 19.226562 5.101562 Z M 19.226562 4.347656 " fill-opacity="1" fill-rule="nonzero"/><path fill="#013f69" d="M 13.863281 4.347656 L 18.285156 4.347656 L 18.285156 5.101562 L 13.863281 5.101562 Z M 13.863281 4.347656 " fill-opacity="1" fill-rule="nonzero"/><path fill="#013f69" d="M 19.226562 5.769531 L 23.648438 5.769531 L 23.648438 6.523438 L 19.226562 6.523438 Z M 19.226562 5.769531 " fill-opacity="1" fill-rule="nonzero"/><path fill="#013f69" d="M 13.863281 5.707031 L 18.285156 5.707031 L 18.285156 6.457031 L 13.863281 6.457031 Z M 13.863281 5.707031 " fill-opacity="1" fill-rule="nonzero"/><path fill="#013f69" d="M 19.226562 7.140625 L 23.648438 7.140625 L 23.648438 7.894531 L 19.226562 7.894531 Z M 19.226562 7.140625 " fill-opacity="1" fill-rule="nonzero"/><g clip-path="url(#9fa574d133)"><path fill="#013f69" d="M 3.527344 14.671875 L 6.148438 14.675781 L 6.152344 13.921875 L 4.265625 13.917969 L 4.265625 0.753906 L 24.882812 0.753906 L 24.882812 2.15625 L 12.222656 2.15625 L 12.222656 2.910156 L 24.882812 2.910156 L 24.882812 13.921875 L 21.105469 13.921875 L 21.21875 14.386719 C 21.511719 15.601562 21.484375 16.886719 21.148438 18.101562 L 20.070312 21.988281 L 20.070312 29.382812 L 20.808594 29.382812 L 20.808594 22.09375 L 21.859375 18.304688 C 22.1875 17.121094 22.246094 15.875 22.03125 14.675781 L 25.621094 14.675781 L 25.621094 0 L 3.527344 0 Z M 3.527344 14.671875 " fill-opacity="1" fill-rule="nonzero"/></g><path fill="#013f69" d="M 9.007812 14.675781 L 12.347656 14.675781 L 14.574219 17.175781 L 16.808594 14.675781 L 20.496094 14.675781 L 20.496094 13.921875 L 16.484375 13.921875 L 14.574219 16.058594 L 12.671875 13.921875 L 9.007812 13.921875 Z M 9.007812 14.675781 " fill-opacity="1" fill-rule="nonzero"/><path fill="#013f69" d="M 14.539062 14.914062 L 18.117188 10.910156 L 17.574219 10.402344 L 14.539062 13.796875 L 13.453125 12.574219 L 12.910156 13.082031 Z M 14.539062 14.914062 " fill-opacity="1" fill-rule="nonzero"/><path fill="#013f69" d="M 5.222656 7.652344 L 10.871094 7.652344 L 10.871094 1.886719 L 5.222656 1.886719 Z M 5.960938 2.636719 L 10.132812 2.636719 L 10.132812 4.953125 L 8.046875 3.21875 L 5.960938 4.953125 Z M 5.960938 5.925781 L 8.046875 4.191406 L 10.132812 5.925781 L 10.132812 6.898438 L 5.960938 6.898438 Z M 5.960938 5.925781 " fill-opacity="1" fill-rule="nonzero"/><g clip-path="url(#772a378a0a)"><path fill="#013f69" d="M 12.554688 25.773438 L 15.765625 25.773438 L 17.949219 23.15625 L 17.390625 22.667969 L 15.425781 25.019531 L 8.84375 25.019531 C 8.335938 25.019531 7.921875 24.597656 7.921875 24.078125 L 7.921875 20.296875 L 6.542969 19.960938 C 6.414062 19.929688 6.3125 19.839844 6.261719 19.714844 C 6.210938 19.589844 6.222656 19.453125 6.292969 19.339844 L 8.078125 16.40625 L 8.078125 15.378906 C 8.078125 15.035156 8.136719 14.257812 8.1875 13.921875 L 7.449219 13.921875 C 7.394531 14.296875 7.339844 14.996094 7.339844 15.378906 L 7.339844 16.191406 L 5.667969 18.941406 C 5.46875 19.265625 5.4375 19.652344 5.582031 20.003906 C 5.722656 20.355469 6.011719 20.605469 6.375 20.695312 L 7.183594 20.890625 L 7.183594 24.078125 C 7.183594 25.011719 7.929688 25.773438 8.84375 25.773438 L 11.816406 25.773438 L 11.816406 29.757812 L 18.285156 29.757812 L 18.285156 29.003906 L 12.554688 29.003906 Z M 12.554688 25.773438 " fill-opacity="1" fill-rule="nonzero"/></g><path fill="#013f69" d="M 21.492188 12.882812 C 21.363281 12.582031 21.214844 12.289062 21.050781 12.007812 L 20.417969 12.390625 C 20.566406 12.648438 20.703125 12.914062 20.820312 13.1875 Z M 21.492188 12.882812 " fill-opacity="1" fill-rule="nonzero"/><path fill="#013f69" d="M 19.390625 11.023438 C 19.59375 11.234375 19.785156 11.460938 19.960938 11.699219 L 20.546875 11.242188 C 20.351562 10.980469 20.140625 10.730469 19.917969 10.496094 Z M 19.390625 11.023438 " fill-opacity="1" fill-rule="nonzero"/><path fill="#013f69" d="M 7.695312 13.097656 L 8.398438 13.332031 C 8.488281 13.050781 8.597656 12.773438 8.726562 12.507812 L 8.0625 12.175781 C 7.921875 12.472656 7.796875 12.78125 7.695312 13.097656 Z M 7.695312 13.097656 " fill-opacity="1" fill-rule="nonzero"/><path fill="#013f69" d="M 12.1875 8.476562 C 11.882812 8.582031 11.578125 8.707031 11.289062 8.855469 L 11.617188 9.53125 C 11.875 9.398438 12.144531 9.285156 12.421875 9.191406 Z M 12.1875 8.476562 " fill-opacity="1" fill-rule="nonzero"/><path fill="#013f69" d="M 9.652344 11.078125 L 9.097656 10.582031 C 8.886719 10.832031 8.6875 11.097656 8.511719 11.371094 L 9.128906 11.785156 C 9.285156 11.539062 9.464844 11.300781 9.652344 11.078125 Z M 9.652344 11.078125 " fill-opacity="1" fill-rule="nonzero"/><path fill="#013f69" d="M 9.734375 9.925781 L 10.226562 10.488281 C 10.441406 10.292969 10.675781 10.109375 10.914062 9.945312 L 10.503906 9.316406 C 10.238281 9.5 9.976562 9.707031 9.734375 9.925781 Z M 9.734375 9.925781 " fill-opacity="1" fill-rule="nonzero"/><path fill="#013f69" d="M 15.753906 9.007812 L 15.894531 8.265625 C 15.582031 8.203125 15.257812 8.160156 14.9375 8.140625 L 14.886719 8.890625 C 15.175781 8.910156 15.46875 8.949219 15.753906 9.007812 Z M 15.753906 9.007812 " fill-opacity="1" fill-rule="nonzero"/><path fill="#013f69" d="M 17.355469 9.539062 L 17.671875 8.859375 C 17.378906 8.71875 17.074219 8.597656 16.769531 8.496094 L 16.542969 9.214844 C 16.820312 9.304688 17.09375 9.414062 17.355469 9.539062 Z M 17.355469 9.539062 " fill-opacity="1" fill-rule="nonzero"/><path fill="#013f69" d="M 18.074219 9.9375 C 18.320312 10.097656 18.558594 10.269531 18.785156 10.457031 L 19.25 9.875 C 19 9.667969 18.734375 9.472656 18.464844 9.300781 Z M 18.074219 9.9375 " fill-opacity="1" fill-rule="nonzero"/><path fill="#013f69" d="M 13.207031 8.984375 C 13.488281 8.929688 13.777344 8.894531 14.070312 8.882812 L 14.035156 8.128906 C 13.710938 8.144531 13.386719 8.183594 13.066406 8.246094 Z M 13.207031 8.984375 " fill-opacity="1" fill-rule="nonzero"/></svg>