<svg xmlns="http://www.w3.org/2000/svg" xmlns:xlink="http://www.w3.org/1999/xlink" width="40" zoomAndPan="magnify" viewBox="0 0 30 30.000001" height="40" preserveAspectRatio="xMidYMid meet" version="1.0"><defs><clipPath id="3ef97d441f"><path d="M 0.484375 0.726562 L 28.789062 0.726562 L 28.789062 29.03125 L 0.484375 29.03125 Z M 0.484375 0.726562 " clip-rule="nonzero"/></clipPath></defs><g clip-path="url(#3ef97d441f)"><path fill="#013f69" d="M 27.175781 10.167969 C 28.214844 9.128906 28.789062 7.734375 28.789062 6.253906 C 28.789062 3.203125 26.3125 0.726562 23.261719 0.726562 C 20.210938 0.726562 17.734375 3.203125 17.734375 6.253906 C 17.734375 7.691406 18.285156 9.0625 19.28125 10.082031 C 20.210938 11.054688 21.425781 11.628906 22.753906 11.761719 L 21.292969 14.4375 L 19.921875 14.4375 C 19.703125 11.714844 17.402344 9.570312 14.636719 9.570312 C 11.871094 9.570312 9.574219 11.714844 9.351562 14.4375 L 8.203125 14.4375 L 6.71875 11.738281 C 7.9375 11.585938 9.042969 11.03125 9.90625 10.167969 C 10.945312 9.128906 11.519531 7.734375 11.519531 6.253906 C 11.542969 3.203125 9.0625 0.726562 6.011719 0.726562 C 2.960938 0.726562 0.484375 3.203125 0.484375 6.253906 C 0.484375 7.691406 1.035156 9.0625 2.03125 10.082031 C 3.027344 11.121094 4.332031 11.695312 5.746094 11.761719 L 7.449219 14.855469 L 5.746094 17.953125 C 2.828125 18.128906 0.484375 20.539062 0.484375 23.503906 C 0.484375 24.941406 1.035156 26.3125 2.03125 27.328125 C 3.09375 28.414062 4.488281 29.03125 6.011719 29.03125 C 7.492188 29.03125 8.886719 28.457031 9.925781 27.417969 C 10.964844 26.378906 11.542969 24.984375 11.542969 23.503906 C 11.542969 20.695312 9.441406 18.375 6.742188 18.019531 L 8.203125 15.320312 L 9.351562 15.320312 C 9.574219 18.042969 11.871094 20.1875 14.636719 20.1875 C 17.402344 20.1875 19.703125 18.042969 19.921875 15.320312 L 21.292969 15.320312 L 22.753906 17.996094 C 19.945312 18.261719 17.734375 20.628906 17.734375 23.503906 C 17.734375 24.941406 18.285156 26.3125 19.28125 27.328125 C 20.34375 28.414062 21.734375 29.03125 23.261719 29.03125 C 24.742188 29.03125 26.136719 28.457031 27.175781 27.417969 C 28.214844 26.378906 28.789062 24.984375 28.789062 23.503906 C 28.789062 20.628906 26.578125 18.242188 23.75 17.996094 L 22.046875 14.878906 L 23.75 11.761719 C 25.054688 11.648438 26.246094 11.097656 27.175781 10.167969 Z M 1.367188 6.253906 C 1.367188 3.6875 3.445312 1.609375 6.011719 1.609375 C 8.578125 1.609375 10.65625 3.6875 10.65625 6.253906 C 10.65625 7.359375 10.28125 8.398438 9.574219 9.238281 C 8.886719 8.730469 8.070312 8.597656 8.023438 8.597656 C 7.625 8.53125 7.539062 8.023438 7.539062 7.933594 C 8.046875 7.339844 8.3125 6.628906 8.421875 6.210938 C 8.488281 5.945312 8.535156 5.679688 8.535156 5.414062 C 8.535156 5.304688 8.535156 5.214844 8.511719 5.105469 C 8.710938 4.664062 8.710938 4.175781 8.601562 3.753906 C 8.535156 3.46875 8.246094 3.292969 7.9375 3.3125 C 7.691406 3.335938 7.117188 3.160156 6.808594 3.027344 C 5.414062 2.429688 4.398438 3.09375 3.976562 3.601562 C 3.359375 3.886719 3.25 4.640625 3.292969 5.28125 C 3.292969 5.324219 3.292969 5.371094 3.292969 5.414062 C 3.292969 6.320312 3.691406 7.359375 4.289062 8.046875 C 4.308594 8.066406 4.308594 8.066406 4.332031 8.089844 C 4.289062 8.265625 4.15625 8.53125 3.890625 8.597656 C 3.84375 8.597656 3.09375 8.730469 2.40625 9.195312 C 1.746094 8.355469 1.367188 7.339844 1.367188 6.253906 Z M 4.796875 6.5625 C 4.839844 6.5625 4.882812 6.5625 4.949219 6.542969 C 5.128906 6.496094 5.238281 6.429688 5.480469 5.789062 C 6.410156 6.320312 7.363281 6.054688 7.40625 6.054688 C 7.429688 6.054688 7.429688 6.054688 7.449219 6.035156 C 7.492188 6.011719 7.539062 5.988281 7.582031 5.96875 C 7.382812 6.652344 7.03125 7.25 6.585938 7.601562 C 6.121094 7.980469 5.414062 7.890625 4.972656 7.40625 C 4.75 7.160156 4.597656 6.851562 4.464844 6.542969 Z M 4.242188 5.703125 C 4.15625 5.125 4.175781 4.464844 4.421875 4.375 C 4.507812 4.351562 4.597656 4.285156 4.640625 4.199219 C 4.6875 4.132812 5.039062 3.667969 5.726562 3.667969 C 5.945312 3.667969 6.1875 3.710938 6.476562 3.84375 C 6.609375 3.910156 7.273438 4.152344 7.78125 4.175781 C 7.824219 4.550781 7.714844 4.972656 7.117188 5.214844 C 6.984375 5.238281 6.1875 5.390625 5.546875 4.773438 C 5.4375 4.664062 5.28125 4.617188 5.148438 4.664062 C 5.015625 4.707031 4.882812 4.792969 4.839844 4.949219 C 4.75 5.191406 4.640625 5.503906 4.554688 5.679688 Z M 3.050781 9.816406 C 3.511719 9.550781 4.023438 9.460938 4.042969 9.460938 C 4.574219 9.371094 4.90625 8.996094 5.082031 8.644531 C 5.171875 8.6875 5.261719 8.710938 5.347656 8.730469 C 5.371094 8.730469 5.546875 8.777344 5.792969 8.796875 C 5.859375 8.796875 5.902344 8.796875 5.96875 8.796875 C 6.300781 8.796875 6.542969 8.730469 6.566406 8.730469 C 6.652344 8.710938 6.742188 8.6875 6.832031 8.644531 C 7.007812 9.019531 7.339844 9.371094 7.871094 9.484375 C 7.871094 9.484375 8.445312 9.570312 8.929688 9.882812 C 9.0625 9.769531 9.175781 9.660156 9.285156 9.550781 C 8.402344 10.433594 7.25 10.921875 5.992188 10.921875 C 4.90625 10.898438 3.867188 10.523438 3.050781 9.816406 Z M 10.65625 23.503906 C 10.65625 24.742188 10.171875 25.914062 9.308594 26.777344 C 8.421875 27.660156 7.273438 28.148438 6.011719 28.148438 C 4.90625 28.148438 3.867188 27.773438 3.027344 27.0625 C 3.492188 26.796875 4 26.710938 4.023438 26.710938 C 4.554688 26.621094 4.882812 26.246094 5.0625 25.890625 C 5.148438 25.9375 5.238281 25.957031 5.328125 25.980469 C 5.347656 25.980469 5.527344 26.023438 5.769531 26.046875 C 5.835938 26.046875 5.878906 26.046875 5.945312 26.046875 C 6.277344 26.046875 6.519531 25.980469 6.542969 25.980469 C 6.632812 25.957031 6.71875 25.9375 6.808594 25.890625 C 6.984375 26.269531 7.316406 26.621094 7.847656 26.730469 C 7.847656 26.730469 8.421875 26.820312 8.910156 27.128906 C 9.042969 27.019531 9.152344 26.910156 9.261719 26.796875 C 9.351562 26.710938 9.460938 26.601562 9.527344 26.488281 C 8.84375 25.980469 8.023438 25.847656 7.980469 25.847656 C 7.582031 25.78125 7.492188 25.273438 7.492188 25.183594 C 8.003906 24.585938 8.269531 23.878906 8.378906 23.460938 C 8.445312 23.195312 8.488281 22.929688 8.488281 22.664062 C 8.488281 22.554688 8.488281 22.464844 8.46875 22.355469 C 8.667969 21.910156 8.667969 21.425781 8.554688 21.003906 C 8.488281 20.71875 8.203125 20.539062 7.890625 20.5625 C 7.648438 20.585938 7.074219 20.40625 6.765625 20.273438 C 5.371094 19.679688 4.355469 20.339844 3.933594 20.851562 C 3.316406 21.136719 3.203125 21.890625 3.25 22.53125 C 3.25 22.574219 3.25 22.617188 3.25 22.664062 C 3.25 23.570312 3.644531 24.609375 4.242188 25.296875 C 4.265625 25.316406 4.265625 25.316406 4.289062 25.339844 C 4.242188 25.515625 4.109375 25.78125 3.84375 25.847656 C 3.800781 25.847656 3.050781 25.980469 2.363281 26.445312 C 1.699219 25.625 1.324219 24.609375 1.324219 23.527344 C 1.324219 20.960938 3.402344 18.882812 5.96875 18.882812 C 8.535156 18.882812 10.65625 20.9375 10.65625 23.503906 Z M 4.796875 23.8125 C 4.839844 23.8125 4.882812 23.8125 4.949219 23.792969 C 5.128906 23.746094 5.238281 23.679688 5.480469 23.039062 C 6.410156 23.570312 7.363281 23.304688 7.40625 23.304688 C 7.429688 23.304688 7.429688 23.304688 7.449219 23.28125 C 7.492188 23.261719 7.539062 23.238281 7.582031 23.214844 C 7.382812 23.902344 7.03125 24.5 6.585938 24.851562 C 6.121094 25.230469 5.414062 25.140625 4.972656 24.652344 C 4.75 24.410156 4.597656 24.101562 4.464844 23.792969 Z M 4.242188 22.949219 C 4.15625 22.375 4.175781 21.710938 4.421875 21.625 C 4.507812 21.601562 4.597656 21.535156 4.640625 21.445312 C 4.664062 21.425781 5.015625 20.917969 5.726562 20.917969 C 5.945312 20.917969 6.1875 20.960938 6.476562 21.09375 C 6.609375 21.160156 7.273438 21.402344 7.78125 21.425781 C 7.824219 21.800781 7.714844 22.222656 7.117188 22.464844 C 6.984375 22.488281 6.1875 22.640625 5.546875 22.023438 C 5.4375 21.910156 5.28125 21.867188 5.148438 21.910156 C 4.996094 21.957031 4.882812 22.042969 4.839844 22.199219 C 4.75 22.441406 4.640625 22.75 4.554688 22.929688 Z M 14.636719 19.300781 C 12.203125 19.300781 10.214844 17.3125 10.214844 14.878906 C 10.214844 12.445312 12.203125 10.457031 14.636719 10.457031 C 17.070312 10.457031 19.058594 12.445312 19.058594 14.878906 C 19.058594 17.3125 17.070312 19.300781 14.636719 19.300781 Z M 27.90625 23.503906 C 27.90625 24.742188 27.417969 25.914062 26.558594 26.777344 C 25.671875 27.660156 24.523438 28.148438 23.261719 28.148438 C 22.15625 28.148438 21.117188 27.773438 20.277344 27.0625 C 20.742188 26.796875 21.25 26.710938 21.269531 26.710938 C 21.800781 26.621094 22.132812 26.246094 22.3125 25.890625 C 22.398438 25.9375 22.488281 25.957031 22.574219 25.980469 C 22.597656 25.980469 22.773438 26.023438 23.019531 26.046875 C 23.085938 26.046875 23.128906 26.046875 23.195312 26.046875 C 23.527344 26.046875 23.769531 25.980469 23.792969 25.980469 C 23.882812 25.957031 23.96875 25.9375 24.058594 25.890625 C 24.234375 26.269531 24.566406 26.621094 25.097656 26.730469 C 25.097656 26.730469 25.671875 26.820312 26.160156 27.128906 C 26.292969 27.019531 26.402344 26.910156 26.511719 26.796875 C 26.601562 26.710938 26.710938 26.601562 26.777344 26.488281 C 26.09375 25.980469 25.273438 25.847656 25.230469 25.847656 C 24.832031 25.78125 24.742188 25.273438 24.742188 25.183594 C 25.253906 24.585938 25.515625 23.878906 25.628906 23.460938 C 25.695312 23.195312 25.738281 22.929688 25.738281 22.664062 C 25.738281 22.554688 25.738281 22.464844 25.714844 22.355469 C 25.914062 21.910156 25.914062 21.425781 25.804688 21.003906 C 25.738281 20.71875 25.449219 20.539062 25.140625 20.5625 C 24.921875 20.585938 24.324219 20.40625 24.011719 20.273438 C 22.621094 19.679688 21.601562 20.339844 21.183594 20.851562 C 20.5625 21.136719 20.453125 21.890625 20.496094 22.53125 C 20.496094 22.574219 20.496094 22.617188 20.496094 22.664062 C 20.496094 23.570312 20.894531 24.609375 21.492188 25.296875 C 21.515625 25.316406 21.515625 25.316406 21.535156 25.339844 C 21.492188 25.515625 21.359375 25.78125 21.09375 25.847656 C 21.050781 25.847656 20.296875 25.980469 19.613281 26.445312 C 18.949219 25.625 18.574219 24.609375 18.574219 23.527344 C 18.574219 20.960938 20.652344 18.882812 23.21875 18.882812 C 25.78125 18.882812 27.90625 20.9375 27.90625 23.503906 Z M 22.046875 23.8125 C 22.089844 23.8125 22.132812 23.8125 22.199219 23.792969 C 22.378906 23.746094 22.488281 23.679688 22.730469 23.039062 C 23.660156 23.570312 24.609375 23.304688 24.65625 23.304688 C 24.675781 23.304688 24.675781 23.304688 24.699219 23.28125 C 24.742188 23.261719 24.789062 23.238281 24.832031 23.214844 C 24.632812 23.902344 24.277344 24.5 23.835938 24.851562 C 23.371094 25.230469 22.664062 25.140625 22.222656 24.652344 C 22 24.410156 21.847656 24.101562 21.714844 23.792969 Z M 21.492188 22.949219 C 21.402344 22.375 21.425781 21.710938 21.667969 21.625 C 21.757812 21.601562 21.847656 21.535156 21.890625 21.445312 C 21.914062 21.425781 22.265625 20.917969 22.972656 20.917969 C 23.195312 20.917969 23.4375 20.960938 23.726562 21.09375 C 23.859375 21.160156 24.523438 21.402344 25.03125 21.425781 C 25.074219 21.800781 24.964844 22.222656 24.367188 22.464844 C 24.234375 22.488281 23.4375 22.640625 22.796875 22.023438 C 22.6875 21.910156 22.53125 21.867188 22.398438 21.910156 C 22.246094 21.957031 22.132812 22.042969 22.089844 22.199219 C 22 22.441406 21.890625 22.75 21.800781 22.929688 Z M 18.617188 6.253906 C 18.617188 3.6875 20.695312 1.609375 23.261719 1.609375 C 25.828125 1.609375 27.90625 3.6875 27.90625 6.253906 C 27.90625 7.359375 27.53125 8.398438 26.820312 9.238281 C 26.136719 8.730469 25.316406 8.597656 25.273438 8.597656 C 24.875 8.53125 24.789062 8.023438 24.789062 7.933594 C 25.296875 7.339844 25.5625 6.628906 25.671875 6.210938 C 25.738281 5.945312 25.78125 5.679688 25.78125 5.414062 C 25.78125 5.304688 25.78125 5.214844 25.761719 5.105469 C 25.960938 4.664062 25.960938 4.175781 25.847656 3.753906 C 25.78125 3.46875 25.496094 3.292969 25.1875 3.3125 C 24.941406 3.335938 24.367188 3.160156 24.058594 3.027344 C 22.664062 2.429688 21.648438 3.09375 21.226562 3.601562 C 20.609375 3.886719 20.496094 4.640625 20.542969 5.28125 C 20.542969 5.324219 20.542969 5.371094 20.542969 5.414062 C 20.542969 6.320312 20.941406 7.359375 21.535156 8.046875 C 21.558594 8.066406 21.558594 8.066406 21.582031 8.089844 C 21.535156 8.265625 21.402344 8.53125 21.140625 8.597656 C 21.09375 8.597656 20.34375 8.730469 19.65625 9.195312 C 18.992188 8.355469 18.617188 7.339844 18.617188 6.253906 Z M 22.046875 6.5625 C 22.089844 6.5625 22.132812 6.5625 22.199219 6.542969 C 22.378906 6.496094 22.488281 6.429688 22.730469 5.789062 C 23.660156 6.320312 24.609375 6.054688 24.65625 6.054688 C 24.675781 6.054688 24.675781 6.054688 24.699219 6.035156 C 24.742188 6.011719 24.789062 5.988281 24.832031 5.96875 C 24.632812 6.652344 24.277344 7.25 23.835938 7.601562 C 23.371094 7.980469 22.664062 7.890625 22.222656 7.40625 C 22 7.160156 21.847656 6.851562 21.714844 6.542969 Z M 21.492188 5.703125 C 21.402344 5.125 21.425781 4.464844 21.667969 4.375 C 21.757812 4.351562 21.847656 4.285156 21.890625 4.199219 C 21.933594 4.132812 22.289062 3.667969 22.972656 3.667969 C 23.195312 3.667969 23.4375 3.710938 23.726562 3.84375 C 23.859375 3.910156 24.523438 4.152344 25.03125 4.175781 C 25.074219 4.550781 24.964844 4.972656 24.367188 5.214844 C 24.234375 5.238281 23.4375 5.390625 22.796875 4.773438 C 22.6875 4.664062 22.53125 4.617188 22.398438 4.664062 C 22.265625 4.707031 22.132812 4.792969 22.089844 4.949219 C 22 5.191406 21.890625 5.503906 21.800781 5.679688 Z M 20.296875 9.816406 C 20.761719 9.550781 21.269531 9.460938 21.292969 9.460938 C 21.824219 9.371094 22.15625 8.996094 22.332031 8.644531 C 22.421875 8.6875 22.511719 8.710938 22.597656 8.730469 C 22.621094 8.730469 22.796875 8.777344 23.039062 8.796875 C 23.105469 8.796875 23.152344 8.796875 23.21875 8.796875 C 23.550781 8.796875 23.792969 8.730469 23.816406 8.730469 C 23.902344 8.710938 23.992188 8.6875 24.078125 8.644531 C 24.257812 9.019531 24.589844 9.371094 25.121094 9.484375 C 25.121094 9.484375 25.695312 9.570312 26.179688 9.882812 C 26.3125 9.769531 26.425781 9.660156 26.535156 9.550781 C 25.648438 10.433594 24.5 10.921875 23.238281 10.921875 C 22.15625 10.898438 21.117188 10.523438 20.296875 9.816406 Z M 20.296875 9.816406 " fill-opacity="1" fill-rule="nonzero"/></g><path fill="#013f69" d="M 17.136719 12.359375 L 12.136719 12.359375 C 11.894531 12.359375 11.695312 12.558594 11.695312 12.800781 L 11.695312 15.785156 C 11.695312 16.027344 11.894531 16.226562 12.136719 16.226562 L 12.492188 16.226562 L 12.492188 16.980469 C 12.492188 17.15625 12.582031 17.3125 12.734375 17.378906 C 12.800781 17.398438 12.867188 17.421875 12.933594 17.421875 C 13.042969 17.421875 13.132812 17.378906 13.222656 17.332031 L 14.570312 16.25 L 17.15625 16.25 C 17.402344 16.25 17.601562 16.050781 17.601562 15.808594 L 17.601562 12.800781 C 17.578125 12.558594 17.378906 12.359375 17.136719 12.359375 Z M 16.695312 15.34375 L 14.394531 15.34375 C 14.285156 15.34375 14.195312 15.386719 14.105469 15.433594 L 13.355469 16.027344 L 13.355469 15.761719 C 13.355469 15.519531 13.15625 15.320312 12.914062 15.320312 L 12.558594 15.320312 L 12.558594 13.21875 L 16.695312 13.21875 Z M 16.695312 15.34375 " fill-opacity="1" fill-rule="nonzero"/></svg>