<svg xmlns="http://www.w3.org/2000/svg" xmlns:xlink="http://www.w3.org/1999/xlink" width="40" zoomAndPan="magnify" viewBox="0 0 30 30.000001" height="40" preserveAspectRatio="xMidYMid meet" version="1.0"><defs><clipPath id="0a2d1208e8"><path d="M 0.484375 1.070312 L 29.515625 1.070312 L 29.515625 27.925781 L 0.484375 27.925781 Z M 0.484375 1.070312 " clip-rule="nonzero"/></clipPath></defs><path fill="#013f69" d="M 19.265625 17.679688 L 26.75 17.679688 C 26.882812 17.679688 26.996094 17.636719 27.089844 17.542969 C 27.183594 17.449219 27.230469 17.335938 27.230469 17.203125 L 27.230469 9.730469 C 27.234375 9.59375 27.1875 9.480469 27.09375 9.386719 C 26.996094 9.292969 26.882812 9.246094 26.75 9.246094 L 19.265625 9.246094 C 19.128906 9.246094 19.015625 9.292969 18.921875 9.386719 C 18.828125 9.484375 18.78125 9.597656 18.78125 9.730469 L 18.78125 17.203125 C 18.785156 17.335938 18.832031 17.449219 18.925781 17.539062 C 19.019531 17.632812 19.132812 17.679688 19.265625 17.679688 Z M 26.265625 16.722656 L 19.71875 16.722656 L 19.71875 10.203125 L 26.238281 10.203125 Z M 26.265625 16.722656 " fill-opacity="1" fill-rule="nonzero"/><path fill="#013f69" d="M 21.847656 15.695312 C 22.070312 15.925781 22.339844 16.042969 22.664062 16.042969 L 22.746094 16.042969 C 23.101562 16.015625 23.378906 15.859375 23.585938 15.566406 L 25.804688 12.40625 C 25.882812 12.300781 25.910156 12.179688 25.882812 12.050781 C 25.859375 11.917969 25.792969 11.816406 25.683594 11.742188 L 24.621094 11.03125 C 24.539062 10.976562 24.449219 10.949219 24.351562 10.949219 L 24.265625 10.949219 C 24.136719 10.96875 24.03125 11.03125 23.953125 11.140625 L 22.554688 13.117188 L 21.917969 12.449219 C 21.820312 12.351562 21.707031 12.304688 21.570312 12.300781 C 21.441406 12.300781 21.332031 12.34375 21.234375 12.429688 L 20.300781 13.320312 C 20.207031 13.417969 20.15625 13.53125 20.152344 13.660156 C 20.152344 13.792969 20.195312 13.90625 20.285156 14.003906 Z M 22.554688 14.378906 L 22.597656 14.378906 C 22.75 14.367188 22.867188 14.296875 22.953125 14.171875 L 24.449219 12.046875 L 24.71875 12.238281 L 22.777344 15.023438 C 22.746094 15.074219 22.699219 15.097656 22.640625 15.09375 C 22.605469 15.082031 22.578125 15.0625 22.554688 15.03125 L 21.300781 13.710938 L 21.542969 13.484375 L 22.25 14.230469 C 22.332031 14.316406 22.433594 14.367188 22.554688 14.378906 Z M 22.554688 14.378906 " fill-opacity="1" fill-rule="nonzero"/><path fill="#013f69" d="M 14.425781 10.652344 L 16.042969 10.652344 C 16.175781 10.652344 16.289062 10.601562 16.382812 10.507812 C 16.476562 10.414062 16.523438 10.300781 16.523438 10.167969 C 16.523438 10.035156 16.476562 9.921875 16.382812 9.828125 C 16.289062 9.734375 16.175781 9.6875 16.042969 9.6875 L 14.425781 9.6875 C 14.292969 9.6875 14.179688 9.734375 14.085938 9.828125 C 13.988281 9.921875 13.941406 10.035156 13.941406 10.167969 C 13.941406 10.300781 13.988281 10.414062 14.085938 10.507812 C 14.179688 10.601562 14.292969 10.652344 14.425781 10.652344 Z M 14.425781 10.652344 " fill-opacity="1" fill-rule="nonzero"/><path fill="#013f69" d="M 12.175781 12.480469 L 16.042969 12.480469 C 16.1875 12.496094 16.3125 12.457031 16.421875 12.359375 C 16.53125 12.265625 16.582031 12.144531 16.582031 12 C 16.582031 11.855469 16.53125 11.734375 16.421875 11.640625 C 16.3125 11.542969 16.1875 11.503906 16.042969 11.523438 L 12.175781 11.523438 C 12.03125 11.503906 11.90625 11.542969 11.796875 11.640625 C 11.691406 11.734375 11.636719 11.855469 11.636719 12 C 11.636719 12.144531 11.691406 12.265625 11.796875 12.359375 C 11.90625 12.457031 12.03125 12.496094 12.175781 12.480469 Z M 12.175781 12.480469 " fill-opacity="1" fill-rule="nonzero"/><g clip-path="url(#0a2d1208e8)"><path fill="#013f69" d="M 27.28125 3.453125 L 27.230469 3.453125 L 27.230469 3.230469 C 27.226562 2.949219 27.167969 2.675781 27.054688 2.414062 C 26.941406 2.15625 26.785156 1.925781 26.582031 1.726562 C 26.378906 1.527344 26.144531 1.375 25.882812 1.265625 C 25.617188 1.160156 25.34375 1.105469 25.058594 1.105469 L 2.726562 1.105469 C 2.441406 1.105469 2.167969 1.160156 1.90625 1.269531 C 1.644531 1.375 1.414062 1.53125 1.210938 1.726562 C 1.007812 1.925781 0.851562 2.15625 0.738281 2.417969 C 0.625 2.675781 0.566406 2.949219 0.5625 3.230469 L 0.5625 23.390625 C 0.5625 23.675781 0.617188 23.953125 0.726562 24.21875 C 0.835938 24.484375 0.992188 24.71875 1.195312 24.921875 C 1.398438 25.125 1.632812 25.28125 1.898438 25.390625 C 2.164062 25.503906 2.4375 25.558594 2.726562 25.558594 L 2.777344 25.558594 L 2.777344 25.769531 C 2.777344 26.058594 2.832031 26.335938 2.941406 26.601562 C 3.050781 26.867188 3.207031 27.101562 3.410156 27.304688 C 3.617188 27.507812 3.851562 27.664062 4.117188 27.773438 C 4.382812 27.882812 4.660156 27.941406 4.945312 27.941406 L 27.28125 27.941406 C 27.566406 27.9375 27.84375 27.882812 28.109375 27.773438 C 28.375 27.660156 28.609375 27.503906 28.8125 27.300781 C 29.015625 27.097656 29.171875 26.863281 29.28125 26.597656 C 29.390625 26.335938 29.445312 26.058594 29.445312 25.769531 L 29.445312 5.613281 C 29.445312 5.328125 29.386719 5.050781 29.277344 4.785156 C 29.167969 4.523438 29.011719 4.289062 28.808594 4.085938 C 28.605469 3.882812 28.371094 3.726562 28.109375 3.617188 C 27.84375 3.507812 27.566406 3.453125 27.28125 3.453125 Z M 2.777344 5.613281 L 2.777344 24.601562 L 2.726562 24.601562 C 2.566406 24.601562 2.410156 24.570312 2.265625 24.507812 C 2.117188 24.445312 1.984375 24.359375 1.871094 24.246094 C 1.761719 24.132812 1.671875 24 1.613281 23.851562 C 1.550781 23.703125 1.519531 23.550781 1.519531 23.390625 L 1.519531 3.230469 C 1.519531 3.070312 1.550781 2.917969 1.613281 2.773438 C 1.675781 2.625 1.761719 2.496094 1.875 2.382812 C 1.988281 2.269531 2.117188 2.183594 2.265625 2.121094 C 2.414062 2.058594 2.566406 2.027344 2.726562 2.027344 L 25.058594 2.027344 C 25.21875 2.027344 25.375 2.058594 25.523438 2.117188 C 25.667969 2.179688 25.800781 2.265625 25.914062 2.378906 C 26.027344 2.492188 26.113281 2.625 26.175781 2.769531 C 26.234375 2.917969 26.265625 3.070312 26.265625 3.230469 L 26.265625 3.453125 L 4.980469 3.453125 C 4.691406 3.445312 4.410156 3.496094 4.140625 3.605469 C 3.871094 3.714844 3.632812 3.867188 3.425781 4.070312 C 3.21875 4.273438 3.058594 4.507812 2.945312 4.777344 C 2.832031 5.042969 2.777344 5.324219 2.777344 5.613281 Z M 28.488281 6.03125 L 20.363281 6.03125 C 20.246094 6.03125 20.140625 6.070312 20.050781 6.144531 L 19.109375 6.980469 L 7.960938 6.980469 C 7.828125 6.980469 7.714844 7.027344 7.621094 7.121094 C 7.527344 7.214844 7.480469 7.328125 7.480469 7.460938 C 7.480469 7.59375 7.527344 7.707031 7.621094 7.800781 C 7.714844 7.898438 7.828125 7.945312 7.960938 7.945312 L 19.3125 7.945312 C 19.433594 7.941406 19.535156 7.902344 19.625 7.824219 L 20.578125 7 L 28.488281 7 L 28.488281 25.769531 C 28.488281 25.929688 28.457031 26.085938 28.394531 26.230469 C 28.332031 26.378906 28.246094 26.511719 28.132812 26.625 C 28.019531 26.734375 27.890625 26.824219 27.742188 26.882812 C 27.59375 26.945312 27.441406 26.976562 27.28125 26.976562 L 4.945312 26.976562 C 4.785156 26.976562 4.632812 26.945312 4.484375 26.882812 C 4.335938 26.824219 4.207031 26.734375 4.09375 26.625 C 3.980469 26.511719 3.894531 26.378906 3.832031 26.230469 C 3.769531 26.085938 3.742188 25.929688 3.742188 25.769531 L 3.742188 5.613281 C 3.742188 5.453125 3.769531 5.300781 3.832031 5.152344 C 3.894531 5.003906 3.980469 4.875 4.09375 4.761719 C 4.207031 4.648438 4.335938 4.5625 4.484375 4.5 C 4.632812 4.4375 4.785156 4.40625 4.945312 4.40625 L 27.28125 4.40625 C 27.441406 4.40625 27.59375 4.4375 27.742188 4.5 C 27.890625 4.5625 28.019531 4.648438 28.132812 4.761719 C 28.246094 4.875 28.332031 5.003906 28.394531 5.152344 C 28.457031 5.300781 28.488281 5.453125 28.488281 5.613281 Z M 28.488281 6.03125 " fill-opacity="1" fill-rule="nonzero"/></g><path fill="#013f69" d="M 7.003906 13.195312 C 7.023438 13.050781 6.984375 12.925781 6.886719 12.816406 C 6.789062 12.707031 6.671875 12.652344 6.527344 12.652344 C 6.378906 12.652344 6.261719 12.707031 6.164062 12.816406 C 6.066406 12.925781 6.027344 13.050781 6.046875 13.195312 L 6.046875 24.277344 L 5.675781 24.277344 C 5.542969 24.277344 5.429688 24.324219 5.335938 24.417969 C 5.242188 24.511719 5.195312 24.625 5.195312 24.757812 C 5.195312 24.890625 5.242188 25.003906 5.335938 25.097656 C 5.429688 25.191406 5.542969 25.238281 5.675781 25.238281 L 21.5625 25.238281 C 21.695312 25.238281 21.808594 25.191406 21.902344 25.097656 C 21.996094 25.003906 22.046875 24.890625 22.046875 24.757812 C 22.046875 24.625 21.996094 24.511719 21.902344 24.417969 C 21.808594 24.324219 21.695312 24.277344 21.5625 24.277344 L 20.964844 24.277344 L 20.964844 21.617188 C 20.964844 21.484375 20.917969 21.371094 20.824219 21.277344 C 20.730469 21.183594 20.617188 21.136719 20.484375 21.136719 C 20.351562 21.136719 20.238281 21.183594 20.144531 21.277344 C 20.050781 21.371094 20 21.484375 20 21.617188 L 20 24.304688 L 18.640625 24.304688 L 18.640625 20.328125 C 18.640625 20.195312 18.59375 20.082031 18.5 19.988281 C 18.402344 19.894531 18.289062 19.847656 18.15625 19.847656 C 18.023438 19.847656 17.910156 19.894531 17.816406 19.988281 C 17.722656 20.082031 17.675781 20.195312 17.675781 20.328125 L 17.675781 24.277344 L 16.3125 24.277344 L 16.3125 19.066406 C 16.3125 18.933594 16.265625 18.820312 16.171875 18.726562 C 16.078125 18.632812 15.964844 18.585938 15.828125 18.585938 C 15.695312 18.585938 15.582031 18.632812 15.488281 18.726562 C 15.394531 18.820312 15.347656 18.933594 15.347656 19.066406 L 15.347656 24.277344 L 13.984375 24.277344 L 13.984375 16.972656 C 13.984375 16.835938 13.9375 16.722656 13.84375 16.628906 C 13.75 16.535156 13.636719 16.488281 13.503906 16.488281 C 13.371094 16.488281 13.257812 16.535156 13.160156 16.628906 C 13.066406 16.722656 13.019531 16.835938 13.019531 16.972656 L 13.019531 24.277344 L 11.660156 24.277344 L 11.660156 15.710938 C 11.644531 15.589844 11.589844 15.488281 11.5 15.40625 C 11.40625 15.328125 11.300781 15.285156 11.179688 15.285156 C 11.058594 15.285156 10.949219 15.328125 10.859375 15.40625 C 10.769531 15.488281 10.714844 15.589844 10.699219 15.710938 L 10.699219 24.277344 L 9.332031 24.277344 L 9.332031 17.367188 C 9.332031 17.234375 9.285156 17.121094 9.191406 17.027344 C 9.097656 16.933594 8.980469 16.886719 8.847656 16.886719 C 8.714844 16.886719 8.601562 16.933594 8.507812 17.027344 C 8.414062 17.121094 8.367188 17.234375 8.367188 17.367188 L 8.367188 24.253906 L 7.003906 24.253906 Z M 7.003906 13.195312 " fill-opacity="1" fill-rule="nonzero"/></svg>