<svg xmlns="http://www.w3.org/2000/svg" xmlns:xlink="http://www.w3.org/1999/xlink" width="40" zoomAndPan="magnify" viewBox="0 0 30 30.000001" height="40" preserveAspectRatio="xMidYMid meet" version="1.0"><defs><clipPath id="8a77b1441e"><path d="M 2 0.726562 L 27 0.726562 L 27 18 L 2 18 Z M 2 0.726562 " clip-rule="nonzero"/></clipPath><clipPath id="fc5d7f7b63"><path d="M 0.484375 17 L 28.789062 17 L 28.789062 29.03125 L 0.484375 29.03125 Z M 0.484375 17 " clip-rule="nonzero"/></clipPath></defs><path fill="#013f69" d="M 15.078125 17.089844 C 15.078125 17.210938 15.035156 17.316406 14.949219 17.402344 C 14.863281 17.488281 14.757812 17.53125 14.636719 17.53125 C 14.515625 17.53125 14.410156 17.488281 14.324219 17.402344 C 14.238281 17.316406 14.195312 17.210938 14.195312 17.089844 C 14.195312 16.96875 14.238281 16.863281 14.324219 16.777344 C 14.410156 16.691406 14.515625 16.648438 14.636719 16.648438 C 14.757812 16.648438 14.863281 16.691406 14.949219 16.777344 C 15.035156 16.863281 15.078125 16.96875 15.078125 17.089844 Z M 15.078125 17.089844 " fill-opacity="1" fill-rule="nonzero"/><g clip-path="url(#8a77b1441e)"><path fill="#013f69" d="M 3.578125 11.097656 L 3.578125 2.074219 C 3.578125 1.808594 3.777344 1.609375 4.023438 1.609375 L 25.253906 1.609375 C 25.496094 1.609375 25.695312 1.808594 25.695312 2.074219 L 25.695312 16.207031 C 25.695312 16.449219 25.496094 16.671875 25.253906 16.671875 L 16.40625 16.671875 C 16.164062 16.671875 15.964844 16.871094 15.964844 17.113281 C 15.964844 17.355469 16.164062 17.554688 16.40625 17.554688 L 25.253906 17.554688 C 25.980469 17.554688 26.578125 16.957031 26.578125 16.207031 L 26.578125 2.074219 C 26.578125 1.34375 25.980469 0.726562 25.253906 0.726562 L 4.023438 0.726562 C 3.292969 0.726562 2.695312 1.324219 2.695312 2.074219 L 2.695312 12.160156 C 2.9375 11.761719 3.25 11.40625 3.578125 11.097656 Z M 3.578125 11.097656 " fill-opacity="1" fill-rule="nonzero"/></g><g clip-path="url(#fc5d7f7b63)"><path fill="#013f69" d="M 25.980469 23.460938 C 26.359375 23.0625 26.578125 22.53125 26.578125 21.957031 C 26.578125 20.738281 25.582031 19.746094 24.367188 19.746094 C 23.152344 19.746094 22.15625 20.71875 22.15625 21.933594 C 21.847656 21.734375 21.492188 21.578125 21.117188 21.46875 C 21.492188 21.070312 21.714844 20.539062 21.714844 19.964844 C 21.714844 18.75 20.71875 17.753906 19.503906 17.753906 C 18.285156 17.753906 17.289062 18.75 17.289062 19.964844 C 17.289062 20.539062 17.511719 21.070312 17.886719 21.46875 C 17.511719 21.578125 17.15625 21.734375 16.847656 21.933594 C 16.847656 20.71875 15.851562 19.746094 14.636719 19.746094 C 13.421875 19.746094 12.425781 20.71875 12.425781 21.933594 C 12.117188 21.734375 11.761719 21.578125 11.386719 21.46875 C 11.761719 21.070312 11.984375 20.539062 11.984375 19.964844 C 11.984375 18.75 10.988281 17.753906 9.773438 17.753906 C 8.554688 17.753906 7.558594 18.75 7.558594 19.964844 C 7.558594 20.539062 7.78125 21.070312 8.15625 21.46875 C 7.78125 21.578125 7.429688 21.734375 7.117188 21.933594 C 7.117188 20.71875 6.121094 19.746094 4.90625 19.746094 C 3.691406 19.746094 2.695312 20.738281 2.695312 21.957031 C 2.695312 22.53125 2.917969 23.0625 3.292969 23.460938 C 1.65625 23.945312 0.484375 25.359375 0.484375 27.019531 L 0.484375 28.589844 C 0.484375 28.832031 0.683594 29.03125 0.925781 29.03125 C 1.167969 29.03125 1.367188 28.832031 1.367188 28.589844 L 1.367188 27.019531 C 1.367188 25.449219 2.785156 24.167969 4.507812 24.167969 L 5.28125 24.167969 C 7.03125 24.167969 8.421875 25.449219 8.421875 27.019531 L 8.421875 28.589844 C 8.421875 28.832031 8.621094 29.03125 8.863281 29.03125 C 9.109375 29.03125 9.308594 28.832031 9.308594 28.589844 L 9.308594 27.019531 C 9.308594 25.425781 8.222656 24.054688 6.699219 23.527344 C 7.25 22.707031 8.246094 22.175781 9.375 22.175781 L 10.148438 22.175781 C 11.277344 22.175781 12.269531 22.707031 12.824219 23.527344 C 11.296875 24.054688 10.214844 25.425781 10.214844 27.019531 L 10.214844 28.589844 C 10.214844 28.832031 10.414062 29.03125 10.65625 29.03125 C 10.898438 29.03125 11.097656 28.832031 11.097656 28.589844 L 11.097656 27.019531 C 11.097656 25.449219 12.515625 24.167969 14.238281 24.167969 L 15.011719 24.167969 C 16.761719 24.167969 18.152344 25.449219 18.152344 27.019531 L 18.152344 28.589844 C 18.152344 28.832031 18.351562 29.03125 18.59375 29.03125 C 18.839844 29.03125 19.039062 28.832031 19.039062 28.589844 L 19.039062 27.019531 C 19.039062 25.425781 17.953125 24.054688 16.429688 23.527344 C 16.980469 22.707031 17.976562 22.175781 19.105469 22.175781 L 19.878906 22.175781 C 21.007812 22.175781 22 22.707031 22.554688 23.527344 C 21.027344 24.054688 19.945312 25.425781 19.945312 27.019531 L 19.945312 28.589844 C 19.945312 28.832031 20.144531 29.03125 20.386719 29.03125 C 20.628906 29.03125 20.828125 28.832031 20.828125 28.589844 L 20.828125 27.019531 C 20.828125 25.449219 22.246094 24.167969 23.96875 24.167969 L 24.742188 24.167969 C 26.492188 24.167969 27.882812 25.449219 27.882812 27.019531 L 27.882812 28.589844 C 27.882812 28.832031 28.082031 29.03125 28.324219 29.03125 C 28.570312 29.03125 28.769531 28.832031 28.769531 28.589844 L 28.769531 27.019531 C 28.789062 25.359375 27.617188 23.945312 25.980469 23.460938 Z M 24.367188 20.628906 C 25.097656 20.628906 25.695312 21.226562 25.695312 21.957031 C 25.695312 22.683594 25.097656 23.28125 24.367188 23.28125 C 23.636719 23.28125 23.039062 22.683594 23.039062 21.957031 C 23.039062 21.226562 23.636719 20.628906 24.367188 20.628906 Z M 19.503906 18.636719 C 20.230469 18.636719 20.828125 19.234375 20.828125 19.964844 C 20.828125 20.695312 20.230469 21.292969 19.503906 21.292969 C 18.773438 21.292969 18.175781 20.695312 18.175781 19.964844 C 18.175781 19.234375 18.773438 18.636719 19.503906 18.636719 Z M 14.636719 20.628906 C 15.367188 20.628906 15.964844 21.226562 15.964844 21.957031 C 15.964844 22.683594 15.367188 23.28125 14.636719 23.28125 C 13.90625 23.28125 13.308594 22.683594 13.308594 21.957031 C 13.308594 21.226562 13.90625 20.628906 14.636719 20.628906 Z M 9.773438 18.636719 C 10.5 18.636719 11.097656 19.234375 11.097656 19.964844 C 11.097656 20.695312 10.5 21.292969 9.773438 21.292969 C 9.042969 21.292969 8.445312 20.695312 8.445312 19.964844 C 8.445312 19.234375 9.042969 18.636719 9.773438 18.636719 Z M 4.90625 20.628906 C 5.636719 20.628906 6.234375 21.226562 6.234375 21.957031 C 6.234375 22.683594 5.636719 23.28125 4.90625 23.28125 C 4.175781 23.28125 3.578125 22.683594 3.578125 21.957031 C 3.578125 21.226562 4.175781 20.628906 4.90625 20.628906 Z M 4.90625 20.628906 " fill-opacity="1" fill-rule="nonzero"/></g><path fill="#013f69" d="M 12.867188 17.53125 C 13.109375 17.53125 13.308594 17.332031 13.308594 17.089844 L 13.308594 15.101562 C 13.308594 13.242188 12.160156 11.628906 10.480469 10.898438 C 10.257812 11.164062 9.992188 11.363281 9.707031 11.539062 C 11.277344 12.027344 12.425781 13.417969 12.425781 15.101562 L 12.425781 17.089844 C 12.425781 17.332031 12.625 17.53125 12.867188 17.53125 Z M 12.867188 17.53125 " fill-opacity="1" fill-rule="nonzero"/><path fill="#013f69" d="M 3.136719 17.53125 C 3.378906 17.53125 3.578125 17.332031 3.578125 17.089844 L 3.578125 15.101562 C 3.578125 13.441406 4.730469 12.027344 6.300781 11.539062 C 6.011719 11.363281 5.746094 11.140625 5.527344 10.898438 C 3.84375 11.605469 2.695312 13.21875 2.695312 15.101562 L 2.695312 17.089844 C 2.695312 17.332031 2.894531 17.53125 3.136719 17.53125 Z M 3.136719 17.53125 " fill-opacity="1" fill-rule="nonzero"/><path fill="#013f69" d="M 8.003906 6.253906 C 6.652344 6.253906 5.570312 7.339844 5.570312 8.6875 C 5.570312 10.035156 6.652344 11.121094 8.003906 11.121094 C 9.351562 11.121094 10.433594 10.035156 10.433594 8.6875 C 10.433594 7.339844 9.351562 6.253906 8.003906 6.253906 Z M 8.003906 10.234375 C 7.140625 10.234375 6.453125 9.550781 6.453125 8.6875 C 6.453125 7.824219 7.140625 7.140625 8.003906 7.140625 C 8.863281 7.140625 9.550781 7.824219 9.550781 8.6875 C 9.550781 9.550781 8.863281 10.234375 8.003906 10.234375 Z M 8.003906 10.234375 " fill-opacity="1" fill-rule="nonzero"/><path fill="#013f69" d="M 16.894531 10.324219 L 19.171875 7.40625 L 20.609375 8.179688 C 20.785156 8.265625 21.007812 8.246094 21.160156 8.066406 L 23.285156 5.613281 L 23.285156 5.722656 C 23.285156 5.96875 23.484375 6.164062 23.726562 6.164062 C 23.96875 6.164062 24.167969 5.96875 24.167969 5.722656 L 24.144531 4.265625 C 24.144531 4.132812 24.078125 4 23.96875 3.910156 C 23.859375 3.820312 23.703125 3.800781 23.570312 3.84375 L 22.132812 4.308594 C 21.890625 4.375 21.78125 4.640625 21.847656 4.859375 C 21.914062 5.105469 22.179688 5.214844 22.398438 5.148438 L 22.574219 5.105469 L 20.742188 7.226562 L 19.28125 6.453125 C 19.082031 6.34375 18.859375 6.410156 18.726562 6.5625 L 16.429688 9.460938 L 14.945312 8.621094 C 14.769531 8.53125 14.546875 8.554688 14.414062 8.6875 L 13 10.125 C 12.824219 10.300781 12.824219 10.589844 13 10.742188 C 13.089844 10.855469 13.199219 10.898438 13.308594 10.898438 C 13.421875 10.898438 13.53125 10.855469 13.621094 10.765625 L 14.792969 9.570312 L 16.316406 10.433594 C 16.515625 10.542969 16.761719 10.476562 16.894531 10.324219 Z M 16.894531 10.324219 " fill-opacity="1" fill-rule="nonzero"/><path fill="#013f69" d="M 23.925781 11.78125 C 23.925781 11.539062 23.726562 11.339844 23.484375 11.339844 L 17.289062 11.339844 C 17.046875 11.339844 16.847656 11.539062 16.847656 11.78125 C 16.847656 12.027344 17.046875 12.226562 17.289062 12.226562 L 23.484375 12.226562 C 23.726562 12.226562 23.925781 12.027344 23.925781 11.78125 Z M 23.925781 11.78125 " fill-opacity="1" fill-rule="nonzero"/><path fill="#013f69" d="M 17.289062 13.109375 C 17.046875 13.109375 16.847656 13.308594 16.847656 13.550781 C 16.847656 13.796875 17.046875 13.996094 17.289062 13.996094 L 20.894531 13.996094 C 21.140625 13.996094 21.335938 13.796875 21.335938 13.550781 C 21.335938 13.308594 21.140625 13.109375 20.894531 13.109375 Z M 17.289062 13.109375 " fill-opacity="1" fill-rule="nonzero"/></svg>